<?xml version="1.0" encoding="UTF-8" standalone="no"?>
<!DOCTYPE svg PUBLIC "-//W3C//DTD SVG 1.1//EN"
 "http://www.w3.org/Graphics/SVG/1.1/DTD/svg11.dtd">
<!-- Generated by graphviz version 2.36.0 (20140111.2315)
 -->
<!-- Title: g Pages: 1 -->
<svg width="366pt" height="545pt"
 viewBox="0.00 0.00 366.00 545.00" xmlns="http://www.w3.org/2000/svg" xmlns:xlink="http://www.w3.org/1999/xlink">
<g id="graph0" class="graph" transform="scale(1 1) rotate(0) translate(4 541)">
<title>g</title>
<text text-anchor="middle" x="179" y="-521.8" font-family="Times,serif" font-size="14.00">Effets premiers</text>
<!-- second -->
<g id="node1" class="node"><title>second</title>
<polygon fill="#fcd975" stroke="black" points="344,-76 282,-76 282,-14 344,-14 344,-76"/>
<text text-anchor="middle" x="313" y="-41.3" font-family="Times,serif" font-size="14.00">Seconde</text>
</g>
<!-- avantdernier -->
<g id="node2" class="node"><title>avantdernier</title>
<polygon fill="#fcd975" stroke="black" points="232,-278 134,-278 134,-180 232,-180 232,-278"/>
<text text-anchor="middle" x="183" y="-225.3" font-family="Times,serif" font-size="14.00">Avant&#45;dernière</text>
</g>
<!-- dernier -->
<g id="node3" class="node"><title>dernier</title>
<polygon fill="#fcd975" stroke="black" points="345,-346 281,-346 281,-282 345,-282 345,-346"/>
<text text-anchor="middle" x="313" y="-310.3" font-family="Times,serif" font-size="14.00">Dernière</text>
</g>
<!-- pemmican -->
<g id="node4" class="node"><title>pemmican</title>
<ellipse fill="burlywood" stroke="black" cx="49" cy="-368" rx="48.9926" ry="18"/>
<text text-anchor="middle" x="49" y="-364.3" font-family="Times,serif" font-size="14.00">Pemmican</text>
</g>
<!-- pemmican&#45;&gt;pemmican -->
<g id="edge5" class="edge"><title>pemmican&#45;&gt;pemmican</title>
<path fill="none" stroke="green" d="M25.8624,-383.916C19.8265,-394.15 27.5391,-404 49,-404 63.0837,-404 71.2465,-399.758 73.4884,-393.949"/>
<polygon fill="green" stroke="green" points="76.9406,-393.36 72.1376,-383.916 70.0032,-394.294 76.9406,-393.36"/>
</g>
<!-- bastion -->
<g id="node5" class="node"><title>bastion</title>
<ellipse fill="burlywood" stroke="black" cx="183" cy="-368" rx="37.8943" ry="18"/>
<text text-anchor="middle" x="183" y="-364.3" font-family="Times,serif" font-size="14.00">Bastion</text>
</g>
<!-- pemmican&#45;&gt;bastion -->
<g id="edge6" class="edge"><title>pemmican&#45;&gt;bastion</title>
<path fill="none" stroke="red" d="M94.6892,-361.573C108.397,-361.144 123.48,-361.142 137.196,-361.569"/>
<polygon fill="red" stroke="red" points="137.24,-365.074 147.372,-361.979 137.522,-358.08 137.24,-365.074"/>
</g>
<!-- bastion&#45;&gt;pemmican -->
<g id="edge3" class="edge"><title>bastion&#45;&gt;pemmican</title>
<path fill="none" stroke="red" d="M147.372,-374.021C134.405,-374.672 119.333,-374.887 104.976,-374.666"/>
<polygon fill="red" stroke="red" points="104.768,-371.16 94.6892,-374.427 104.605,-378.158 104.768,-371.16"/>
</g>
<!-- bastion&#45;&gt;bastion -->
<g id="edge4" class="edge"><title>bastion&#45;&gt;bastion</title>
<path fill="none" stroke="green" d="M161.249,-382.792C154.168,-393.417 161.418,-404 183,-404 197.5,-404 205.531,-399.222 207.092,-392.865"/>
<polygon fill="green" stroke="green" points="210.424,-391.739 204.751,-382.792 203.606,-393.324 210.424,-391.739"/>
</g>
<!-- citygroup -->
<g id="node6" class="node"><title>citygroup</title>
<ellipse fill="burlywood" stroke="black" cx="183" cy="-144" rx="46.2923" ry="18"/>
<text text-anchor="middle" x="183" y="-140.3" font-family="Times,serif" font-size="14.00">Citygroup</text>
</g>
<!-- citygroup&#45;&gt;second -->
<g id="edge2" class="edge"><title>citygroup&#45;&gt;second</title>
<path fill="none" stroke="green" d="M211.805,-129.73C218.593,-125.878 225.709,-121.516 232,-117 246.592,-106.525 261.507,-93.7639 274.443,-81.911"/>
<polygon fill="green" stroke="green" points="276.871,-84.4326 281.814,-75.0613 272.106,-79.3048 276.871,-84.4326"/>
</g>
<!-- citygroup&#45;&gt;dernier -->
<g id="edge1" class="edge"><title>citygroup&#45;&gt;dernier</title>
<path fill="none" stroke="red" d="M213.958,-157.497C220.386,-161.269 226.8,-165.788 232,-171 260.951,-200.019 282.657,-241.675 296.101,-272.549"/>
<polygon fill="red" stroke="red" points="292.88,-273.919 300.007,-281.758 299.324,-271.185 292.88,-273.919"/>
</g>
<!-- enercore -->
<g id="node7" class="node"><title>enercore</title>
<ellipse fill="burlywood" stroke="black" cx="183" cy="-72" rx="42.4939" ry="18"/>
<text text-anchor="middle" x="183" y="-68.3" font-family="Times,serif" font-size="14.00">Enercore</text>
</g>
<!-- enercore&#45;&gt;second -->
<g id="edge10" class="edge"><title>enercore&#45;&gt;second</title>
<path fill="none" stroke="green" d="M221.367,-64.1179C237.105,-60.7981 255.459,-56.9267 271.518,-53.5393"/>
<polygon fill="green" stroke="green" points="272.626,-56.8825 281.689,-51.3938 271.181,-50.0332 272.626,-56.8825"/>
</g>
<!-- enercore&#45;&gt;enercore -->
<g id="edge9" class="edge"><title>enercore&#45;&gt;enercore</title>
<path fill="none" stroke="green" d="M160.773,-87.5414C154.517,-97.9087 161.926,-108 183,-108 196.83,-108 204.775,-103.654 206.834,-97.7362"/>
<polygon fill="green" stroke="green" points="210.242,-96.8742 205.227,-87.5414 203.327,-97.9646 210.242,-96.8742"/>
</g>
<!-- iris -->
<g id="node8" class="node"><title>iris</title>
<ellipse fill="burlywood" stroke="black" cx="49" cy="-187" rx="27" ry="18"/>
<text text-anchor="middle" x="49" y="-183.3" font-family="Times,serif" font-size="14.00">Iris</text>
</g>
<!-- iris&#45;&gt;avantdernier -->
<g id="edge19" class="edge"><title>iris&#45;&gt;avantdernier</title>
<path fill="none" stroke="green" d="M73.599,-194.509C87.677,-198.988 106.219,-204.888 123.978,-210.538"/>
<polygon fill="green" stroke="green" points="123.14,-213.945 133.731,-213.642 125.263,-207.274 123.14,-213.945"/>
</g>
<!-- iris&#45;&gt;citygroup -->
<g id="edge20" class="edge"><title>iris&#45;&gt;citygroup</title>
<path fill="none" stroke="red" d="M73.599,-179.312C91.2834,-173.552 116.011,-165.496 137.384,-158.534"/>
<polygon fill="red" stroke="red" points="138.507,-161.849 146.931,-155.424 136.339,-155.194 138.507,-161.849"/>
</g>
<!-- mercury -->
<g id="node9" class="node"><title>mercury</title>
<ellipse fill="burlywood" stroke="black" cx="183" cy="-314" rx="41.6928" ry="18"/>
<text text-anchor="middle" x="183" y="-310.3" font-family="Times,serif" font-size="14.00">Mercury</text>
</g>
<!-- mercury&#45;&gt;dernier -->
<g id="edge17" class="edge"><title>mercury&#45;&gt;dernier</title>
<path fill="none" stroke="green" d="M222.058,-307.769C237.266,-307.127 254.827,-307.08 270.373,-307.631"/>
<polygon fill="green" stroke="green" points="270.611,-311.145 280.761,-308.107 270.931,-304.153 270.611,-311.145"/>
</g>
<!-- mercury&#45;&gt;dernier -->
<g id="edge18" class="edge"><title>mercury&#45;&gt;dernier</title>
<path fill="none" stroke="green" d="M222.058,-320.231C237.266,-320.873 254.827,-320.92 270.373,-320.369"/>
<polygon fill="green" stroke="green" points="270.931,-323.847 280.761,-319.893 270.611,-316.855 270.931,-323.847"/>
</g>
<!-- pure -->
<g id="node10" class="node"><title>pure</title>
<ellipse fill="burlywood" stroke="black" cx="49" cy="-468" rx="27" ry="18"/>
<text text-anchor="middle" x="49" y="-464.3" font-family="Times,serif" font-size="14.00">Pure</text>
</g>
<!-- impulse -->
<g id="node11" class="node"><title>impulse</title>
<ellipse fill="burlywood" stroke="black" cx="183" cy="-496" rx="39.7935" ry="18"/>
<text text-anchor="middle" x="183" y="-492.3" font-family="Times,serif" font-size="14.00">Impulse</text>
</g>
<!-- pure&#45;&gt;impulse -->
<g id="edge16" class="edge"><title>pure&#45;&gt;impulse</title>
<path fill="none" stroke="green" d="M76.079,-468.028C95.1484,-470.703 121.34,-476.018 142.907,-481.483"/>
<polygon fill="green" stroke="green" points="142.197,-484.915 152.759,-484.081 143.981,-478.147 142.197,-484.915"/>
</g>
<!-- shinsekai -->
<g id="node12" class="node"><title>shinsekai</title>
<ellipse fill="burlywood" stroke="black" cx="313" cy="-468" rx="44.6926" ry="18"/>
<text text-anchor="middle" x="313" y="-464.3" font-family="Times,serif" font-size="14.00">Shinsekai</text>
</g>
<!-- pure&#45;&gt;shinsekai -->
<g id="edge15" class="edge"><title>pure&#45;&gt;shinsekai</title>
<path fill="none" stroke="red" d="M75.5987,-463.789C118.146,-460.915 204.239,-460.481 259.95,-462.486"/>
<polygon fill="red" stroke="red" points="259.849,-465.985 269.981,-462.889 260.13,-458.99 259.849,-465.985"/>
</g>
<!-- impulse&#45;&gt;pure -->
<g id="edge14" class="edge"><title>impulse&#45;&gt;pure</title>
<path fill="none" stroke="red" d="M143.351,-494.008C123.684,-490.664 100.079,-485.54 81.5271,-480.542"/>
<polygon fill="red" stroke="red" points="82.3722,-477.143 71.7971,-477.79 80.4673,-483.879 82.3722,-477.143"/>
</g>
<!-- impulse&#45;&gt;shinsekai -->
<g id="edge13" class="edge"><title>impulse&#45;&gt;shinsekai</title>
<path fill="none" stroke="red" d="M212.726,-483.976C226.27,-480.147 242.879,-476.205 258.608,-473.013"/>
<polygon fill="red" stroke="red" points="259.63,-476.379 268.777,-471.032 258.292,-469.508 259.63,-476.379"/>
</g>
<!-- shinsekai&#45;&gt;pure -->
<g id="edge11" class="edge"><title>shinsekai&#45;&gt;pure</title>
<path fill="none" stroke="red" d="M269.981,-473.111C218.982,-475.391 133.864,-475.292 85.83,-472.814"/>
<polygon fill="red" stroke="red" points="85.7873,-469.306 75.5987,-472.211 85.3754,-476.294 85.7873,-469.306"/>
</g>
<!-- shinsekai&#45;&gt;impulse -->
<g id="edge12" class="edge"><title>shinsekai&#45;&gt;impulse</title>
<path fill="none" stroke="green" d="M280.925,-480.681C266.334,-484.716 248.603,-488.823 232.317,-491.997"/>
<polygon fill="green" stroke="green" points="231.594,-488.572 222.404,-493.844 232.876,-495.453 231.594,-488.572"/>
</g>
<!-- taurus -->
<g id="node13" class="node"><title>taurus</title>
<ellipse fill="burlywood" stroke="black" cx="183" cy="-18" rx="35.194" ry="18"/>
<text text-anchor="middle" x="183" y="-14.3" font-family="Times,serif" font-size="14.00">Taurus</text>
</g>
<!-- taurus&#45;&gt;second -->
<g id="edge7" class="edge"><title>taurus&#45;&gt;second</title>
<path fill="none" stroke="red" d="M218.302,-19.1781C234.892,-21.8448 254.903,-25.9842 272.165,-30.2946"/>
<polygon fill="red" stroke="red" points="271.405,-33.7134 281.964,-32.8424 273.167,-26.9386 271.405,-33.7134"/>
</g>
<!-- taurus&#45;&gt;second -->
<g id="edge8" class="edge"><title>taurus&#45;&gt;second</title>
<path fill="none" stroke="red" d="M210.522,-29.1871C228.231,-34.1673 251.852,-39.3905 271.848,-42.8454"/>
<polygon fill="red" stroke="red" points="271.492,-46.3334 281.924,-44.4803 272.614,-39.4238 271.492,-46.3334"/>
</g>
</g>
</svg>
