<?xml version="1.0" encoding="UTF-8" standalone="no"?>
<!DOCTYPE svg PUBLIC "-//W3C//DTD SVG 1.1//EN"
 "http://www.w3.org/Graphics/SVG/1.1/DTD/svg11.dtd">
<!-- Generated by graphviz version 2.36.0 (20140111.2315)
 -->
<!-- Title: g Pages: 1 -->
<svg width="366pt" height="559pt"
 viewBox="0.00 0.00 366.00 559.00" xmlns="http://www.w3.org/2000/svg" xmlns:xlink="http://www.w3.org/1999/xlink">
<g id="graph0" class="graph" transform="scale(1 1) rotate(0) translate(4 555)">
<title>g</title>
<text text-anchor="middle" x="179" y="-535.8" font-family="Times,serif" font-size="14.00">Effets premiers</text>
<!-- second -->
<g id="node1" class="node"><title>second</title>
<polygon fill="#fcd975" stroke="black" points="344,-207 282,-207 282,-145 344,-145 344,-207"/>
<text text-anchor="middle" x="313" y="-172.3" font-family="Times,serif" font-size="14.00">Seconde</text>
</g>
<!-- avantdernier -->
<g id="node2" class="node"><title>avantdernier</title>
<polygon fill="#fcd975" stroke="black" points="232,-346 134,-346 134,-248 232,-248 232,-346"/>
<text text-anchor="middle" x="183" y="-293.3" font-family="Times,serif" font-size="14.00">Avant&#45;dernière</text>
</g>
<!-- dernier -->
<g id="node3" class="node"><title>dernier</title>
<polygon fill="#fcd975" stroke="black" points="345,-64 281,-64 281,-0 345,-0 345,-64"/>
<text text-anchor="middle" x="313" y="-28.3" font-family="Times,serif" font-size="14.00">Dernière</text>
</g>
<!-- pemmican -->
<g id="node4" class="node"><title>pemmican</title>
<ellipse fill="burlywood" stroke="black" cx="49" cy="-382" rx="48.9926" ry="18"/>
<text text-anchor="middle" x="49" y="-378.3" font-family="Times,serif" font-size="14.00">Pemmican</text>
</g>
<!-- pemmican&#45;&gt;pemmican -->
<g id="edge5" class="edge"><title>pemmican&#45;&gt;pemmican</title>
<path fill="none" stroke="green" d="M25.8624,-397.916C19.8265,-408.15 27.5391,-418 49,-418 63.0837,-418 71.2465,-413.758 73.4884,-407.949"/>
<polygon fill="green" stroke="green" points="76.9406,-407.36 72.1376,-397.916 70.0032,-408.294 76.9406,-407.36"/>
</g>
<!-- bastion -->
<g id="node5" class="node"><title>bastion</title>
<ellipse fill="burlywood" stroke="black" cx="183" cy="-382" rx="37.8943" ry="18"/>
<text text-anchor="middle" x="183" y="-378.3" font-family="Times,serif" font-size="14.00">Bastion</text>
</g>
<!-- pemmican&#45;&gt;bastion -->
<g id="edge6" class="edge"><title>pemmican&#45;&gt;bastion</title>
<path fill="none" stroke="red" d="M94.6892,-375.573C108.397,-375.144 123.48,-375.142 137.196,-375.569"/>
<polygon fill="red" stroke="red" points="137.24,-379.074 147.372,-375.979 137.522,-372.08 137.24,-379.074"/>
</g>
<!-- bastion&#45;&gt;pemmican -->
<g id="edge3" class="edge"><title>bastion&#45;&gt;pemmican</title>
<path fill="none" stroke="red" d="M147.372,-388.021C134.405,-388.672 119.333,-388.887 104.976,-388.666"/>
<polygon fill="red" stroke="red" points="104.768,-385.16 94.6892,-388.427 104.605,-392.158 104.768,-385.16"/>
</g>
<!-- bastion&#45;&gt;bastion -->
<g id="edge4" class="edge"><title>bastion&#45;&gt;bastion</title>
<path fill="none" stroke="green" d="M161.249,-396.792C154.168,-407.417 161.418,-418 183,-418 197.5,-418 205.531,-413.222 207.092,-406.865"/>
<polygon fill="green" stroke="green" points="210.424,-405.739 204.751,-396.792 203.606,-407.324 210.424,-405.739"/>
</g>
<!-- citygroup -->
<g id="node6" class="node"><title>citygroup</title>
<ellipse fill="burlywood" stroke="black" cx="183" cy="-212" rx="46.2923" ry="18"/>
<text text-anchor="middle" x="183" y="-208.3" font-family="Times,serif" font-size="14.00">Citygroup</text>
</g>
<!-- citygroup&#45;&gt;second -->
<g id="edge7" class="edge"><title>citygroup&#45;&gt;second</title>
<path fill="none" stroke="red" d="M212.726,-198.18C230.095,-192.185 252.505,-185.688 271.637,-181.029"/>
<polygon fill="red" stroke="red" points="272.642,-184.389 281.586,-178.709 271.052,-177.572 272.642,-184.389"/>
</g>
<!-- citygroup&#45;&gt;second -->
<g id="edge8" class="edge"><title>citygroup&#45;&gt;second</title>
<path fill="none" stroke="red" d="M226.978,-206.328C241.613,-202.694 257.897,-198.075 272.266,-193.474"/>
<polygon fill="red" stroke="red" points="273.466,-196.764 281.863,-190.304 271.27,-190.117 273.466,-196.764"/>
</g>
<!-- enercore -->
<g id="node7" class="node"><title>enercore</title>
<ellipse fill="burlywood" stroke="black" cx="183" cy="-140" rx="42.4939" ry="18"/>
<text text-anchor="middle" x="183" y="-136.3" font-family="Times,serif" font-size="14.00">Enercore</text>
</g>
<!-- enercore&#45;&gt;second -->
<g id="edge10" class="edge"><title>enercore&#45;&gt;second</title>
<path fill="none" stroke="green" d="M218.639,-149.742C235.102,-154.372 254.874,-159.933 271.977,-164.743"/>
<polygon fill="green" stroke="green" points="271.118,-168.138 281.692,-167.476 273.014,-161.399 271.118,-168.138"/>
</g>
<!-- enercore&#45;&gt;enercore -->
<g id="edge9" class="edge"><title>enercore&#45;&gt;enercore</title>
<path fill="none" stroke="green" d="M160.773,-155.541C154.517,-165.909 161.926,-176 183,-176 196.83,-176 204.775,-171.654 206.834,-165.736"/>
<polygon fill="green" stroke="green" points="210.242,-164.874 205.227,-155.541 203.327,-165.965 210.242,-164.874"/>
</g>
<!-- iris -->
<g id="node8" class="node"><title>iris</title>
<ellipse fill="burlywood" stroke="black" cx="49" cy="-255" rx="27" ry="18"/>
<text text-anchor="middle" x="49" y="-251.3" font-family="Times,serif" font-size="14.00">Iris</text>
</g>
<!-- iris&#45;&gt;avantdernier -->
<g id="edge19" class="edge"><title>iris&#45;&gt;avantdernier</title>
<path fill="none" stroke="red" d="M73.599,-262.509C87.677,-266.988 106.219,-272.888 123.978,-278.538"/>
<polygon fill="red" stroke="red" points="123.14,-281.945 133.731,-281.642 125.263,-275.274 123.14,-281.945"/>
</g>
<!-- iris&#45;&gt;citygroup -->
<g id="edge20" class="edge"><title>iris&#45;&gt;citygroup</title>
<path fill="none" stroke="green" d="M73.599,-247.312C91.2834,-241.552 116.011,-233.496 137.384,-226.534"/>
<polygon fill="green" stroke="green" points="138.507,-229.849 146.931,-223.424 136.339,-223.194 138.507,-229.849"/>
</g>
<!-- mercury -->
<g id="node9" class="node"><title>mercury</title>
<ellipse fill="burlywood" stroke="black" cx="183" cy="-32" rx="41.6928" ry="18"/>
<text text-anchor="middle" x="183" y="-28.3" font-family="Times,serif" font-size="14.00">Mercury</text>
</g>
<!-- mercury&#45;&gt;dernier -->
<g id="edge17" class="edge"><title>mercury&#45;&gt;dernier</title>
<path fill="none" stroke="green" d="M222.058,-25.7692C237.266,-25.1266 254.827,-25.0805 270.373,-25.6308"/>
<polygon fill="green" stroke="green" points="270.611,-29.1453 280.761,-26.1071 270.931,-22.1526 270.611,-29.1453"/>
</g>
<!-- mercury&#45;&gt;dernier -->
<g id="edge18" class="edge"><title>mercury&#45;&gt;dernier</title>
<path fill="none" stroke="green" d="M222.058,-38.2308C237.266,-38.8734 254.827,-38.9195 270.373,-38.3692"/>
<polygon fill="green" stroke="green" points="270.931,-41.8474 280.761,-37.8929 270.611,-34.8547 270.931,-41.8474"/>
</g>
<!-- pure -->
<g id="node10" class="node"><title>pure</title>
<ellipse fill="burlywood" stroke="black" cx="49" cy="-482" rx="27" ry="18"/>
<text text-anchor="middle" x="49" y="-478.3" font-family="Times,serif" font-size="14.00">Pure</text>
</g>
<!-- impulse -->
<g id="node11" class="node"><title>impulse</title>
<ellipse fill="burlywood" stroke="black" cx="183" cy="-510" rx="39.7935" ry="18"/>
<text text-anchor="middle" x="183" y="-506.3" font-family="Times,serif" font-size="14.00">Impulse</text>
</g>
<!-- pure&#45;&gt;impulse -->
<g id="edge16" class="edge"><title>pure&#45;&gt;impulse</title>
<path fill="none" stroke="green" d="M76.079,-482.028C95.1484,-484.703 121.34,-490.018 142.907,-495.483"/>
<polygon fill="green" stroke="green" points="142.197,-498.915 152.759,-498.081 143.981,-492.147 142.197,-498.915"/>
</g>
<!-- shinsekai -->
<g id="node12" class="node"><title>shinsekai</title>
<ellipse fill="burlywood" stroke="black" cx="313" cy="-482" rx="44.6926" ry="18"/>
<text text-anchor="middle" x="313" y="-478.3" font-family="Times,serif" font-size="14.00">Shinsekai</text>
</g>
<!-- pure&#45;&gt;shinsekai -->
<g id="edge15" class="edge"><title>pure&#45;&gt;shinsekai</title>
<path fill="none" stroke="red" d="M75.5987,-477.789C118.146,-474.915 204.239,-474.481 259.95,-476.486"/>
<polygon fill="red" stroke="red" points="259.849,-479.985 269.981,-476.889 260.13,-472.99 259.849,-479.985"/>
</g>
<!-- impulse&#45;&gt;pure -->
<g id="edge14" class="edge"><title>impulse&#45;&gt;pure</title>
<path fill="none" stroke="red" d="M143.351,-508.008C123.684,-504.664 100.079,-499.54 81.5271,-494.542"/>
<polygon fill="red" stroke="red" points="82.3722,-491.143 71.7971,-491.79 80.4673,-497.879 82.3722,-491.143"/>
</g>
<!-- impulse&#45;&gt;shinsekai -->
<g id="edge13" class="edge"><title>impulse&#45;&gt;shinsekai</title>
<path fill="none" stroke="red" d="M212.726,-497.976C226.27,-494.147 242.879,-490.205 258.608,-487.013"/>
<polygon fill="red" stroke="red" points="259.63,-490.379 268.777,-485.032 258.292,-483.508 259.63,-490.379"/>
</g>
<!-- shinsekai&#45;&gt;pure -->
<g id="edge11" class="edge"><title>shinsekai&#45;&gt;pure</title>
<path fill="none" stroke="red" d="M269.981,-487.111C218.982,-489.391 133.864,-489.292 85.83,-486.814"/>
<polygon fill="red" stroke="red" points="85.7873,-483.306 75.5987,-486.211 85.3754,-490.294 85.7873,-483.306"/>
</g>
<!-- shinsekai&#45;&gt;impulse -->
<g id="edge12" class="edge"><title>shinsekai&#45;&gt;impulse</title>
<path fill="none" stroke="green" d="M280.925,-494.681C266.334,-498.716 248.603,-502.823 232.317,-505.997"/>
<polygon fill="green" stroke="green" points="231.594,-502.572 222.404,-507.844 232.876,-509.453 231.594,-502.572"/>
</g>
<!-- taurus -->
<g id="node13" class="node"><title>taurus</title>
<ellipse fill="burlywood" stroke="black" cx="183" cy="-86" rx="35.194" ry="18"/>
<text text-anchor="middle" x="183" y="-82.3" font-family="Times,serif" font-size="14.00">Taurus</text>
</g>
<!-- taurus&#45;&gt;second -->
<g id="edge2" class="edge"><title>taurus&#45;&gt;second</title>
<path fill="none" stroke="green" d="M208.364,-98.7476C216.075,-103.034 224.531,-108.002 232,-113 246.114,-122.445 260.9,-133.672 273.867,-144.014"/>
<polygon fill="green" stroke="green" points="271.701,-146.764 281.683,-150.316 276.095,-141.315 271.701,-146.764"/>
</g>
<!-- taurus&#45;&gt;dernier -->
<g id="edge1" class="edge"><title>taurus&#45;&gt;dernier</title>
<path fill="none" stroke="red" d="M210.522,-74.8112C228.016,-67.4308 251.279,-57.6168 271.118,-49.2472"/>
<polygon fill="red" stroke="red" points="272.689,-52.3833 280.542,-45.2715 269.968,-45.9338 272.689,-52.3833"/>
</g>
</g>
</svg>
