<?xml version="1.0" encoding="UTF-8" standalone="no"?>
<!DOCTYPE svg PUBLIC "-//W3C//DTD SVG 1.1//EN"
 "http://www.w3.org/Graphics/SVG/1.1/DTD/svg11.dtd">
<!-- Generated by graphviz version 2.36.0 (20140111.2315)
 -->
<!-- Title: g Pages: 1 -->
<svg width="494pt" height="383pt"
 viewBox="0.00 0.00 494.00 383.00" xmlns="http://www.w3.org/2000/svg" xmlns:xlink="http://www.w3.org/1999/xlink">
<g id="graph0" class="graph" transform="scale(1 1) rotate(0) translate(4 379)">
<title>g</title>
<text text-anchor="middle" x="243" y="-359.8" font-family="Times,serif" font-size="14.00">Effets derniers</text>
<!-- premier -->
<g id="node1" class="node"><title>premier</title>
<polygon fill="#fcd975" stroke="black" points="470,-236 404,-236 404,-170 470,-170 470,-236"/>
<text text-anchor="middle" x="437" y="-199.3" font-family="Times,serif" font-size="14.00">Première</text>
</g>
<!-- second -->
<g id="node2" class="node"><title>second</title>
<polygon fill="#fcd975" stroke="black" points="468,-84 406,-84 406,-22 468,-22 468,-84"/>
<text text-anchor="middle" x="437" y="-49.3" font-family="Times,serif" font-size="14.00">Seconde</text>
</g>
<!-- avantdernier -->
<g id="node3" class="node"><title>avantdernier</title>
<polygon fill="#fcd975" stroke="black" points="486,-352 388,-352 388,-254 486,-254 486,-352"/>
<text text-anchor="middle" x="437" y="-299.3" font-family="Times,serif" font-size="14.00">Avant&#45;dernière</text>
</g>
<!-- pemmican -->
<g id="node4" class="node"><title>pemmican</title>
<ellipse fill="burlywood" stroke="black" cx="49" cy="-176" rx="48.9926" ry="18"/>
<text text-anchor="middle" x="49" y="-172.3" font-family="Times,serif" font-size="14.00">Pemmican</text>
</g>
<!-- pemmican&#45;&gt;pemmican -->
<g id="edge5" class="edge"><title>pemmican&#45;&gt;pemmican</title>
<path fill="none" stroke="red" d="M26.3448,-192.29C20.8819,-202.389 28.4336,-212 49,-212 62.1754,-212 70.0095,-208.056 72.5024,-202.566"/>
<polygon fill="red" stroke="red" points="75.9651,-201.969 71.6552,-192.29 68.9888,-202.544 75.9651,-201.969"/>
</g>
<!-- bastion -->
<g id="node5" class="node"><title>bastion</title>
<ellipse fill="burlywood" stroke="black" cx="179" cy="-176" rx="37.8943" ry="18"/>
<text text-anchor="middle" x="179" y="-172.3" font-family="Times,serif" font-size="14.00">Bastion</text>
</g>
<!-- pemmican&#45;&gt;bastion -->
<g id="edge6" class="edge"><title>pemmican&#45;&gt;bastion</title>
<path fill="none" stroke="green" d="M94.7682,-169.529C107.159,-169.159 120.61,-169.157 133.014,-169.522"/>
<polygon fill="green" stroke="green" points="133.012,-173.025 143.14,-169.915 133.283,-166.03 133.012,-173.025"/>
</g>
<!-- bastion&#45;&gt;pemmican -->
<g id="edge3" class="edge"><title>bastion&#45;&gt;pemmican</title>
<path fill="none" stroke="green" d="M143.14,-182.085C131.372,-182.661 117.933,-182.863 104.995,-182.69"/>
<polygon fill="green" stroke="green" points="104.841,-179.186 94.7682,-182.471 104.691,-186.185 104.841,-179.186"/>
</g>
<!-- bastion&#45;&gt;bastion -->
<g id="edge4" class="edge"><title>bastion&#45;&gt;bastion</title>
<path fill="none" stroke="red" d="M157.682,-191.167C151.222,-201.664 158.328,-212 179,-212 192.889,-212 200.654,-207.334 202.295,-201.088"/>
<polygon fill="red" stroke="red" points="205.705,-200.29 200.318,-191.167 198.84,-201.658 205.705,-200.29"/>
</g>
<!-- citygroup -->
<g id="node6" class="node"><title>citygroup</title>
<ellipse fill="burlywood" stroke="black" cx="306" cy="-53" rx="46.2923" ry="18"/>
<text text-anchor="middle" x="306" y="-49.3" font-family="Times,serif" font-size="14.00">Citygroup</text>
</g>
<!-- citygroup&#45;&gt;second -->
<g id="edge7" class="edge"><title>citygroup&#45;&gt;second</title>
<path fill="none" stroke="green" d="M349.239,-46.6208C364.14,-46.1052 380.847,-46.1273 395.592,-46.6872"/>
<polygon fill="green" stroke="green" points="395.77,-50.1999 405.928,-47.19 396.11,-43.2082 395.77,-50.1999"/>
</g>
<!-- citygroup&#45;&gt;second -->
<g id="edge8" class="edge"><title>citygroup&#45;&gt;second</title>
<path fill="none" stroke="green" d="M349.239,-59.3792C364.14,-59.8948 380.847,-59.8727 395.592,-59.3128"/>
<polygon fill="green" stroke="green" points="396.11,-62.7918 405.928,-58.81 395.77,-55.8001 396.11,-62.7918"/>
</g>
<!-- enercore -->
<g id="node7" class="node"><title>enercore</title>
<ellipse fill="burlywood" stroke="black" cx="306" cy="-161" rx="42.4939" ry="18"/>
<text text-anchor="middle" x="306" y="-157.3" font-family="Times,serif" font-size="14.00">Enercore</text>
</g>
<!-- enercore&#45;&gt;premier -->
<g id="edge9" class="edge"><title>enercore&#45;&gt;premier</title>
<path fill="none" stroke="green" d="M340.221,-171.816C356.571,-177.139 376.459,-183.614 393.866,-189.282"/>
<polygon fill="green" stroke="green" points="393.191,-192.743 403.783,-192.511 395.358,-186.087 393.191,-192.743"/>
</g>
<!-- enercore&#45;&gt;second -->
<g id="edge10" class="edge"><title>enercore&#45;&gt;second</title>
<path fill="none" stroke="green" d="M332.888,-146.834C339.322,-142.947 346.07,-138.544 352,-134 368.844,-121.094 385.966,-105.189 400.319,-90.8999"/>
<polygon fill="green" stroke="green" points="403.002,-93.1653 407.557,-83.5994 398.031,-88.2371 403.002,-93.1653"/>
</g>
<!-- iris -->
<g id="node8" class="node"><title>iris</title>
<ellipse fill="burlywood" stroke="black" cx="179" cy="-18" rx="27" ry="18"/>
<text text-anchor="middle" x="179" y="-14.3" font-family="Times,serif" font-size="14.00">Iris</text>
</g>
<!-- iris&#45;&gt;second -->
<g id="edge20" class="edge"><title>iris&#45;&gt;second</title>
<path fill="none" stroke="green" d="M206.174,-17.0841C240.1,-16.3822 300.961,-16.779 352,-26 366.677,-28.6517 382.341,-33.1921 396.118,-37.8009"/>
<polygon fill="green" stroke="green" points="395.18,-41.18 405.775,-41.1429 397.47,-34.5649 395.18,-41.18"/>
</g>
<!-- iris&#45;&gt;citygroup -->
<g id="edge19" class="edge"><title>iris&#45;&gt;citygroup</title>
<path fill="none" stroke="red" d="M204.101,-24.7484C219.496,-29.0589 239.966,-34.7905 258.444,-39.9642"/>
<polygon fill="red" stroke="red" points="257.599,-43.3622 268.172,-42.6881 259.486,-36.6214 257.599,-43.3622"/>
</g>
<!-- mercury -->
<g id="node9" class="node"><title>mercury</title>
<ellipse fill="burlywood" stroke="black" cx="306" cy="-215" rx="41.6928" ry="18"/>
<text text-anchor="middle" x="306" y="-211.3" font-family="Times,serif" font-size="14.00">Mercury</text>
</g>
<!-- mercury&#45;&gt;premier -->
<g id="edge17" class="edge"><title>mercury&#45;&gt;premier</title>
<path fill="none" stroke="green" d="M341.909,-205.678C357.852,-203.413 376.873,-201.541 393.628,-200.558"/>
<polygon fill="green" stroke="green" points="393.902,-204.049 403.72,-200.065 393.561,-197.057 393.902,-204.049"/>
</g>
<!-- mercury&#45;&gt;premier -->
<g id="edge18" class="edge"><title>mercury&#45;&gt;premier</title>
<path fill="none" stroke="green" d="M347.462,-217.551C362.231,-216.736 378.962,-215.2 393.872,-213.294"/>
<polygon fill="green" stroke="green" points="394.428,-216.751 403.857,-211.92 393.473,-209.816 394.428,-216.751"/>
</g>
<!-- pure -->
<g id="node10" class="node"><title>pure</title>
<ellipse fill="burlywood" stroke="black" cx="49" cy="-84" rx="27" ry="18"/>
<text text-anchor="middle" x="49" y="-80.3" font-family="Times,serif" font-size="14.00">Pure</text>
</g>
<!-- impulse -->
<g id="node11" class="node"><title>impulse</title>
<ellipse fill="burlywood" stroke="black" cx="306" cy="-107" rx="39.7935" ry="18"/>
<text text-anchor="middle" x="306" y="-103.3" font-family="Times,serif" font-size="14.00">Impulse</text>
</g>
<!-- pure&#45;&gt;impulse -->
<g id="edge16" class="edge"><title>pure&#45;&gt;impulse</title>
<path fill="none" stroke="red" d="M72.3526,-93.2899C89.0161,-99.6924 112.511,-107.631 134,-111 175.21,-117.46 222.68,-115.627 257.133,-112.656"/>
<polygon fill="red" stroke="red" points="257.752,-116.114 267.386,-111.705 257.105,-109.144 257.752,-116.114"/>
</g>
<!-- shinsekai -->
<g id="node12" class="node"><title>shinsekai</title>
<ellipse fill="burlywood" stroke="black" cx="179" cy="-84" rx="44.6926" ry="18"/>
<text text-anchor="middle" x="179" y="-80.3" font-family="Times,serif" font-size="14.00">Shinsekai</text>
</g>
<!-- pure&#45;&gt;shinsekai -->
<g id="edge15" class="edge"><title>pure&#45;&gt;shinsekai</title>
<path fill="none" stroke="green" d="M74.9835,-78.519C89.7016,-77.4138 108.871,-77.0305 126.677,-77.3691"/>
<polygon fill="green" stroke="green" points="126.867,-80.8756 136.959,-77.6519 127.059,-73.8782 126.867,-80.8756"/>
</g>
<!-- impulse&#45;&gt;premier -->
<g id="edge13" class="edge"><title>impulse&#45;&gt;premier</title>
<path fill="none" stroke="red" d="M331.705,-120.934C338.416,-124.957 345.596,-129.485 352,-134 366.828,-144.453 382.365,-156.786 395.988,-168.112"/>
<polygon fill="red" stroke="red" points="393.858,-170.894 403.767,-174.643 398.358,-165.533 393.858,-170.894"/>
</g>
<!-- impulse&#45;&gt;second -->
<g id="edge14" class="edge"><title>impulse&#45;&gt;second</title>
<path fill="none" stroke="red" d="M335.629,-95.0156C353.49,-87.539 376.732,-77.8098 396.352,-69.5968"/>
<polygon fill="red" stroke="red" points="397.78,-72.7932 405.653,-65.7033 395.077,-66.3361 397.78,-72.7932"/>
</g>
<!-- shinsekai&#45;&gt;pure -->
<g id="edge11" class="edge"><title>shinsekai&#45;&gt;pure</title>
<path fill="none" stroke="green" d="M136.959,-90.3481C120.232,-90.9584 101.091,-90.8736 85.0339,-90.0936"/>
<polygon fill="green" stroke="green" points="85.178,-86.596 74.9835,-89.481 84.752,-93.583 85.178,-86.596"/>
</g>
<!-- shinsekai&#45;&gt;impulse -->
<g id="edge12" class="edge"><title>shinsekai&#45;&gt;impulse</title>
<path fill="none" stroke="red" d="M220.239,-91.4039C232.628,-93.6836 246.36,-96.2103 259.1,-98.5544"/>
<polygon fill="red" stroke="red" points="258.591,-102.019 269.06,-100.387 259.858,-95.1351 258.591,-102.019"/>
</g>
<!-- taurus -->
<g id="node13" class="node"><title>taurus</title>
<ellipse fill="burlywood" stroke="black" cx="306" cy="-292" rx="35.194" ry="18"/>
<text text-anchor="middle" x="306" y="-288.3" font-family="Times,serif" font-size="14.00">Taurus</text>
</g>
<!-- taurus&#45;&gt;premier -->
<g id="edge1" class="edge"><title>taurus&#45;&gt;premier</title>
<path fill="none" stroke="red" d="M327.726,-277.701C345.914,-265.152 372.895,-246.537 395.373,-231.03"/>
<polygon fill="red" stroke="red" points="397.496,-233.817 403.739,-225.258 393.52,-228.056 397.496,-233.817"/>
</g>
<!-- taurus&#45;&gt;avantdernier -->
<g id="edge2" class="edge"><title>taurus&#45;&gt;avantdernier</title>
<path fill="none" stroke="red" d="M340.893,-294.89C352.203,-295.854 365.146,-296.958 377.767,-298.034"/>
<polygon fill="red" stroke="red" points="377.52,-301.526 387.782,-298.888 378.115,-294.551 377.52,-301.526"/>
</g>
</g>
</svg>
