<?xml version="1.0" encoding="UTF-8" standalone="no"?>
<!DOCTYPE svg PUBLIC "-//W3C//DTD SVG 1.1//EN"
 "http://www.w3.org/Graphics/SVG/1.1/DTD/svg11.dtd">
<!-- Generated by graphviz version 2.36.0 (20140111.2315)
 -->
<!-- Title: g Pages: 1 -->
<svg width="494pt" height="352pt"
 viewBox="0.00 0.00 494.00 352.00" xmlns="http://www.w3.org/2000/svg" xmlns:xlink="http://www.w3.org/1999/xlink">
<g id="graph0" class="graph" transform="scale(1 1) rotate(0) translate(4 348)">
<title>g</title>
<text text-anchor="middle" x="243" y="-328.8" font-family="Times,serif" font-size="14.00">Effets derniers</text>
<!-- premier -->
<g id="node1" class="node"><title>premier</title>
<polygon fill="#fcd975" stroke="black" points="470,-309 404,-309 404,-243 470,-243 470,-309"/>
<text text-anchor="middle" x="437" y="-272.3" font-family="Times,serif" font-size="14.00">Première</text>
</g>
<!-- second -->
<g id="node2" class="node"><title>second</title>
<polygon fill="#fcd975" stroke="black" points="468,-178 406,-178 406,-116 468,-116 468,-178"/>
<text text-anchor="middle" x="437" y="-143.3" font-family="Times,serif" font-size="14.00">Seconde</text>
</g>
<!-- avantdernier -->
<g id="node3" class="node"><title>avantdernier</title>
<polygon fill="#fcd975" stroke="black" points="486,-98 388,-98 388,-7.10543e-15 486,-7.10543e-15 486,-98"/>
<text text-anchor="middle" x="437" y="-45.3" font-family="Times,serif" font-size="14.00">Avant&#45;dernière</text>
</g>
<!-- pemmican -->
<g id="node4" class="node"><title>pemmican</title>
<ellipse fill="burlywood" stroke="black" cx="49" cy="-223" rx="48.9926" ry="18"/>
<text text-anchor="middle" x="49" y="-219.3" font-family="Times,serif" font-size="14.00">Pemmican</text>
</g>
<!-- pemmican&#45;&gt;pemmican -->
<g id="edge5" class="edge"><title>pemmican&#45;&gt;pemmican</title>
<path fill="none" stroke="red" d="M26.3448,-239.29C20.8819,-249.389 28.4336,-259 49,-259 62.1754,-259 70.0095,-255.056 72.5024,-249.566"/>
<polygon fill="red" stroke="red" points="75.9651,-248.969 71.6552,-239.29 68.9888,-249.544 75.9651,-248.969"/>
</g>
<!-- bastion -->
<g id="node5" class="node"><title>bastion</title>
<ellipse fill="burlywood" stroke="black" cx="179" cy="-223" rx="37.8943" ry="18"/>
<text text-anchor="middle" x="179" y="-219.3" font-family="Times,serif" font-size="14.00">Bastion</text>
</g>
<!-- pemmican&#45;&gt;bastion -->
<g id="edge6" class="edge"><title>pemmican&#45;&gt;bastion</title>
<path fill="none" stroke="green" d="M94.7682,-216.529C107.159,-216.159 120.61,-216.157 133.014,-216.522"/>
<polygon fill="green" stroke="green" points="133.012,-220.025 143.14,-216.915 133.283,-213.03 133.012,-220.025"/>
</g>
<!-- bastion&#45;&gt;pemmican -->
<g id="edge3" class="edge"><title>bastion&#45;&gt;pemmican</title>
<path fill="none" stroke="green" d="M143.14,-229.085C131.372,-229.661 117.933,-229.863 104.995,-229.69"/>
<polygon fill="green" stroke="green" points="104.841,-226.186 94.7682,-229.471 104.691,-233.185 104.841,-226.186"/>
</g>
<!-- bastion&#45;&gt;bastion -->
<g id="edge4" class="edge"><title>bastion&#45;&gt;bastion</title>
<path fill="none" stroke="red" d="M157.682,-238.167C151.222,-248.664 158.328,-259 179,-259 192.889,-259 200.654,-254.334 202.295,-248.088"/>
<polygon fill="red" stroke="red" points="205.705,-247.29 200.318,-238.167 198.84,-248.658 205.705,-247.29"/>
</g>
<!-- citygroup -->
<g id="node6" class="node"><title>citygroup</title>
<ellipse fill="burlywood" stroke="black" cx="306" cy="-49" rx="46.2923" ry="18"/>
<text text-anchor="middle" x="306" y="-45.3" font-family="Times,serif" font-size="14.00">Citygroup</text>
</g>
<!-- citygroup&#45;&gt;avantdernier -->
<g id="edge7" class="edge"><title>citygroup&#45;&gt;avantdernier</title>
<path fill="none" stroke="green" d="M349.239,-42.6208C358.305,-42.3071 368.039,-42.1924 377.594,-42.2768"/>
<polygon fill="green" stroke="green" points="377.794,-45.7805 387.851,-42.4466 377.91,-38.7815 377.794,-45.7805"/>
</g>
<!-- citygroup&#45;&gt;avantdernier -->
<g id="edge8" class="edge"><title>citygroup&#45;&gt;avantdernier</title>
<path fill="none" stroke="green" d="M349.239,-55.3792C358.305,-55.6929 368.039,-55.8076 377.594,-55.7232"/>
<polygon fill="green" stroke="green" points="377.91,-59.2185 387.851,-55.5534 377.794,-52.2195 377.91,-59.2185"/>
</g>
<!-- enercore -->
<g id="node7" class="node"><title>enercore</title>
<ellipse fill="burlywood" stroke="black" cx="306" cy="-249" rx="42.4939" ry="18"/>
<text text-anchor="middle" x="306" y="-245.3" font-family="Times,serif" font-size="14.00">Enercore</text>
</g>
<!-- enercore&#45;&gt;premier -->
<g id="edge9" class="edge"><title>enercore&#45;&gt;premier</title>
<path fill="none" stroke="green" d="M344.312,-256.81C359.694,-260.029 377.602,-263.777 393.488,-267.102"/>
<polygon fill="green" stroke="green" points="393.083,-270.593 403.588,-269.216 394.518,-263.742 393.083,-270.593"/>
</g>
<!-- enercore&#45;&gt;second -->
<g id="edge10" class="edge"><title>enercore&#45;&gt;second</title>
<path fill="none" stroke="green" d="M332.769,-234.675C339.205,-230.791 345.984,-226.429 352,-222 367.808,-210.362 384.137,-196.316 398.147,-183.541"/>
<polygon fill="green" stroke="green" points="400.697,-185.951 405.674,-176.598 395.951,-180.805 400.697,-185.951"/>
</g>
<!-- iris -->
<g id="node8" class="node"><title>iris</title>
<ellipse fill="burlywood" stroke="black" cx="179" cy="-58" rx="27" ry="18"/>
<text text-anchor="middle" x="179" y="-54.3" font-family="Times,serif" font-size="14.00">Iris</text>
</g>
<!-- iris&#45;&gt;second -->
<g id="edge20" class="edge"><title>iris&#45;&gt;second</title>
<path fill="none" stroke="red" d="M203.8,-65.2564C237.135,-75.5313 299.534,-95.1721 352,-114 366.618,-119.246 382.51,-125.377 396.498,-130.921"/>
<polygon fill="red" stroke="red" points="395.253,-134.193 405.838,-134.648 397.847,-127.691 395.253,-134.193"/>
</g>
<!-- iris&#45;&gt;citygroup -->
<g id="edge19" class="edge"><title>iris&#45;&gt;citygroup</title>
<path fill="none" stroke="red" d="M205.9,-56.1352C218.805,-55.206 234.925,-54.0454 250.39,-52.9319"/>
<polygon fill="red" stroke="red" points="250.695,-56.4191 260.418,-52.2099 250.192,-49.4372 250.695,-56.4191"/>
</g>
<!-- mercury -->
<g id="node9" class="node"><title>mercury</title>
<ellipse fill="burlywood" stroke="black" cx="306" cy="-303" rx="41.6928" ry="18"/>
<text text-anchor="middle" x="306" y="-299.3" font-family="Times,serif" font-size="14.00">Mercury</text>
</g>
<!-- mercury&#45;&gt;premier -->
<g id="edge17" class="edge"><title>mercury&#45;&gt;premier</title>
<path fill="none" stroke="green" d="M336.919,-290.937C353.875,-286.356 375.358,-281.669 393.982,-278.423"/>
<polygon fill="green" stroke="green" points="394.689,-281.854 403.988,-276.778 393.553,-274.947 394.689,-281.854"/>
</g>
<!-- mercury&#45;&gt;premier -->
<g id="edge18" class="edge"><title>mercury&#45;&gt;premier</title>
<path fill="none" stroke="green" d="M347.462,-300.846C362.231,-298.314 378.962,-294.833 393.872,-291.193"/>
<polygon fill="green" stroke="green" points="395.026,-294.511 403.857,-288.658 393.303,-287.726 395.026,-294.511"/>
</g>
<!-- pure -->
<g id="node10" class="node"><title>pure</title>
<ellipse fill="burlywood" stroke="black" cx="49" cy="-131" rx="27" ry="18"/>
<text text-anchor="middle" x="49" y="-127.3" font-family="Times,serif" font-size="14.00">Pure</text>
</g>
<!-- impulse -->
<g id="node11" class="node"><title>impulse</title>
<ellipse fill="burlywood" stroke="black" cx="306" cy="-141" rx="39.7935" ry="18"/>
<text text-anchor="middle" x="306" y="-137.3" font-family="Times,serif" font-size="14.00">Impulse</text>
</g>
<!-- pure&#45;&gt;impulse -->
<g id="edge16" class="edge"><title>pure&#45;&gt;impulse</title>
<path fill="none" stroke="red" d="M72.3526,-140.29C89.0161,-146.692 112.511,-154.631 134,-158 173.517,-164.195 184.214,-162.13 224,-158 236.171,-156.737 249.207,-154.433 261.186,-151.92"/>
<polygon fill="red" stroke="red" points="261.939,-155.338 270.958,-149.779 260.441,-148.501 261.939,-155.338"/>
</g>
<!-- shinsekai -->
<g id="node12" class="node"><title>shinsekai</title>
<ellipse fill="burlywood" stroke="black" cx="179" cy="-131" rx="44.6926" ry="18"/>
<text text-anchor="middle" x="179" y="-127.3" font-family="Times,serif" font-size="14.00">Shinsekai</text>
</g>
<!-- pure&#45;&gt;shinsekai -->
<g id="edge15" class="edge"><title>pure&#45;&gt;shinsekai</title>
<path fill="none" stroke="green" d="M74.9835,-125.519C89.7016,-124.414 108.871,-124.031 126.677,-124.369"/>
<polygon fill="green" stroke="green" points="126.867,-127.876 136.959,-124.652 127.059,-120.878 126.867,-127.876"/>
</g>
<!-- impulse&#45;&gt;second -->
<g id="edge14" class="edge"><title>impulse&#45;&gt;second</title>
<path fill="none" stroke="red" d="M345.704,-142.8C361.533,-143.536 379.843,-144.388 395.82,-145.131"/>
<polygon fill="red" stroke="red" points="395.781,-148.633 405.933,-145.602 396.107,-141.641 395.781,-148.633"/>
</g>
<!-- impulse&#45;&gt;avantdernier -->
<g id="edge13" class="edge"><title>impulse&#45;&gt;avantdernier</title>
<path fill="none" stroke="red" d="M328.013,-126.014C342.067,-115.991 361.277,-102.291 379.601,-89.2227"/>
<polygon fill="red" stroke="red" points="381.826,-91.9344 387.936,-83.2784 377.762,-86.2352 381.826,-91.9344"/>
</g>
<!-- shinsekai&#45;&gt;pure -->
<g id="edge11" class="edge"><title>shinsekai&#45;&gt;pure</title>
<path fill="none" stroke="green" d="M136.959,-137.348C120.232,-137.958 101.091,-137.874 85.0339,-137.094"/>
<polygon fill="green" stroke="green" points="85.178,-133.596 74.9835,-136.481 84.752,-140.583 85.178,-133.596"/>
</g>
<!-- shinsekai&#45;&gt;impulse -->
<g id="edge12" class="edge"><title>shinsekai&#45;&gt;impulse</title>
<path fill="none" stroke="red" d="M223.368,-134.469C234.055,-135.324 245.569,-136.245 256.482,-137.119"/>
<polygon fill="red" stroke="red" points="256.468,-140.629 266.716,-137.937 257.027,-133.651 256.468,-140.629"/>
</g>
<!-- taurus -->
<g id="node13" class="node"><title>taurus</title>
<ellipse fill="burlywood" stroke="black" cx="306" cy="-195" rx="35.194" ry="18"/>
<text text-anchor="middle" x="306" y="-191.3" font-family="Times,serif" font-size="14.00">Taurus</text>
</g>
<!-- taurus&#45;&gt;premier -->
<g id="edge1" class="edge"><title>taurus&#45;&gt;premier</title>
<path fill="none" stroke="red" d="M329.976,-208.599C337.066,-212.846 344.88,-217.577 352,-222 366.134,-230.78 381.477,-240.567 395.135,-249.371"/>
<polygon fill="red" stroke="red" points="393.54,-252.507 403.838,-254.995 397.339,-246.628 393.54,-252.507"/>
</g>
<!-- taurus&#45;&gt;avantdernier -->
<g id="edge2" class="edge"><title>taurus&#45;&gt;avantdernier</title>
<path fill="none" stroke="red" d="M332.406,-182.729C339.269,-178.658 346.351,-173.69 352,-168 374.179,-145.659 369.908,-132.762 388,-107 388.272,-106.612 388.547,-106.224 388.823,-105.835"/>
<polygon fill="red" stroke="red" points="391.756,-107.753 394.847,-97.6188 386.111,-103.614 391.756,-107.753"/>
</g>
</g>
</svg>
