<svg version="1.1" xmlns="http://www.w3.org/2000/svg" xmlns:xlink="http://www.w3.org/1999/xlink" display="none">
  <symbol id="rules" viewBox="0 0 19.2 20.7">
    <title>Règle du jeu</title>
    <path fill-rule="evenodd" clip-rule="evenodd" d="M11.8 20.7h-.2l-.3-.1-9.3-3c-.7-.2-1.2-.6-1.5-1.2-.6-1.1-.6-2.3 0-3.4.1-.1 0-.2 0-.3-.1-.3-.3-.6-.4-1-.1-.3-.1-.8-.1-1.2 0-1 .3-1.8 1-2.6l2.7-3c1.4-1.5 2.7-3 4.1-4.6.3-.3.6-.4 1-.3l9.4 2.1c.1 0 .2 0 .3.1.7.2.9.7.4 1.3-2.4 2.8-4.8 5.6-7.2 8.5-.3.3-.6.4-1 .3l-6.5-2c-.4-.1-.9-.3-1.5-.5-.5-.1-.9.1-1.1.5-.1.5-.1 1 .1 1.4.1.3.3.4.5.5l9 2.7c.2.1.3 0 .4-.1l5.8-7.2c.1-.1.1-.3.1-.4-.1-.5 0-1 .2-1.5s1-.6 1.3-.1c.2.3.2.5.1.8l-.1.7c.1.4.1.7 0 1.1-.3 1-.4 2 0 3.1.2.4.1.8-.2 1.1l-6.4 7.8c-.1.2-.3.4-.6.5zm5.4-10.3l-.2.2-4.6 5.7c-.3.4-.6.5-1.1.3l-9.2-2.8c-.2-.1-.3 0-.4.2-.2.4-.2.8-.1 1.3.2.4.4.7.9.9 2.9.9 5.8 1.8 8.7 2.8.2 0 .2 0 .3-.1l2-2.4 3.9-4.7c.1-.1.1-.2.1-.2-.1-.5-.2-.9-.3-1.2zm-4.6-5.1c.4 0 .6-.1.7-.3s.3-.4.5-.6c.1-.2.1-.3-.1-.4h-.2l-2.4-.6c-.9-.2-1.7-.4-2.5-.6-.4-.1-.8 0-1.1.3l-.3.3c-.3.4-.2.6.2.7h.1c1.3.3 2.6.6 4 1 .3.1.8.2 1.1.2z"></path>
  </symbol>

  <symbol id="voice_up" viewBox="0 0 32 32">
    <title>Voix au chapitre positives</title>
    <path d="M.3 16.2s9.4-5.1 11.3-14.6c.5-2.6 5.6-2.1 5.1.9-.3 1.9-1.1 6-1.1 6s-.7 2.2 1.3 2.2l12.9.3s2.2.5 2.2 2.5c0 1.4-.7 1.7-2.8 2.7 0 0 2.7.6 2.7 2.6 0 1.4-.7 1.9-3.4 2.8 0 0 1.9.7 1.9 2.6 0 1.7-1.5 2.3-3.4 2.6 0 0 1.6.8 1.5 2.1-.1 1.3-.7 2.6-4 2.8-16.4 1.3-24.5-3.5-24.5-3.5l.3-12z"></path>
  </symbol>

  <symbol id="VoteOrder" viewBox="0 0 32 32">
    <title>VoteOrder</title>
    <path d="M.3 16.2s9.4-5.1 11.3-14.6c.5-2.6 5.6-2.1 5.1.9-.3 1.9-1.1 6-1.1 6s-.7 2.2 1.3 2.2l12.9.3s2.2.5 2.2 2.5c0 1.4-.7 1.7-2.8 2.7 0 0 2.7.6 2.7 2.6 0 1.4-.7 1.9-3.4 2.8 0 0 1.9.7 1.9 2.6 0 1.7-1.5 2.3-3.4 2.6 0 0 1.6.8 1.5 2.1-.1 1.3-.7 2.6-4 2.8-16.4 1.3-24.5-3.5-24.5-3.5l.3-12z"></path>
  </symbol>

  <symbol id="voice_down" viewBox="0 0 32 32">
    <title>Voix au chapitre négatives</title>
    <path d="M.3 15.8s9.4 5.1 11.3 14.6c.5 2.6 5.6 2.1 5.1-.9-.3-1.9-1.1-6-1.1-6s-.7-2.2 1.3-2.2 12.9-.2 12.9-.2 2.2-.5 2.2-2.5c0-1.4-.7-1.7-2.8-2.7 0 0 2.7-.6 2.7-2.6 0-1.4-.7-1.9-3.4-2.8 0 0 1.9-.7 1.9-2.6 0-1.7-1.5-2.3-3.4-2.6 0 0 1.6-.8 1.5-2.1-.1-1.3-.7-2.6-4-2.8-16.4-1.4-24.5 3.4-24.5 3.4l.3 12z"></path>
  </symbol>

  <symbol id="last_effect" viewBox="0 0 32 32">
    <title>Effet dernier</title>
    <path d="M0 0v32l32-32h-32zm8 23.7l-6.6-6.5 1.2-1.2 5.7 5.6 3-3 .9.9-4.2 4.2zm7.8-7.8c-.1 0-.3-.2-.6-.3 0 .7-.2 1.3-.7 1.8-.5.5-1 .8-1.6.8-.6 0-1.1-.2-1.5-.6-.5-.5-.7-1.1-.6-1.8.1-.7.5-1.4 1.2-2.1l.7-.7-.3-.3c-.3-.3-.5-.4-.8-.4-.3 0-.6.1-.9.4-.2.2-.4.5-.4.8 0 .3 0 .5.2.7l-1.1 1.1c-.3-.3-.4-.6-.5-1-.1-.4 0-.8.2-1.3.2-.4.4-.8.8-1.2.6-.6 1.2-.9 1.8-.9.6-.1 1.2.2 1.7.7l2.2 2.2c.4.4.9.7 1.2.9l.1.1-1.1 1.1zm5-5.7c-.1.6-.4 1.2-1 1.8-.4.4-.8.7-1.3.9s-.9.2-1.3.1-.8-.3-1.1-.6l1.1-1.1c.3.2.6.3.9.3.3 0 .6-.2.9-.5.3-.3.5-.6.5-.8 0-.3 0-.5-.2-.7-.2-.2-.4-.3-.7-.2-.3.1-.6.2-1.1.5-.4.3-.9.5-1.2.6-.8.3-1.5.2-2-.3-.4-.4-.6-.9-.5-1.6s.4-1.2.9-1.8c.6-.6 1.2-.9 1.8-1 .6-.1 1.2.1 1.7.6l-1.1 1.1c-.2-.2-.5-.3-.8-.3-.3 0-.6.2-.8.4-.2.2-.4.5-.4.8 0 .3 0 .5.2.7.2.2.4.2.6.2.2 0 .6-.2 1.1-.6s1-.6 1.3-.7c.4-.1.7-.1 1-.1s.6.2.8.5c.6.6.8 1.2.7 1.8zm.8-2.8l-2.8-2.8-.8.9-.8-.8.8-.8-1.2-1.2 1.1-1.1 1.2 1.2.9-.9.8.8-.9.9 2.7 2.7c.2.2.4.3.5.3.2 0 .3-.1.5-.3l.3-.4.8.8c-.2.3-.4.6-.6.8-.7.9-1.6.9-2.5-.1zM13.3 13.8l-.6.6c-.4.4-.6.8-.7 1.1-.1.3 0 .6.3.9.2.2.4.3.7.3.3 0 .5-.1.7-.4.2-.2.4-.5.5-.8s.1-.6 0-.9l-.9-.8z"></path>
  </symbol>
  <symbol id="first_effect" viewBox="0 0 32 32">
    <title>first_effect</title>
    <path d="M0 0v32l32-32h-32zm8.3 21.5h-2.4v-16.6h-.1l-3.3 1.8-.5-2 4.1-2.2h2.2v19zm4.8-12.3c-.7 0-1.3-.2-1.7-.4l.3-.9c.3.2.9.4 1.5.4.8 0 1.2-.4 1.2-.9s-.3-.8-1.2-1.1c-1.1-.4-1.6-1-1.6-1.8 0-1 .8-1.8 2.1-1.8.6 0 1.2.2 1.5.4l-.3.8c-.2-.2-.7-.4-1.3-.4-.7 0-1 .4-1 .8 0 .5.4.7 1.2 1.1 1.1.4 1.6 1 1.6 1.9 0 1.2-.9 1.9-2.3 1.9zm6-.9c.3 0 .5 0 .7-.1l.1.8c-.2.1-.6.2-1 .2-.5 0-1-.2-1.2-.5-.3-.3-.4-.9-.4-1.6v-3.4h-1v-.8h1v-1.5l1.1-.3v1.8h1.6v.9h-1.6v3.4c-.2.7 0 1.1.7 1.1z"></path>
  </symbol>

  <symbol id="crash_effect" viewBox="0 0 32 32">
    <title>crash_effect</title>
    <path fill-rule="evenodd" clip-rule="evenodd" d="M23 19.3l8.8 11.5-.1.1-10.9-7.5-.2 4.1-2.4-2.9-4.6 6.2-.2-6.8-12 2.7-.1-.1 10-7.7-4.5.3-.1-.1 3.9-2.3-10.4-5.6.1-.1 13 2.9-3.3-3.5 3.5.6-3.3-10 .1-.1 8.3 8.7 1.8-2.6.4 3.7 6-7.1v.3l-4.2 10.7 7.5-.8.1.1-6.2 2.7 5.3 3.6-.1.1-6.2-1.1z"></path>
  </symbol>

  <symbol id="SabotageOrder" viewBox="0 0 32 32">
    <title>SabotageOrder</title>
    <path d="M29.5 12.3l-1.6-1.5c-.2-.2-.3-.6 0-.8l1.7-1.7c.2-.2.3-.6.1-.9l-1.1-1.6c-.2-.3-.6-.5-.9-.5h-1.5c-.3 0-.6-.3-.6-.6v-2.6c0-.3-.2-.7-.5-.8l-1.4-.6c-.3-.1-.8-.1-1 .1l-1.8 1.4c-.3.2-.7.2-.9 0l-2.6-2c-.3-.2-.7-.2-1-.1l-1.3.7c-.3.2-.5.6-.5.9v1.3c0 .3-.2.7-.5.8l-2.3 1c-.3.1-.5.5-.5.8v.8c0 .3.2.8.4 1l1 .9c.2.2.6.2.9 0v-.3c.2-.2.3-.6.1-.9l-.5-.7c-.2-.3-.1-.6.2-.6l2.3-.7c.3-.1.6-.4.6-.8l.1-1.8c0-.3.2-.4.5-.2l3 2.9c.2.2.6.2.9 0l2.4-2.4c.2-.2.4-.1.4.2l.1 3.8c0 .3.3.6.6.6h2.6c.3 0 .4.2.2.4l-2.5 2.6c-.2.2-.2.6.1.8l2.4 1.8c.3.2.2.4-.1.5l-4.5 1.5c-.3.1-.5.4-.4.7l.4 1.1c.1.3.5.5.8.4l6-1.9c.3-.1.6-.5.6-.8v-1.2c0-.4-.2-.8-.4-1zM19.2 16.5c.9-.9 1.5-2.2 1.5-3.6v-.5c0-1.9-1-3.5-2.5-4.4-.8 0-1.3.7-1.4 1.4 1.1.6 1.8 1.8 1.8 3.2 0 .9-.3 1.7-.8 2.3l-1.5-1.5c-.7-.7-1.8-.7-2.5-.1-.2.2-.3.4-.4.6-.7-.2-1.4-.3-2.2-.3-5 0-9.1 4.1-9.1 9.1s4.1 9.1 9.1 9.1 9.1-4.1 9.1-9.1c0-.8-.1-1.5-.3-2.3.2-.1.4-.2.5-.4.7-.7.6-1.8-.1-2.5l-1.2-1zm-7.7 13.3c-.4 0-.7.1-1-.1-.3-.2-.4-.6-.4-.9 0-.3 0-.6.2-.7.3-.3.9-.2.9-.2 2.9-.2 4.9-2.3 5.1-5v-.8c.2-.2.5-.3.9-.3s.7.2 1 .4c.1.3.1.7.1 1.1 0 3.5-3.1 6.5-6.8 6.5z"></path>
  </symbol>

  <symbol id="ope_sabotage" viewBox="0 0 32 32">
    <title>ope_sabotage</title>
    <path fill="red" d="M29.5 12.3l-1.6-1.5c-.2-.2-.3-.6 0-.8l1.7-1.7c.2-.2.3-.6.1-.9l-1.1-1.6c-.2-.3-.6-.5-.9-.5h-1.5c-.3 0-.6-.3-.6-.6v-2.6c0-.3-.2-.7-.5-.8l-1.4-.6c-.3-.1-.8-.1-1 .1l-1.8 1.4c-.3.2-.7.2-.9 0l-2.6-2c-.3-.2-.7-.2-1-.1l-1.3.7c-.3.2-.5.6-.5.9v1.3c0 .3-.2.7-.5.8l-2.3 1c-.3.1-.5.5-.5.8v.8c0 .3.2.8.4 1l1 .9c.2.2.6.2.9 0v-.3c.2-.2.3-.6.1-.9l-.5-.7c-.2-.3-.1-.6.2-.6l2.3-.7c.3-.1.6-.4.6-.8l.1-1.8c0-.3.2-.4.5-.2l3 2.9c.2.2.6.2.9 0l2.4-2.4c.2-.2.4-.1.4.2l.1 3.8c0 .3.3.6.6.6h2.6c.3 0 .4.2.2.4l-2.5 2.6c-.2.2-.2.6.1.8l2.4 1.8c.3.2.2.4-.1.5l-4.5 1.5c-.3.1-.5.4-.4.7l.4 1.1c.1.3.5.5.8.4l6-1.9c.3-.1.6-.5.6-.8v-1.2c0-.4-.2-.8-.4-1zM19.2 16.5c.9-.9 1.5-2.2 1.5-3.6v-.5c0-1.9-1-3.5-2.5-4.4-.8 0-1.3.7-1.4 1.4 1.1.6 1.8 1.8 1.8 3.2 0 .9-.3 1.7-.8 2.3l-1.5-1.5c-.7-.7-1.8-.7-2.5-.1-.2.2-.3.4-.4.6-.7-.2-1.4-.3-2.2-.3-5 0-9.1 4.1-9.1 9.1s4.1 9.1 9.1 9.1 9.1-4.1 9.1-9.1c0-.8-.1-1.5-.3-2.3.2-.1.4-.2.5-.4.7-.7.6-1.8-.1-2.5l-1.2-1zm-7.7 13.3c-.4 0-.7.1-1-.1-.3-.2-.4-.6-.4-.9 0-.3 0-.6.2-.7.3-.3.9-.2.9-.2 2.9-.2 4.9-2.3 5.1-5v-.8c.2-.2.5-.3.9-.3s.7.2 1 .4c.1.3.1.7.1 1.1 0 3.5-3.1 6.5-6.8 6.5z"></path>
  </symbol>

  <symbol id="ope_sabotage_fail" viewBox="0 0 32 32">
    <title>ope_sabotage_fail</title>
    <path d="M29.5 12.3l-1.6-1.5c-.2-.2-.3-.6 0-.8l1.7-1.7c.2-.2.3-.6.1-.9l-1.1-1.6c-.2-.3-.6-.5-.9-.5h-1.5c-.3 0-.6-.3-.6-.6v-2.6c0-.3-.2-.7-.5-.8l-1.4-.6c-.3-.1-.8-.1-1 .1l-1.8 1.4c-.3.2-.7.2-.9 0l-2.6-2c-.3-.2-.7-.2-1-.1l-1.3.7c-.3.2-.5.6-.5.9v1.3c0 .3-.2.7-.5.8l-2.3 1c-.3.1-.5.5-.5.8v.8c0 .3.2.8.4 1l1 .9c.2.2.6.2.9 0v-.3c.2-.2.3-.6.1-.9l-.5-.7c-.2-.3-.1-.6.2-.6l2.3-.7c.3-.1.6-.4.6-.8l.1-1.8c0-.3.2-.4.5-.2l3 2.9c.2.2.6.2.9 0l2.4-2.4c.2-.2.4-.1.4.2l.1 3.8c0 .3.3.6.6.6h2.6c.3 0 .4.2.2.4l-2.5 2.6c-.2.2-.2.6.1.8l2.4 1.8c.3.2.2.4-.1.5l-4.5 1.5c-.3.1-.5.4-.4.7l.4 1.1c.1.3.5.5.8.4l6-1.9c.3-.1.6-.5.6-.8v-1.2c0-.4-.2-.8-.4-1zM19.2 16.5c.9-.9 1.5-2.2 1.5-3.6v-.5c0-1.9-1-3.5-2.5-4.4-.8 0-1.3.7-1.4 1.4 1.1.6 1.8 1.8 1.8 3.2 0 .9-.3 1.7-.8 2.3l-1.5-1.5c-.7-.7-1.8-.7-2.5-.1-.2.2-.3.4-.4.6-.7-.2-1.4-.3-2.2-.3-5 0-9.1 4.1-9.1 9.1s4.1 9.1 9.1 9.1 9.1-4.1 9.1-9.1c0-.8-.1-1.5-.3-2.3.2-.1.4-.2.5-.4.7-.7.6-1.8-.1-2.5l-1.2-1zm-7.7 13.3c-.4 0-.7.1-1-.1-.3-.2-.4-.6-.4-.9 0-.3 0-.6.2-.7.3-.3.9-.2.9-.2 2.9-.2 4.9-2.3 5.1-5v-.8c.2-.2.5-.3.9-.3s.7.2 1 .4c.1.3.1.7.1 1.1 0 3.5-3.1 6.5-6.8 6.5z"></path>
    <polygon fill="red" points="31.9,29.5 18,15.7 31.9,2 29.8,0 16,13.7 2.1,0 0.1,2 13.9,15.7 0,29.5 2,31.5 16,17.7 29.9,31.5 "/>
  </symbol>

  <symbol id="ope_datasteal_down" viewBox="0 0 32 32">
    <title>ope_datasteal_down</title>
    <path fill="red" d="M15.2 2.7h3v7h-3zM30.8 24.8l-3.3-2.8 4.6-2.3-5.2-.7 4.6-3.4-5.2 1.1v-.1l1-5.6-1 1.1v-5.9c0-3.6-3.8-5.7-5.8-5.7h-17c-1.9.1-3.5 1.6-3.5 3.5v19.3c0 1.9 1.6 3.5 3.5 3.5h11l-1.3 1.3 2.6-1.3h3.8l-1.5 4.6 4.1-4.6h.6c.4 0 .9-.1 1.3-.2l4.9 3.5-3-5.7v-.1l4.8.5zm-25.6-21.9c0-.6.5-1.2 1.2-1.2h12.6c.6 0 1.2.5 1.2 1.2v6.7c0 .6-.5 1.2-1.2 1.2h-12.7c-.6 0-1.2-.5-1.2-1.2v-6.7zm10.4 22.7h-11.3c-.6 0-1.2-.5-1.2-1.2v-9.6c0-.6.5-1.2 1.2-1.2h11.3l2.9 4.2-4.9-.3 4 3-6.9 1.4 7.5 1.1-2.6 2.6zm4.4 0h-1.9l2.3-1.2-.4 1.2zm.8-9.1l-4.2-2.8h4.7l-.5 2.8zm2.4-1l-.6.6-.8-2.5h.2c.6 0 1.2.5 1.2 1.2v.7z"></path>
  </symbol>

  <symbol id="ope_datasteal_up" viewBox="0 0 32 32">
    <title>ope_datasteal_up</title>
    <path fill="green" d="M15.2 2.7h3v7h-3zM30.8 24.8l-3.3-2.8 4.6-2.3-5.2-.7 4.6-3.4-5.2 1.1v-.1l1-5.6-1 1.1v-5.9c0-3.6-3.8-5.7-5.8-5.7h-17c-1.9.1-3.5 1.6-3.5 3.5v19.3c0 1.9 1.6 3.5 3.5 3.5h11l-1.3 1.3 2.6-1.3h3.8l-1.5 4.6 4.1-4.6h.6c.4 0 .9-.1 1.3-.2l4.9 3.5-3-5.7v-.1l4.8.5zm-25.6-21.9c0-.6.5-1.2 1.2-1.2h12.6c.6 0 1.2.5 1.2 1.2v6.7c0 .6-.5 1.2-1.2 1.2h-12.7c-.6 0-1.2-.5-1.2-1.2v-6.7zm10.4 22.7h-11.3c-.6 0-1.2-.5-1.2-1.2v-9.6c0-.6.5-1.2 1.2-1.2h11.3l2.9 4.2-4.9-.3 4 3-6.9 1.4 7.5 1.1-2.6 2.6zm4.4 0h-1.9l2.3-1.2-.4 1.2zm.8-9.1l-4.2-2.8h4.7l-.5 2.8zm2.4-1l-.6.6-.8-2.5h.2c.6 0 1.2.5 1.2 1.2v.7z"></path>
  </symbol>

  <symbol id="DataStealOrder" viewBox="0 0 32 32">
    <title>DataStealOrder</title>
    <path d="M15.2 2.7h3v7h-3zM30.8 24.8l-3.3-2.8 4.6-2.3-5.2-.7 4.6-3.4-5.2 1.1v-.1l1-5.6-1 1.1v-5.9c0-3.6-3.8-5.7-5.8-5.7h-17c-1.9.1-3.5 1.6-3.5 3.5v19.3c0 1.9 1.6 3.5 3.5 3.5h11l-1.3 1.3 2.6-1.3h3.8l-1.5 4.6 4.1-4.6h.6c.4 0 .9-.1 1.3-.2l4.9 3.5-3-5.7v-.1l4.8.5zm-25.6-21.9c0-.6.5-1.2 1.2-1.2h12.6c.6 0 1.2.5 1.2 1.2v6.7c0 .6-.5 1.2-1.2 1.2h-12.7c-.6 0-1.2-.5-1.2-1.2v-6.7zm10.4 22.7h-11.3c-.6 0-1.2-.5-1.2-1.2v-9.6c0-.6.5-1.2 1.2-1.2h11.3l2.9 4.2-4.9-.3 4 3-6.9 1.4 7.5 1.1-2.6 2.6zm4.4 0h-1.9l2.3-1.2-.4 1.2zm.8-9.1l-4.2-2.8h4.7l-.5 2.8zm2.4-1l-.6.6-.8-2.5h.2c.6 0 1.2.5 1.2 1.2v.7z"></path>
  </symbol>


  <symbol id="ope_datasteal_fail_up" viewBox="0 0 32 32">
    <title>ope_datasteal_fail_up</title>
    <path fill="green" d="M15.2 2.7h3v7h-3zM30.8 24.8l-3.3-2.8 4.6-2.3-5.2-.7 4.6-3.4-5.2 1.1v-.1l1-5.6-1 1.1v-5.9c0-3.6-3.8-5.7-5.8-5.7h-17c-1.9.1-3.5 1.6-3.5 3.5v19.3c0 1.9 1.6 3.5 3.5 3.5h11l-1.3 1.3 2.6-1.3h3.8l-1.5 4.6 4.1-4.6h.6c.4 0 .9-.1 1.3-.2l4.9 3.5-3-5.7v-.1l4.8.5zm-25.6-21.9c0-.6.5-1.2 1.2-1.2h12.6c.6 0 1.2.5 1.2 1.2v6.7c0 .6-.5 1.2-1.2 1.2h-12.7c-.6 0-1.2-.5-1.2-1.2v-6.7zm10.4 22.7h-11.3c-.6 0-1.2-.5-1.2-1.2v-9.6c0-.6.5-1.2 1.2-1.2h11.3l2.9 4.2-4.9-.3 4 3-6.9 1.4 7.5 1.1-2.6 2.6zm4.4 0h-1.9l2.3-1.2-.4 1.2zm.8-9.1l-4.2-2.8h4.7l-.5 2.8zm2.4-1l-.6.6-.8-2.5h.2c.6 0 1.2.5 1.2 1.2v.7z"></path>
    <polygon fill="red" points="31.9,29.5 18,15.7 31.9,2 29.8,0 16,13.7 2.1,0 0.1,2 13.9,15.7 0,29.5 2,31.5 16,17.7 29.9,31.5 "/>
  </symbol>

  <symbol id="ope_datasteal_fail_down" viewBox="0 0 32 32">
    <title>ope_datasteal_fail_down</title>
    <path fill="red" d="M31.8 29.6l-4.1-4.1 2.9.3-3.1-2.7 4.3-2.1-4.8-.7 4.3-3.2-4.9 1.1v-.1l.9-5.2-.9 1.1v-5.6c0-.3 0-.5-.1-.8l5.5-5.6-2-2-4.9 4.9c-1.2-1.3-2.9-1.9-4-1.9h-15.8l-2.9-3-2 2 2.2 2.2c-.4.5-.7 1.2-.7 2v18.1c0 1 .5 1.9 1.2 2.5l-2.8 2.8 2 2 4-4h9.2l-1.3 1.4 2.7-1.4h3.4l-1.4 4.4 3.9-4.5h.5c.4 0 .7-.1 1.1-.2l4.7 3.4-.1-.1 1 1 2-2zm-15.8-11.8l1.4 1.4-2.6-.2 1.2-1.2zm7-.1l-.8-2.4h.2c.6 0 1.1.5 1.1 1.1v.7l-.5.6zm-1.2-2.5l-.5 2.8-3.2-2.1-.1-.1.5-.5h3.3zm-14.1-11.2h11.9c.6 0 1.1.5 1.1 1.1v4l-1.9 1.9v-6.1h-2.8v6.5h2.4l-1 1h-2.7l-8-7.9c.2-.3.6-.5 1-.5zm3 8.4h-3c-.6 0-1.1-.5-1.1-1.1v-3l4.1 4.1zm-6.1 3.9c0-.6.5-1.1 1.1-1.1h7.7l.5.5-9.4 9.4v-8.8zm2.7 10.1l7.3-7.3 3.5 2.6-6.4 1.3 7.1 1.1-2.3 2.4h-9.2zm11.6 0l1.9-1-.3 1h-1.6z"></path>
  </symbol>

  <symbol id="ProtectionOrder" viewBox="0 0 32 32">
    <title>ProtectionOrder</title>
    <path d="M.3 6.4c-.1-.9-.4-2 0-2.8.4-.7 1.3-1.1 2.1-1.4 1-.4 2.1-.7 3.2-.8 2.5-.4 5-.8 7.6-1.1 2.8-.4 2.8-.4 5.6 0l1.5.3c3 .5 6 1 9 1.6.9.2 1.9.6 2.4 1.5.4.7.1 1.7 0 2.5l-.3 1.5c-.5 3.9-1 7.8-1.4 11.7-.3 2.1-1.2 3.8-2.9 5l-10.5 7.2-.6.4-.6-.4c-3.7-2.5-7.4-5-10.9-7.7-1-.7-1.8-2-2.1-3.1-.6-2.2-.9-4.5-1.2-6.8-.4-2.5-.6-5-.9-7.6zm15.7-3.2l-10.8 1.5c-1.2.2-1.8 1-1.6 2.2.4 3.8.8 7.6 1.3 11.4.2 1.5.6 2.9 1.9 3.9 2.6 1.9 5.2 3.8 7.8 5.6.9.7 1.9.7 2.9 0 2.6-1.9 5.3-3.7 7.8-5.7.8-.7 1.5-1.9 1.7-2.9.6-4 1-8 1.5-12 .2-1.4-.4-2.3-1.8-2.5l-10.7-1.5zM16 5.6c2.8.4 5.5.7 8.2 1.1 1.2.2 1.8.9 1.6 2.1-.4 3-.7 6-1.2 9-.2.9-.7 2-1.4 2.6-1.8 1.5-3.8 2.9-5.7 4.3-1 .7-2.1.6-3.1-.1l-3-2.1c-2.7-1.7-4.2-3.9-4.4-7.1-.1-2.2-.5-4.4-.7-6.7-.1-1.1.3-1.8 1.5-2 2.6-.4 5.4-.8 8.2-1.1z"></path>
  </symbol>

  <symbol id="ope_protection" viewBox="0 0 32 32">
    <title>ope_protection</title>
    <path d="M.3 6.4c-.1-.9-.4-2 0-2.8.4-.7 1.3-1.1 2.1-1.4 1-.4 2.1-.7 3.2-.8 2.5-.4 5-.8 7.6-1.1 2.8-.4 2.8-.4 5.6 0l1.5.3c3 .5 6 1 9 1.6.9.2 1.9.6 2.4 1.5.4.7.1 1.7 0 2.5l-.3 1.5c-.5 3.9-1 7.8-1.4 11.7-.3 2.1-1.2 3.8-2.9 5l-10.5 7.2-.6.4-.6-.4c-3.7-2.5-7.4-5-10.9-7.7-1-.7-1.8-2-2.1-3.1-.6-2.2-.9-4.5-1.2-6.8-.4-2.5-.6-5-.9-7.6zm15.7-3.2l-10.8 1.5c-1.2.2-1.8 1-1.6 2.2.4 3.8.8 7.6 1.3 11.4.2 1.5.6 2.9 1.9 3.9 2.6 1.9 5.2 3.8 7.8 5.6.9.7 1.9.7 2.9 0 2.6-1.9 5.3-3.7 7.8-5.7.8-.7 1.5-1.9 1.7-2.9.6-4 1-8 1.5-12 .2-1.4-.4-2.3-1.8-2.5l-10.7-1.5zM16 5.6c2.8.4 5.5.7 8.2 1.1 1.2.2 1.8.9 1.6 2.1-.4 3-.7 6-1.2 9-.2.9-.7 2-1.4 2.6-1.8 1.5-3.8 2.9-5.7 4.3-1 .7-2.1.6-3.1-.1l-3-2.1c-2.7-1.7-4.2-3.9-4.4-7.1-.1-2.2-.5-4.4-.7-6.7-.1-1.1.3-1.8 1.5-2 2.6-.4 5.4-.8 8.2-1.1z"></path>
  </symbol>

  <symbol id="ope_extraction_up" viewBox="0 0 32 32">
    <title>ope_extraction_up</title>
    <path fill="green" d="M28.2 25.1v1.3c0 1.4-.3 1.7-1.8 1.7h-14c-1.1 0-1.6-.1-1.7-.8 1.8-.1 3.6-.3 5.3-.6 1.3-.3 2.9-.7 3.2-2.1.1-.5.1-1 0-1.4-.4-2.1-2.6-2.9-4.4-3.7l-1.4-.6c-1.5-.6-1.8-1.7-.8-2.9 1.1-1.4 1.8-3 2.1-4.7.4-2.3-.6-4.7-2.4-5.7-.5-.3-1.1-.5-1.6-.6.1-.8.5-.9 1.7-.9h12.8c2.9 0 3-.3 3 3.1 0 1.8.2 3.5 2.1 3.5v-4.3c0-2.1.1-4.4-2.5-4.4h-16.9c-2.2 0-2.4 0-2.5 3.1-.6.1-1.4.4-2 1-1.9 1.6-2.2 3.9-1.5 6.2.4 1.3 1.2 2.6 1.9 3.8.7 1.2.6 2.1-.7 2.7-1.4.7-2.8 1.3-4.1 2.2-.8.5-1.5 1.3-1.8 2.2-.2.5-.1.9 0 1.4.3 1.5 1.9 1.8 3.2 2.1 1.8.3 3.5.5 5.3.6 0 3 .3 3 2.5 3h16.9c1.3 0 2.3-1.3 2.4-2.7v-6c-2.1 0-2.3 1.7-2.3 3.5zM22.8 10v2.9h-6.1000000000000005c-1.2 0-1.6.4-1.6 1.6v3.3c0 1.2.4 1.6 1.6 1.6h6.1v2.9c0 .3.3.7.5.9.2.1.6-.1.8-.3 2.6-2.2 5.1-4.4 7.8-6.7l-8-6.9c-.5-.6-1-.2-1.1.7z"></path>
  </symbol>

  <symbol id="ExtractionOrder" viewBox="0 0 32 32">
    <title>extractionorder</title>
    <path d="M28.2 25.1v1.3c0 1.4-.3 1.7-1.8 1.7h-14c-1.1 0-1.6-.1-1.7-.8 1.8-.1 3.6-.3 5.3-.6 1.3-.3 2.9-.7 3.2-2.1.1-.5.1-1 0-1.4-.4-2.1-2.6-2.9-4.4-3.7l-1.4-.6c-1.5-.6-1.8-1.7-.8-2.9 1.1-1.4 1.8-3 2.1-4.7.4-2.3-.6-4.7-2.4-5.7-.5-.3-1.1-.5-1.6-.6.1-.8.5-.9 1.7-.9h12.8c2.9 0 3-.3 3 3.1 0 1.8.2 3.5 2.1 3.5v-4.3c0-2.1.1-4.4-2.5-4.4h-16.9c-2.2 0-2.4 0-2.5 3.1-.6.1-1.4.4-2 1-1.9 1.6-2.2 3.9-1.5 6.2.4 1.3 1.2 2.6 1.9 3.8.7 1.2.6 2.1-.7 2.7-1.4.7-2.8 1.3-4.1 2.2-.8.5-1.5 1.3-1.8 2.2-.2.5-.1.9 0 1.4.3 1.5 1.9 1.8 3.2 2.1 1.8.3 3.5.5 5.3.6 0 3 .3 3 2.5 3h16.9c1.3 0 2.3-1.3 2.4-2.7v-6c-2.1 0-2.3 1.7-2.3 3.5zM22.8 10v2.9h-6.1000000000000005c-1.2 0-1.6.4-1.6 1.6v3.3c0 1.2.4 1.6 1.6 1.6h6.1v2.9c0 .3.3.7.5.9.2.1.6-.1.8-.3 2.6-2.2 5.1-4.4 7.8-6.7l-8-6.9c-.5-.6-1-.2-1.1.7z"></path>
  </symbol>

  <symbol id="ope_extraction_down" viewBox="0 0 32 32">
    <title>ope_extraction_down</title>
    <path fill="red" d="M28.2 25.1v1.3c0 1.4-.3 1.7-1.8 1.7h-14c-1.1 0-1.6-.1-1.7-.8 1.8-.1 3.6-.3 5.3-.6 1.3-.3 2.9-.7 3.2-2.1.1-.5.1-1 0-1.4-.4-2.1-2.6-2.9-4.4-3.7l-1.4-.6c-1.5-.6-1.8-1.7-.8-2.9 1.1-1.4 1.8-3 2.1-4.7.4-2.3-.6-4.7-2.4-5.7-.5-.3-1.1-.5-1.6-.6.1-.8.5-.9 1.7-.9h12.8c2.9 0 3-.3 3 3.1 0 1.8.2 3.5 2.1 3.5v-4.3c0-2.1.1-4.4-2.5-4.4h-16.9c-2.2 0-2.4 0-2.5 3.1-.6.1-1.4.4-2 1-1.9 1.6-2.2 3.9-1.5 6.2.4 1.3 1.2 2.6 1.9 3.8.7 1.2.6 2.1-.7 2.7-1.4.7-2.8 1.3-4.1 2.2-.8.5-1.5 1.3-1.8 2.2-.2.5-.1.9 0 1.4.3 1.5 1.9 1.8 3.2 2.1 1.8.3 3.5.5 5.3.6 0 3 .3 3 2.5 3h16.9c1.3 0 2.3-1.3 2.4-2.7v-6c-2.1 0-2.3 1.7-2.3 3.5zM22.8 10v2.9h-6.1000000000000005c-1.2 0-1.6.4-1.6 1.6v3.3c0 1.2.4 1.6 1.6 1.6h6.1v2.9c0 .3.3.7.5.9.2.1.6-.1.8-.3 2.6-2.2 5.1-4.4 7.8-6.7l-8-6.9c-.5-.6-1-.2-1.1.7z"></path>
  </symbol>

  <symbol id="ope_extraction_fail_up" viewBox="0 0 32 32">
    <title>ope_extraction_fail_up</title>
    <path fill="green" d="M28.2 25.1v1.3c0 1.4-.3 1.7-1.8 1.7h-14c-1.1 0-1.6-.1-1.7-.8 1.8-.1 3.6-.3 5.3-.6 1.3-.3 2.9-.7 3.2-2.1.1-.5.1-1 0-1.4-.4-2.1-2.6-2.9-4.4-3.7l-1.4-.6c-1.5-.6-1.8-1.7-.8-2.9 1.1-1.4 1.8-3 2.1-4.7.4-2.3-.6-4.7-2.4-5.7-.5-.3-1.1-.5-1.6-.6.1-.8.5-.9 1.7-.9h12.8c2.9 0 3-.3 3 3.1 0 1.8.2 3.5 2.1 3.5v-4.3c0-2.1.1-4.4-2.5-4.4h-16.9c-2.2 0-2.4 0-2.5 3.1-.6.1-1.4.4-2 1-1.9 1.6-2.2 3.9-1.5 6.2.4 1.3 1.2 2.6 1.9 3.8.7 1.2.6 2.1-.7 2.7-1.4.7-2.8 1.3-4.1 2.2-.8.5-1.5 1.3-1.8 2.2-.2.5-.1.9 0 1.4.3 1.5 1.9 1.8 3.2 2.1 1.8.3 3.5.5 5.3.6 0 3 .3 3 2.5 3h16.9c1.3 0 2.3-1.3 2.4-2.7v-6c-2.1 0-2.3 1.7-2.3 3.5zM22.8 10v2.9h-6.1000000000000005c-1.2 0-1.6.4-1.6 1.6v3.3c0 1.2.4 1.6 1.6 1.6h6.1v2.9c0 .3.3.7.5.9.2.1.6-.1.8-.3 2.6-2.2 5.1-4.4 7.8-6.7l-8-6.9c-.5-.6-1-.2-1.1.7z"></path>
    <polygon fill="red" points="31.9,29.5 18,15.7 31.9,2 29.8,0 16,13.7 2.1,0 0.1,2 13.9,15.7 0,29.5 2,31.5 16,17.7 29.9,31.5 "/>
  </symbol>

  <symbol id="ope_extraction_fail_down" viewBox="0 0 32 32">
    <title>ope_extraction_fail_down</title>
    <path fill="red" d="M32 29.9l-1.8-1.8.1-.6v-6c-1.9 0-2.1 1.7-2.1 3.5v1.2l-3.7-3.7c2.5-2.1 4.9-4.2 7.5-6.4-2.5-2.2-5-4.3-7.5-6.4l3.7-3.7v1.1c0 1.8.2 3.5 2.1 3.5v-4.3c0-.8 0-1.7-.1-2.4l1.8-1.8-2.1-2.1-1.8 1.8h-17.099999999999998c-2.2 0-2.4 0-2.5 3.1-.4.1-.7.2-1.1.4l-5.3-5.3-2.1 2.1 5.2 5.2c-.9 1.4-.9 3.1-.4 4.8.5 1.4 1.2 2.7 2 3.9.7 1.2.6 2.1-.7 2.7-1.4.7-2.8 1.3-4.1 2.2-.8.5-1.5 1.3-1.8 2.2-.2.5-.1.9 0 1.4.2 1.5 1.8 1.8 3.1 2.1l-3.3 3.3 2.1 2.1 4.9-4.9 1.6.1c0 3 .3 3 2.5 3h17.099999999999998l1.8 1.8 2-2.1zm-10.7-10.6h1.5v1.5l-1.5-1.5zm-9.1-1.6c-.2-.5-.1-1.1.5-1.8l.5-.7.8.8-1.8 1.7zm10.6-5h-1.5l1.5-1.5v1.5zm-10.3-8.7h13.5l-8.8 8.8h-.5c-.8 0-1.2.1-1.4.5l-.8-.8.3-1.2c.4-2.3-.6-4.7-2.4-5.7-.5-.3-1.1-.5-1.6-.6.1-.9.5-1 1.7-1zm0 24c-1.1 0-1.6-.1-1.7-.8 1.8-.1 3.6-.3 5.3-.6 1.3-.3 2.9-.7 3.2-2.1.1-.5.1-1 0-1.4-.4-2.1-2.6-2.9-4.4-3.7h-.1l.6-.6c.2.4.6.5 1.4.5h.5l8.7 8.7h-13.5z"></path>
  </symbol>

  <symbol id="market_hand_up" viewBox="0 0 32 32">
    <title>market_hand_up</title>
    <path fill="green" d="M19 29.9c.2-1 .4-2 .7-3 .7-3 1.3-5.9 1.9-8.9.1-.2.1-.3.4-.4l9.8-.4h.2l-.5 2.3c-.7 3.1-1.4 6.2-2.1 9.2-.1.3-.1.4-.4.4l-9.6.7c-.1.1-.2.1-.4.1zm2.5-3c0 .9.5 1.3 1.1 1 .7-.3 1.2-1.2 1-1.9-.1-.6-.6-.9-1.2-.6-.6.3-.9.9-.9 1.5zm3.4-6.4c0-.5-.2-.9-.4-1-.4-.2-.7-.1-1 .2-.5.4-.8 1-.7 1.6 0 .7.7 1.1 1.3.7.5-.4.8-.9.8-1.5zm-.4 3.3c0 .4.1.8.4 1 .4.2.7.1 1-.2.5-.4.8-1 .7-1.6-.1-.7-.6-1-1.2-.6-.5.3-.8.8-.9 1.4zm4.1 2.1c0-.3-.1-.7-.4-.8-.3-.2-.6-.1-.9.1-.5.4-.8 1-.8 1.6 0 .7.6 1 1.2.6.6-.3.9-.9.9-1.5zm1.2-5.6c0-.4-.1-.8-.5-.9-.4-.2-.7 0-1 .2-.5.4-.7.9-.6 1.6.1.7.6 1 1.2.6.6-.3.9-.9.9-1.5zM9.4 14.2c-3.1-.7-6.2-1.4-9.4-2 .2-.4.4-.8.6-1.1 1.5-2.9 3-5.7 4.4-8.6.1-.3.3-.3.6-.3 2.9.5 5.8 1 8.7 1.6.1 0 .2.1.4.1-1.8 3.4-3.5 6.8-5.3 10.3zm-2-2.8c0 .5.3.8.8.6.6-.2 1.1-1 1.1-1.6 0-.5-.3-.8-.8-.6-.6.2-1.1.9-1.1 1.6zm-2.4-.5c0 .5.3.7.8.6.6-.1 1.2-1 1.2-1.6 0-.5-.3-.7-.8-.5-.6.1-1.2.9-1.2 1.5zm-.3-1.4c0-.5-.3-.7-.8-.6-.6.2-1.1 1-1.1 1.6 0 .5.3.7.8.6.6-.2 1.2-1 1.1-1.6zm2.7-3.3c0 .5.3.7.8.6.6-.2 1.1-.9 1.1-1.5 0-.5-.3-.8-.8-.6-.6.1-1.1.9-1.1 1.5zm4.3-.6c0-.5-.3-.7-.8-.6-.6.2-1.2 1-1.2 1.6 0 .5.3.8.8.6.6-.2 1.2-1 1.2-1.6zm-4.6-.8c0-.5-.3-.7-.7-.6-.6.2-1.2 1-1.2 1.6 0 .5.3.7.8.6.5-.2 1.1-1 1.1-1.6zM14.3 13c.7.5 1.3.9 1.9 1.4 1.4 1 2.9 2 4.3 3.1.2.1.2.2.2.4l-2.5 11.5s0 .1-.1.2l-.3-.3c-1.8-1.5-3.6-3-5.5-4.5-.2-.2-.3-.3-.2-.6.6-3.2 1.2-6.4 1.8-9.7.2-.5.3-.9.4-1.5zm3.2 12.2l-.1-.7c-.1-.4-.3-.8-.8-.9-.4-.1-.6 0-.7.4-.1.6 0 1.2.5 1.6.2.2.5.3.8.3.1 0 .3-.5.3-.7zm-2.2-4.6c0 .4.1.9.5 1.3s.9.3 1-.2c.1-.5 0-1.1-.3-1.5-.2-.3-.5-.5-.8-.4-.4.1-.4.4-.4.8zm1.1-2.9c0-.6-.1-1.1-.6-1.4-.3-.2-.8-.1-.9.3-.1.5-.1 1.1.3 1.5.2.3.5.5.8.4.4-.2.4-.5.4-.8zM31.7 16.6c-1.9.1-3.8.2-5.6.2l-4.4.2c-.2 0-.4-.1-.5-.2-2.2-1.5-4.3-3-6.4-4.5-.1 0-.1-.1-.2-.2h.3l8.2-.1c.1 0 .3 0 .4.1 2.7 1.4 5.3 2.8 8 4.3 0 0 0 .1.2.2zm-9.6-3.2c-.1 0-.3 0-.4.1-.4.1-.5.4-.2.6.7.6 1.4.9 2.3.7.2 0 .4-.2.4-.3 0-.1-.1-.4-.2-.5-.6-.4-1.2-.5-1.9-.6zM12.4 17.1c-.5-.6-1-1.1-1.4-1.7-.3-.3-.7-.6-.7-.9 0-.3.3-.7.5-1l4.3-8.6.2-.4c.1.1.2.2.2.3l3.9 5.3c.2.3.1.5 0 .7-.1.2-.3.2-.5.2h-4.9c-.2 0-.3 0-.4.3-.4 1.9-.8 3.8-1.2 5.8zm3.7-9.1c0-.1-.1-.4-.3-.5-.2-.1-.5.1-.6.3-.4.4-.6.9-.5 1.4 0 .2.1.5.3.5.1.1.4-.1.5-.2.4-.3.8-.8.6-1.5zM11.8 20.2c-1.7-.4-3.4-.8-5.1-1.3-.1 0-.2-.1-.3-.2l-6.2-5.7-.2-.2h.4c2.9.6 5.7 1.2 8.6 1.9.2 0 .4.1.5.3l2.4 2.8c.1.1.1.3.1.5.1.7 0 1.3-.2 1.9zm-4.2-4.8c-.3 0-.4.1-.3.4.4.6 1 .9 1.7 1 .3 0 .4-.1.2-.4-.4-.6-.9-.9-1.6-1zm-2.1.4c.3-.6-1.6-1.6-1.8-1.1-.4.6 1.5 1.6 1.8 1.1zm4.1 2.3c-.3.5 1.5 1.5 1.8 1 .3-.5-1.5-1.5-1.8-1zm-3.5-.9c-.3.5 1.4 1.4 1.6.9.3-.5-1.3-1.4-1.6-.9z"></path>
  </symbol>

  <symbol id="market_hand_down" viewBox="0 0 32 32">
    <title>market_hand_down</title>
    <path fill="red" d="M19 29.9c.2-1 .4-2 .7-3 .7-3 1.3-5.9 1.9-8.9.1-.2.1-.3.4-.4l9.8-.4h.2l-.5 2.3c-.7 3.1-1.4 6.2-2.1 9.2-.1.3-.1.4-.4.4l-9.6.7c-.1.1-.2.1-.4.1zm2.5-3c0 .9.5 1.3 1.1 1 .7-.3 1.2-1.2 1-1.9-.1-.6-.6-.9-1.2-.6-.6.3-.9.9-.9 1.5zm3.4-6.4c0-.5-.2-.9-.4-1-.4-.2-.7-.1-1 .2-.5.4-.8 1-.7 1.6 0 .7.7 1.1 1.3.7.5-.4.8-.9.8-1.5zm-.4 3.3c0 .4.1.8.4 1 .4.2.7.1 1-.2.5-.4.8-1 .7-1.6-.1-.7-.6-1-1.2-.6-.5.3-.8.8-.9 1.4zm4.1 2.1c0-.3-.1-.7-.4-.8-.3-.2-.6-.1-.9.1-.5.4-.8 1-.8 1.6 0 .7.6 1 1.2.6.6-.3.9-.9.9-1.5zm1.2-5.6c0-.4-.1-.8-.5-.9-.4-.2-.7 0-1 .2-.5.4-.7.9-.6 1.6.1.7.6 1 1.2.6.6-.3.9-.9.9-1.5zM9.4 14.2c-3.1-.7-6.2-1.4-9.4-2 .2-.4.4-.8.6-1.1 1.5-2.9 3-5.7 4.4-8.6.1-.3.3-.3.6-.3 2.9.5 5.8 1 8.7 1.6.1 0 .2.1.4.1-1.8 3.4-3.5 6.8-5.3 10.3zm-2-2.8c0 .5.3.8.8.6.6-.2 1.1-1 1.1-1.6 0-.5-.3-.8-.8-.6-.6.2-1.1.9-1.1 1.6zm-2.4-.5c0 .5.3.7.8.6.6-.1 1.2-1 1.2-1.6 0-.5-.3-.7-.8-.5-.6.1-1.2.9-1.2 1.5zm-.3-1.4c0-.5-.3-.7-.8-.6-.6.2-1.1 1-1.1 1.6 0 .5.3.7.8.6.6-.2 1.2-1 1.1-1.6zm2.7-3.3c0 .5.3.7.8.6.6-.2 1.1-.9 1.1-1.5 0-.5-.3-.8-.8-.6-.6.1-1.1.9-1.1 1.5zm4.3-.6c0-.5-.3-.7-.8-.6-.6.2-1.2 1-1.2 1.6 0 .5.3.8.8.6.6-.2 1.2-1 1.2-1.6zm-4.6-.8c0-.5-.3-.7-.7-.6-.6.2-1.2 1-1.2 1.6 0 .5.3.7.8.6.5-.2 1.1-1 1.1-1.6zM14.3 13c.7.5 1.3.9 1.9 1.4 1.4 1 2.9 2 4.3 3.1.2.1.2.2.2.4l-2.5 11.5s0 .1-.1.2l-.3-.3c-1.8-1.5-3.6-3-5.5-4.5-.2-.2-.3-.3-.2-.6.6-3.2 1.2-6.4 1.8-9.7.2-.5.3-.9.4-1.5zm3.2 12.2l-.1-.7c-.1-.4-.3-.8-.8-.9-.4-.1-.6 0-.7.4-.1.6 0 1.2.5 1.6.2.2.5.3.8.3.1 0 .3-.5.3-.7zm-2.2-4.6c0 .4.1.9.5 1.3s.9.3 1-.2c.1-.5 0-1.1-.3-1.5-.2-.3-.5-.5-.8-.4-.4.1-.4.4-.4.8zm1.1-2.9c0-.6-.1-1.1-.6-1.4-.3-.2-.8-.1-.9.3-.1.5-.1 1.1.3 1.5.2.3.5.5.8.4.4-.2.4-.5.4-.8zM31.7 16.6c-1.9.1-3.8.2-5.6.2l-4.4.2c-.2 0-.4-.1-.5-.2-2.2-1.5-4.3-3-6.4-4.5-.1 0-.1-.1-.2-.2h.3l8.2-.1c.1 0 .3 0 .4.1 2.7 1.4 5.3 2.8 8 4.3 0 0 0 .1.2.2zm-9.6-3.2c-.1 0-.3 0-.4.1-.4.1-.5.4-.2.6.7.6 1.4.9 2.3.7.2 0 .4-.2.4-.3 0-.1-.1-.4-.2-.5-.6-.4-1.2-.5-1.9-.6zM12.4 17.1c-.5-.6-1-1.1-1.4-1.7-.3-.3-.7-.6-.7-.9 0-.3.3-.7.5-1l4.3-8.6.2-.4c.1.1.2.2.2.3l3.9 5.3c.2.3.1.5 0 .7-.1.2-.3.2-.5.2h-4.9c-.2 0-.3 0-.4.3-.4 1.9-.8 3.8-1.2 5.8zm3.7-9.1c0-.1-.1-.4-.3-.5-.2-.1-.5.1-.6.3-.4.4-.6.9-.5 1.4 0 .2.1.5.3.5.1.1.4-.1.5-.2.4-.3.8-.8.6-1.5zM11.8 20.2c-1.7-.4-3.4-.8-5.1-1.3-.1 0-.2-.1-.3-.2l-6.2-5.7-.2-.2h.4c2.9.6 5.7 1.2 8.6 1.9.2 0 .4.1.5.3l2.4 2.8c.1.1.1.3.1.5.1.7 0 1.3-.2 1.9zm-4.2-4.8c-.3 0-.4.1-.3.4.4.6 1 .9 1.7 1 .3 0 .4-.1.2-.4-.4-.6-.9-.9-1.6-1zm-2.1.4c.3-.6-1.6-1.6-1.8-1.1-.4.6 1.5 1.6 1.8 1.1zm4.1 2.3c-.3.5 1.5 1.5 1.8 1 .3-.5-1.5-1.5-1.8-1zm-3.5-.9c-.3.5 1.4 1.4 1.6.9.3-.5-1.3-1.4-1.6-.9z"></path>
  </symbol>

  <symbol id="CitizenshipOrder" viewBox="0 0 32 32">
    <title>CitizenshipOrder</title>
    <path d="M13.6 4.8c-7.5 0-13.6 6.1-13.6 13.6s6.1 13.6 13.6 13.6 13.6-6.1 13.6-13.6-6.1-13.6-13.6-13.6zm-6.5 22.4c-2.7-2-4.4-5.2-4.4-8.8 0-.9.1-1.8.3-2.7h.1l2.6 2.6-.6 3.6 2.1 2.1-.1 3.2zm16.8-12l-1-.5-1.2-.3h-1.4l-1.4.6-1.2.4-1 1.1v1.2l.3 1.5.7.5 1.1.5.8.5.5.5h.3v5.7c-1.9 1.5-4.2 2.4-6.8 2.4-1.3 0-2.6-.2-3.8-.7l3.1-6.8-.5-1.8-.3-1.6-1.4-1.4-1.6-1h-.8l-1.1 1.3-1.1-1.9 1.1-.5 2.4-1.8.4-1.9 1.2-2.5v-.5l-.3-.4c.9-.2 1.8-.3 2.7-.3.8 0 1.6.1 2.4.3l-.1.2-.4 1.2 1.3.3 1.4-.2.4-.3v-.2c.5.2.9.5 1.3.8l-.2.3-1 .1-1.1 1 .9.5.1.9-1.2.1v.9l.3.6.9.2h1.1v-1.2l.4-.5.8-.5h.5l1 .3c.7.7 1.2 1.8 1.5 2.9zM28.4 3.6v-3.6h-2.5v3.6h-3.6v2.5h3.6v3.6h2.5v-3.6h3.6v-2.5z"></path>
  </symbol>

  <symbol id="add_citizenship" viewBox="0 0 32 32">
    <title>add_citizenship</title>
    <path d="M13.6 4.8c-7.5 0-13.6 6.1-13.6 13.6s6.1 13.6 13.6 13.6 13.6-6.1 13.6-13.6-6.1-13.6-13.6-13.6zm-6.5 22.4c-2.7-2-4.4-5.2-4.4-8.8 0-.9.1-1.8.3-2.7h.1l2.6 2.6-.6 3.6 2.1 2.1-.1 3.2zm16.8-12l-1-.5-1.2-.3h-1.4l-1.4.6-1.2.4-1 1.1v1.2l.3 1.5.7.5 1.1.5.8.5.5.5h.3v5.7c-1.9 1.5-4.2 2.4-6.8 2.4-1.3 0-2.6-.2-3.8-.7l3.1-6.8-.5-1.8-.3-1.6-1.4-1.4-1.6-1h-.8l-1.1 1.3-1.1-1.9 1.1-.5 2.4-1.8.4-1.9 1.2-2.5v-.5l-.3-.4c.9-.2 1.8-.3 2.7-.3.8 0 1.6.1 2.4.3l-.1.2-.4 1.2 1.3.3 1.4-.2.4-.3v-.2c.5.2.9.5 1.3.8l-.2.3-1 .1-1.1 1 .9.5.1.9-1.2.1v.9l.3.6.9.2h1.1v-1.2l.4-.5.8-.5h.5l1 .3c.7.7 1.2 1.8 1.5 2.9zM28.4 3.6v-3.6h-2.5v3.6h-3.6v2.5h3.6v3.6h2.5v-3.6h3.6v-2.5z"></path>
  </symbol>

  <symbol id="remove_citizenship" viewBox="0 0 32 32">
    <title>remove_citizenship</title>
    <path d="M13.6 4.8c-7.5 0-13.6 6.1-13.6 13.6s6.1 13.6 13.6 13.6 13.6-6.1 13.6-13.6-6.1-13.6-13.6-13.6zm-6.5 22.4c-2.7-2-4.4-5.2-4.4-8.8 0-.9.1-1.8.3-2.7h.1l2.6 2.6-.6 3.6 2.1 2.1-.1 3.2zm16.8-12l-1-.5-1.2-.3h-1.4l-1.4.6-1.2.4-1 1.1v1.2l.3 1.5.7.5 1.1.5.8.5.5.5h.3v5.7c-1.9 1.5-4.2 2.4-6.8 2.4-1.3 0-2.6-.2-3.8-.7l3.1-6.8-.5-1.8-.3-1.6-1.4-1.4-1.6-1h-.8l-1.1 1.3-1.1-1.9 1.1-.5 2.4-1.8.4-1.9 1.2-2.5v-.5l-.3-.4c.9-.2 1.8-.3 2.7-.3.8 0 1.6.1 2.4.3l-.1.2-.4 1.2 1.3.3 1.4-.2.4-.3v-.2c.5.2.9.5 1.3.8l-.2.3-1 .1-1.1 1 .9.5.1.9-1.2.1v.9l.3.6.9.2h1.1v-1.2l.4-.5.8-.5h.5l1 .3c.7.7 1.2 1.8 1.5 2.9zM21.4 2.3h9.7v2.5h-9.7z"></path>
  </symbol>

  <symbol id="InformationOrder" viewBox="0 0 32 32">
    <title>InformationOrder</title>
    <path d="M28.2 4c-2.2.1-4.5 0-6.7 0-.4-2.6-.4-2.6-3-2.6h-5c-2.6 0-2.6 0-3 2.6-2.2 0-4.5.1-6.8 0-1.7-.1-2.9.4-3.7 2v22.6c.7 1.5 1.8 2.1 3.5 2 8.3-.1 16.6-.1 25 0 1.7 0 2.8-.5 3.5-2v-22.6c-.8-1.6-2.1-2.1-3.8-2zm.4 21.7c0 1.4-.9 1.6-2 1.6h-21.1c-1.6 0-2-.4-2-2v-15.8c0-1.7.3-2 2-2h5.1c.4 2.5.4 2.5 3 2.5h5c2.4 0 2.5-.1 2.8-2.6 2 0 4-.1 6 .1.4 0 1.1.9 1.1 1.4.1 5.6.1 11.2.1 16.8zM13.2 19.8c-1.1-.2-1.2-.6-.5-1.4l.7-.9c1.2-2 .6-4.1-1.3-4.7-1.4-.4-2.8 0-3.6 1.1-.8 1.2-.5 2.8.7 4.3.9 1.1.9 1.2-.5 1.6-2 .5-2.7 1.5-2.7 3.3 0 1.1.4 1.6 1.5 1.5h7.1c1 0 1.3-.4 1.4-1.4.1-2-.6-2.9-2.8-3.4zM23.5 13.8h-3.6c-.9 0-1.7.7-1.7 1.7 0 .9.7 1.7 1.7 1.7h3.6c.9 0 1.7-.7 1.7-1.7s-.8-1.7-1.7-1.7zM23.5 19.7h-3.6c-.9 0-1.7.7-1.7 1.7s.8 1.6 1.7 1.6h3.6c.9 0 1.7-.7 1.7-1.7s-.8-1.6-1.7-1.6z"></path>
  </symbol>

  <symbol id="ic_up" viewBox="0 0 32 32">
    <title>ic_up</title>
    <path d="M12.7 6.7c-7 0-12.7 5.7-12.7 12.7 0 6.9 5.7 12.6 12.7 12.6s12.6-5.7 12.6-12.6c0-7-5.7-12.7-12.6-12.7zm-4.5 18.3h-3.4v-11.9h3.3v11.9zm7.9.3c-3.4 0-6.1-2.6-6.1-6.2 0-3.5 2.7-6.2 6.3-6.2 2.4 0 4 1 5 2.5l-2.5 1.9c-.7-.9-1.5-1.4-2.6-1.4-1.7 0-2.8 1.4-2.8 3.1 0 1.8 1.2 3.2 2.8 3.2 1.2 0 2-.6 2.7-1.4l2.5 1.8c-1.2 1.5-2.7 2.7-5.3 2.7zM27.7 4.3v-4.3h-3v4.3h-4.4v3h4.4v4.4h3v-4.4h4.3v-3z"></path>
  </symbol>

    <symbol id="BuyInfluenceOrder" viewBox="0 0 32 32">
    <title>BuyInfluenceOrder</title>
    <path d="M12.7 6.7c-7 0-12.7 5.7-12.7 12.7 0 6.9 5.7 12.6 12.7 12.6s12.6-5.7 12.6-12.6c0-7-5.7-12.7-12.6-12.7zm-4.5 18.3h-3.4v-11.9h3.3v11.9zm7.9.3c-3.4 0-6.1-2.6-6.1-6.2 0-3.5 2.7-6.2 6.3-6.2 2.4 0 4 1 5 2.5l-2.5 1.9c-.7-.9-1.5-1.4-2.6-1.4-1.7 0-2.8 1.4-2.8 3.1 0 1.8 1.2 3.2 2.8 3.2 1.2 0 2-.6 2.7-1.4l2.5 1.8c-1.2 1.5-2.7 2.7-5.3 2.7zM27.7 4.3v-4.3h-3v4.3h-4.4v3h4.4v4.4h3v-4.4h4.3v-3z"></path>
  </symbol>

  <symbol id="WiretransferOrder" viewBox="0 0 32 32">
    <title>WiretransferOrder</title>
    <path d="M9.3 13.5c-.1 1.1 0 2.3 0 3.5h-7.4c-1.4 0-1.9.4-1.9 1.9v4c0 1.5.4 1.9 1.9 1.9h7.4c0 1.3-.1 2.4 0 3.5 0 .4.3.9.6 1 .2.1.8-.1 1-.3 3.1-2.6 6.2-5.3 9.4-8.1-3.3-2.8-6.4-5.6-9.6-8.3-.6-.6-1.3-.2-1.4.9zM30.1 7.2h-7.4c0-1.3.1-2.4 0-3.5 0-.4-.3-.9-.6-1-.2-.1-.8.1-1 .3-3.1 2.6-6.2 5.3-9.4 8.1 3.3 2.8 6.4 5.6 9.6 8.3.7.6 1.4.2 1.5-.9.1-1.1 0-2.3 0-3.5h7.4c1.5 0 1.9-.4 1.9-1.9v-4c-.1-1.5-.6-1.9-2-1.9z"></path>
  </symbol>

  <symbol id="wiretransfer" viewBox="0 0 32 32">
    <title>wiretransfer</title>
    <path d="M9.3 13.5c-.1 1.1 0 2.3 0 3.5h-7.4c-1.4 0-1.9.4-1.9 1.9v4c0 1.5.4 1.9 1.9 1.9h7.4c0 1.3-.1 2.4 0 3.5 0 .4.3.9.6 1 .2.1.8-.1 1-.3 3.1-2.6 6.2-5.3 9.4-8.1-3.3-2.8-6.4-5.6-9.6-8.3-.6-.6-1.3-.2-1.4.9zM30.1 7.2h-7.4c0-1.3.1-2.4 0-3.5 0-.4-.3-.9-.6-1-.2-.1-.8.1-1 .3-3.1 2.6-6.2 5.3-9.4 8.1 3.3 2.8 6.4 5.6 9.6 8.3.7.6 1.4.2 1.5-.9.1-1.1 0-2.3 0-3.5h7.4c1.5 0 1.9-.4 1.9-1.9v-4c-.1-1.5-.6-1.9-2-1.9z"></path>
  </symbol>

  <symbol id="buy_share" viewBox="0 0 32 32">
    <title>buy_share</title>
    <path d="M11.4 9.6s2.3 2.5 7.3 0c0 0-.3-3 2.4-5.9.5-.5.3-2.7-1.9-1.8-.4.1-.8.6-1.9.1-.6-.3-2.5-3.3-4.1-1.3-.4.5-.4 1.2-1.6 2-1.2.9-4.9-1.2-3.3 2.1l3.1 4.8zm3.3-5.7l1.8 1.6-.5.9-1.3-1.2-1.5 1.2-.4-.7 1.9-1.8zM13 21.6c0 1.5.3 2.6.8 3.2.4.5.9.8 1.5.9v-8c-.6.1-1.1.4-1.5.9-.5.6-.8 1.6-.8 3zM31.8 23.7c-3.7-11.5-13.4-12.4-13.4-12.4-2.5 1.8-6.6.2-6.6.2-6.1 1.4-13 10.2-11.6 15.4 1.3 5.2 10.6 5.1 10.6 5.1h11.9c11.3-.6 9.1-8.3 9.1-8.3zm-15.3 4.1v1.5h-1.2v-1.5c-1.3-.1-2.4-.6-3.3-1.6-1-1.1-1.5-2.5-1.5-4.4 0-2 .5-3.5 1.5-4.6.9-.9 2-1.5 3.3-1.6v-.8h1.2v.8c1.2.1 2.3.5 3.1 1.3.5.5.9 1.2 1.2 2.2l-2.4.6c-.1-.6-.4-1.1-.9-1.4-.3-.2-.7-.4-1-.5v8c1-.2 1.7-1.1 2-2.4l2.3.7c-.6 2.2-2 3.5-4.3 3.7z"></path>
  </symbol>

  <symbol id="BuyShareOrder" viewBox="0 0 32 32">
    <title>BuyShareOrder</title>
    <path d="M11.4 9.6s2.3 2.5 7.3 0c0 0-.3-3 2.4-5.9.5-.5.3-2.7-1.9-1.8-.4.1-.8.6-1.9.1-.6-.3-2.5-3.3-4.1-1.3-.4.5-.4 1.2-1.6 2-1.2.9-4.9-1.2-3.3 2.1l3.1 4.8zm3.3-5.7l1.8 1.6-.5.9-1.3-1.2-1.5 1.2-.4-.7 1.9-1.8zM13 21.6c0 1.5.3 2.6.8 3.2.4.5.9.8 1.5.9v-8c-.6.1-1.1.4-1.5.9-.5.6-.8 1.6-.8 3zM31.8 23.7c-3.7-11.5-13.4-12.4-13.4-12.4-2.5 1.8-6.6.2-6.6.2-6.1 1.4-13 10.2-11.6 15.4 1.3 5.2 10.6 5.1 10.6 5.1h11.9c11.3-.6 9.1-8.3 9.1-8.3zm-15.3 4.1v1.5h-1.2v-1.5c-1.3-.1-2.4-.6-3.3-1.6-1-1.1-1.5-2.5-1.5-4.4 0-2 .5-3.5 1.5-4.6.9-.9 2-1.5 3.3-1.6v-.8h1.2v.8c1.2.1 2.3.5 3.1 1.3.5.5.9 1.2 1.2 2.2l-2.4.6c-.1-.6-.4-1.1-.9-1.4-.3-.2-.7-.4-1-.5v8c1-.2 1.7-1.1 2-2.4l2.3.7c-.6 2.2-2 3.5-4.3 3.7z"></path>
  </symbol>

  <symbol id="background" viewBox="0 0 32 32">
    <title>background</title>
    <path fill-rule="evenodd" clip-rule="evenodd" d="M.2 24.8c-.1-.5-.2-1 0-1.5.3-.9 1.1-1.7 1.9-2.3 1.3-.9 2.8-1.6 4.3-2.3 1.3-.6 1.5-1.6.8-2.8-.8-1.2-1.6-2.6-2-4-.8-2.2-.5-4.5 1.5-6.3 1.7-1.4 4.2-1.6 6.2-.4 1.8 1.1 2.9 3.5 2.4 5.9-.3 1.8-1 3.4-2.1 4.9-1 1.3-.7 2.4.8 3 .5.2 1 .4 1.4.6 1.8.9 4.1 1.6 4.6 3.8.1.5.1 1 0 1.5-.3 1.5-1.9 1.9-3.3 2.2-4.4.9-8.8.9-13.3 0-1.2-.4-2.9-.8-3.2-2.3z"></path>
    <path d="M24.1 6.2c-4.4 0-7.9 3.5-7.9 7.9s3.5 7.9 7.9 7.9 7.9-3.5 7.9-7.9c0-4.3-3.5-7.9-7.9-7.9zm-6.4 7.9c0-.5.1-1.1.2-1.6l1.5 1.5-.4 2.1 1.3 1.2-.1 1.8c-1.5-1-2.5-2.9-2.5-5zm4.2 6l1.8-4-.2-1.1-.2-.9-.8-.8-1-.6h-.5l-.6.8-.6-1.1.6-.3 1.4-1 .2-1.1.7-1.5v-.3l-.2-.2c.5-.1 1-.2 1.6-.2.5 0 .9.1 1.4.2h-.1l-.2.7.7.2.8-.1.3-.2v-.1c.3.1.5.3.8.5l-.1.2-.6.1-.6.6.5.3.1.5h-.7v.5l.2.3.5.1h.6v-.7l.2-.3.5-.3h.3l.6.2c.4.5.7 1.2.9 1.8l-.7-.3-.7-.2h-.8l-.8.4-.7.2-.6.6v.7l.2.9.4.3.6.3.5.3.3.3h.2v3.3c-1.1.9-2.5 1.4-4 1.4-.8 0-1.5-.2-2.2-.4z"></path>
  </symbol>

  <symbol id="CorporationSpeculationOrder" viewBox="0 0 32 32">
    <title>CorporationSpeculationOrder</title>
    <path d="M8.9 11.6s1.8 1.9 5.7 0c0 0-.3-2.3 1.9-4.6.4-.4.2-2.2-1.5-1.4-.3.1-.7.6-1.4.1-.5-.2-2-2.6-3.2-1.1-.4.4-.3 1-1.3 1.6-.9.7-3.8-.9-2.5 1.6l2.3 3.8zm2.6-4.4l1.4 1.3-.3.6-1-.9-1.2.9-.4-.6 1.5-1.3zM10.2 21c0 1.2.2 2 .6 2.5.3.4.7.6 1.2.7v-6.2c-.5.1-.9.3-1.2.7-.4.5-.6 1.2-.6 2.3zM14.4 12.9c-1.9 1.4-5.2.1-5.2.1-4.8 1.1-10.1 8-9.1 12.1 1.1 4.1 8.3 4 8.3 4h9.3c8.9-.5 7.1-6.5 7.1-6.5-2.8-8.9-10.4-9.7-10.4-9.7zm-1.5 13v1.1h-.9v-1.2c-1-.1-1.9-.5-2.6-1.2-.8-.8-1.2-2-1.2-3.4 0-1.5.4-2.7 1.2-3.6.7-.7 1.5-1.1 2.6-1.2v-.6h.9v.6c1 .1 1.8.4 2.4 1 .4.4.7 1 .9 1.7l-1.8.4c-.1-.5-.3-.9-.7-1.1-.2-.2-.5-.3-.8-.4v6.3c.8-.2 1.3-.8 1.6-1.9l1.8.6c-.5 1.7-1.6 2.7-3.4 2.9zM22.4 7.3s1.1 1.1 3.4 0c0 0-.2-1.4 1.1-2.8.2-.2.1-1.3-.9-.8-.2.1-.4.3-.9.1-.3-.1-1.2-1.5-1.9-.6-.2.2-.2.5-.7.9-.5.4-2.3-.6-1.5 1l1.4 2.2zm1.5-2.6l.8.8-.2.4-.6-.6-.7.6-.2-.4.9-.8zM23.2 12.9c0 .7.1 1.2.4 1.5.2.2.4.4.7.4v-3.7c-.3.1-.5.2-.7.4-.3.3-.4.8-.4 1.4zM31.9 13.9c-1.7-5.4-6.2-5.8-6.2-5.8-1.1.9-3.1.1-3.1.1-2 .4-4.1 2.5-5 4.6 1.9.5 4.5 1.8 6.5 5h3.6c5.3-.3 4.2-3.9 4.2-3.9zm-7.1 1.9v.7h-.5v-.7c-.6-.1-1.1-.3-1.5-.7-.5-.5-.8-1.2-.8-2.1 0-.9.2-1.6.7-2.1.4-.4.9-.7 1.5-.7v-.4h.5v.4c.6 0 1.1.2 1.4.6.3.2.4.6.6 1l-1 .2c-.1-.3-.2-.5-.4-.7-.1-.1-.3-.2-.5-.2v3.7c.5-.1.8-.5.9-1.1l1.1.3c-.3 1.1-.9 1.7-2 1.8z"></path>
  </symbol>

  <symbol id="speculation_win" viewBox="0 0 32 32">
    <title>speculation_win</title>
    <path fill="green" d="M8.9 11.6s1.8 1.9 5.7 0c0 0-.3-2.3 1.9-4.6.4-.4.2-2.2-1.5-1.4-.3.1-.7.6-1.4.1-.5-.2-2-2.6-3.2-1.1-.4.4-.3 1-1.3 1.6-.9.7-3.8-.9-2.5 1.6l2.3 3.8zm2.6-4.4l1.4 1.3-.3.6-1-.9-1.2.9-.4-.6 1.5-1.3zM10.2 21c0 1.2.2 2 .6 2.5.3.4.7.6 1.2.7v-6.2c-.5.1-.9.3-1.2.7-.4.5-.6 1.2-.6 2.3zM14.4 12.9c-1.9 1.4-5.2.1-5.2.1-4.8 1.1-10.1 8-9.1 12.1 1.1 4.1 8.3 4 8.3 4h9.3c8.9-.5 7.1-6.5 7.1-6.5-2.8-8.9-10.4-9.7-10.4-9.7zm-1.5 13v1.1h-.9v-1.2c-1-.1-1.9-.5-2.6-1.2-.8-.8-1.2-2-1.2-3.4 0-1.5.4-2.7 1.2-3.6.7-.7 1.5-1.1 2.6-1.2v-.6h.9v.6c1 .1 1.8.4 2.4 1 .4.4.7 1 .9 1.7l-1.8.4c-.1-.5-.3-.9-.7-1.1-.2-.2-.5-.3-.8-.4v6.3c.8-.2 1.3-.8 1.6-1.9l1.8.6c-.5 1.7-1.6 2.7-3.4 2.9zM22.4 7.3s1.1 1.1 3.4 0c0 0-.2-1.4 1.1-2.8.2-.2.1-1.3-.9-.8-.2.1-.4.3-.9.1-.3-.1-1.2-1.5-1.9-.6-.2.2-.2.5-.7.9-.5.4-2.3-.6-1.5 1l1.4 2.2zm1.5-2.6l.8.8-.2.4-.6-.6-.7.6-.2-.4.9-.8zM23.2 12.9c0 .7.1 1.2.4 1.5.2.2.4.4.7.4v-3.7c-.3.1-.5.2-.7.4-.3.3-.4.8-.4 1.4zM31.9 13.9c-1.7-5.4-6.2-5.8-6.2-5.8-1.1.9-3.1.1-3.1.1-2 .4-4.1 2.5-5 4.6 1.9.5 4.5 1.8 6.5 5h3.6c5.3-.3 4.2-3.9 4.2-3.9zm-7.1 1.9v.7h-.5v-.7c-.6-.1-1.1-.3-1.5-.7-.5-.5-.8-1.2-.8-2.1 0-.9.2-1.6.7-2.1.4-.4.9-.7 1.5-.7v-.4h.5v.4c.6 0 1.1.2 1.4.6.3.2.4.6.6 1l-1 .2c-.1-.3-.2-.5-.4-.7-.1-.1-.3-.2-.5-.2v3.7c.5-.1.8-.5.9-1.1l1.1.3c-.3 1.1-.9 1.7-2 1.8z"></path>
  </symbol>

  <symbol id="speculation_lost" viewBox="0 0 32 32">
    <title>speculation_lost</title>
    <path fill="red" d="M8.9 11.6s1.8 1.9 5.7 0c0 0-.3-2.3 1.9-4.6.4-.4.2-2.2-1.5-1.4-.3.1-.7.6-1.4.1-.5-.2-2-2.6-3.2-1.1-.4.4-.3 1-1.3 1.6-.9.7-3.8-.9-2.5 1.6l2.3 3.8zm2.6-4.4l1.4 1.3-.3.6-1-.9-1.2.9-.4-.6 1.5-1.3zM10.2 21c0 1.2.2 2 .6 2.5.3.4.7.6 1.2.7v-6.2c-.5.1-.9.3-1.2.7-.4.5-.6 1.2-.6 2.3zM14.4 12.9c-1.9 1.4-5.2.1-5.2.1-4.8 1.1-10.1 8-9.1 12.1 1.1 4.1 8.3 4 8.3 4h9.3c8.9-.5 7.1-6.5 7.1-6.5-2.8-8.9-10.4-9.7-10.4-9.7zm-1.5 13v1.1h-.9v-1.2c-1-.1-1.9-.5-2.6-1.2-.8-.8-1.2-2-1.2-3.4 0-1.5.4-2.7 1.2-3.6.7-.7 1.5-1.1 2.6-1.2v-.6h.9v.6c1 .1 1.8.4 2.4 1 .4.4.7 1 .9 1.7l-1.8.4c-.1-.5-.3-.9-.7-1.1-.2-.2-.5-.3-.8-.4v6.3c.8-.2 1.3-.8 1.6-1.9l1.8.6c-.5 1.7-1.6 2.7-3.4 2.9zM22.4 7.3s1.1 1.1 3.4 0c0 0-.2-1.4 1.1-2.8.2-.2.1-1.3-.9-.8-.2.1-.4.3-.9.1-.3-.1-1.2-1.5-1.9-.6-.2.2-.2.5-.7.9-.5.4-2.3-.6-1.5 1l1.4 2.2zm1.5-2.6l.8.8-.2.4-.6-.6-.7.6-.2-.4.9-.8zM23.2 12.9c0 .7.1 1.2.4 1.5.2.2.4.4.7.4v-3.7c-.3.1-.5.2-.7.4-.3.3-.4.8-.4 1.4zM31.9 13.9c-1.7-5.4-6.2-5.8-6.2-5.8-1.1.9-3.1.1-3.1.1-2 .4-4.1 2.5-5 4.6 1.9.5 4.5 1.8 6.5 5h3.6c5.3-.3 4.2-3.9 4.2-3.9zm-7.1 1.9v.7h-.5v-.7c-.6-.1-1.1-.3-1.5-.7-.5-.5-.8-1.2-.8-2.1 0-.9.2-1.6.7-2.1.4-.4.9-.7 1.5-.7v-.4h.5v.4c.6 0 1.1.2 1.4.6.3.2.4.6.6 1l-1 .2c-.1-.3-.2-.5-.4-.7-.1-.1-.3-.2-.5-.2v3.7c.5-.1.8-.5.9-1.1l1.1.3c-.3 1.1-.9 1.7-2 1.8z"></path>
  </symbol>

  <symbol id="agroalimentaire" viewBox="0 0 32 32">
    <title>alimentaire</title>
    <path d="M1.7 14.7v.4h28.6v-3.6c0-.7-.2-1.4-.5-2.1-.6-1.2-1.6-2-2.7-2.7-2.1-1.3-4.5-1.7-6.9-1.7h-8.3c-1 0-2 .1-3 .3-1.8.3-3.5 1-5 2.2-1.4 1.2-2.2 2.7-2.2 4.6v2.6zm21-4.6c.5 0 .9.4.8.9 0 .5-.4.8-.8.8-.5 0-.8-.4-.8-.9 0-.4.4-.8.8-.8zm-3.3-3.3c.5 0 .8.3.8.8s-.4.9-.8.9c-.5 0-.9-.4-.8-.9-.1-.5.3-.8.8-.8zm-3.4 3.3c.5 0 .8.4.8.9 0 .4-.4.8-.9.8s-.9-.4-.8-.9c.1-.4.5-.8.9-.8zm-3.4-3.3c.5 0 .8.4.8.8 0 .5-.4.9-.9.8-.5 0-.8-.4-.8-.9.1-.4.5-.8.9-.7zm-3.3 3.3c.5 0 .8.4.8.8 0 .5-.4.8-.8.8-.5 0-.9-.4-.9-.8s.4-.8.9-.8zM1.7 21.9v1.5c0 1.9 1.6 3.5 3.5 3.5h21.5c.3 0 .6 0 .9-.1 2-.6 3.1-2.7 2.5-4.9h-28.4zM30 16.9h-28.5c-.7 0-1.5.8-1.5 1.6s.7 1.6 1.5 1.7h28.4c1.2 0 2-.7 2-1.7.1-.9-.8-1.6-1.9-1.6z"></path>
  </symbol>

  <symbol id="btp" viewBox="0 0 32 32">
    <title>btp</title>
    <path fill-rule="evenodd" clip-rule="evenodd" d="M26.7 29.6v-29.6h-21.4v29.6h-4.4v2.4h30.2v-2.4h-4.4zm-17.9-25.7c0-.2 0-.4.3-.4h4.1v4h-4c-.3 0-.4-.1-.4-.4v-3.2zm0 6.3c0-.1.2-.4.3-.4h4s.1 0 .1.1v3.9h-4.1c-.3 0-.4-.1-.4-.4.1-1.1.1-2.1.1-3.2zm0 6h4.4v3.9h-4.4v-3.9zm4.8 13.3h-4.4v-7h4.4v7zm4.5-19.4c0-.1.2-.3.3-.3h3.9c.1 0 .3.2.3.3v3.4c0 .1-.2.3-.3.3h-4.2v-3.7zm0 6.1h4.4v3.5c0 .1-.2.4-.3.4h-4.2c.1-1.3.1-2.6.1-3.9zm4.4 9.9c0 .1-.2.4-.3.4h-4s-.1 0-.1-.1v-3.9h4.1c.3 0 .4.1.4.4l-.1 3.2zm.1-19c0 .3 0 .4-.3.4h-3.8c-.1 0-.1 0-.2-.1v-3.9h3.9c.3 0 .5.1.4.4-.1 1.1-.1 2.1 0 3.2z"></path>
  </symbol>

  <symbol id="énergie" viewBox="0 0 32 32">
    <title>énergie</title>
    <path d="M20.2 0s-6.2-.3-7.9 3.4-4.9 10.4-5 11.3c0 .8.1 1.5.9 1.5h6c.7 0 .8.5.5 1-.2.5-7.7 14.8-7.7 14.8s17.6-20.4 17.9-20.9c.3-.5.2-1.3-.8-1.3-1 .1-7.4.3-8.5 0-1.2-.2 4.6-9.8 4.6-9.8z"></path>
  </symbol>

  <symbol id="médias" viewBox="0 0 32 32">
    <title>médias</title>
    <path d="M17.3 23.8c3.6-.6 6.3-3.6 6.5-7.2.1-1.3 0-2.6 0-3.9v-.2h-2.2v3.4c0 .4 0 .9-.1 1.3-.5 2.7-2.9 4.6-5.6 4.5-2.8-.1-5.1-2.3-5.3-5.1-.1-1.2 0-2.5 0-3.7v-.4h-2.3v3.8000000000000003c.1 3.9 2.7 6.9 6.6 7.5.3 0 .3.2.3.4v5.3h-5.1v2.5h12.2v-2.5h-5.1v-5.4c-.2-.2-.1-.2.1-.3zM15.8 20.1c2.5.1 4.5-1.8 4.5-4.4v-6.6h-8.6v7c.1 2.2 2 3.9 4.1 4zM16 0c-2.1 0-4 1.7-4.2 3.8h8.4c-.1-2.1-2.1-3.8-4.2-3.8zM20.3 5.5h-8.6v1.9h8.6v-1.9z"></path>
  </symbol>

  <symbol id="pharmaceutique" viewBox="0 0 32 32">
    <title>pharmaceutique</title>
    <path fill-rule="evenodd" clip-rule="evenodd" d="M10.5 0h11v10.6h10.4v11.1h-10.3v10.3h-11.2v-10.4h-10.5v-11h10.5c.1-3.7.1-7.2.1-10.6z"></path>
  </symbol>

  <symbol id="militaire" viewBox="0 0 32 32">
    <title>militaire</title>
    <path d="M28.3 16.7h-22.7l-3.6 3.9 2.1-.1s1.2 2.1 2.9 2.1h19.9l2.9-2h2.2s-1.6-3.9-3.7-3.9zm-21.2 4.7c-.9 0-1.7-.7-1.7-1.7 0-.9.7-1.7 1.7-1.7.9 0 1.7.7 1.7 1.7-.1.9-.8 1.7-1.7 1.7zm3.9-.1c-.9 0-1.7-.7-1.7-1.7 0-.9.7-1.7 1.7-1.7.9 0 1.7.7 1.7 1.7s-.8 1.7-1.7 1.7zm4 0c-.9 0-1.7-.7-1.7-1.7 0-.9.7-1.7 1.7-1.7.9 0 1.7.7 1.7 1.7s-.7 1.7-1.7 1.7zm4.1 0c-.9 0-1.7-.7-1.7-1.7 0-.9.7-1.7 1.7-1.7s1.7.7 1.7 1.7c-.1 1-.8 1.7-1.7 1.7zm3.9 0c-.9 0-1.7-.7-1.7-1.7 0-.9.7-1.7 1.7-1.7s1.7.7 1.7 1.7-.8 1.7-1.7 1.7zm4 .1c-.9 0-1.7-.7-1.7-1.7 0-.9.7-1.7 1.7-1.7s1.7.7 1.7 1.7c0 .9-.8 1.7-1.7 1.7zM25.6 13.8c1.2-2.8-.9-3.1-.9-3.1l-5.5-.1v-.5c0-.5-.9-.7-.9-.7h-3.5s-.9.3-.9.9v.5h-.6c-.9 0-2.1 1.5-2.5 2h-10.8v2h10s.6 1.3 1.2 1.3h16.7v-1.3c.1-.1-1.3 0-2.3-1z"></path>
  </symbol>

  <symbol id="robotique" viewBox="0 0 32 32">
    <title>robotique</title>
    <path fill-rule="evenodd" clip-rule="evenodd" d="M16 7.8h6.3c1.1 0 1.9.8 1.9 1.9v12.5c0 1.2-.7 1.9-1.9 1.9H9.7c-1.1 0-1.9-.8-1.9-1.8V9.7c0-1 .8-1.8 1.8-1.8 2.2-.1 4.3-.1 6.4-.1zM24.5 2.9v1.9c0 .6-.4 1-.9 1-.6 0-1.1-.4-1.1-1V.9c0-.6.5-1 1.1-1 .6 0 1 .5 1 1.1-.1.7-.1 1.3-.1 1.9zM2.9 24.5H1c-.6 0-1-.4-1.1-1 0-.5.4-1 1-1.1h3.9c.6 0 1 .5 1 1.1 0 .6-.4.9-1 .9-.6.1-1.2.1-1.9.1zM7.5 2.9V1.1c0-.6.4-1.1 1-1.1.5 0 1 .4 1 1v3.9c0 .6-.5 1-1 1s-1-.5-1-1v-2zM19.5 2.9v1.8c0 .7-.4 1.1-1 1.1s-1-.4-1-1.1V1c0-.6.5-1.1 1-1.1.6 0 1 .5 1 1.1v1.9zM2.9 7.5h1.8c.6 0 1 .4 1.1 1 0 .6-.4 1-1 1H1c-.5 0-1-.5-1-1 0-.6.5-1 1.1-1h1.8zM3 19.5H1.2c-.6 0-1.1-.5-1.1-1 0-.6.5-1 1.1-1h3.7c.5 0 .9.3 1.1.8.1.4-.1.9-.5 1.1-.2.1-.4.1-.6.1H3zM24.5 29v1.8c0 .6-.4 1-1 1.1-.6 0-1.1-.5-1.1-1v-3.8c0-.6.5-1.1 1.1-1 .6 0 1 .5 1 1.1V29zM12.5 2.9V1.1c0-.6.4-1.1 1-1.1s1 .5 1 1.1v3.7c0 .7-.4 1.1-1 1.1s-1-.5-1-1.1c-.1-.7-.1-1.3 0-1.9zM2.9 14.5h-2c-.5 0-.9-.4-.9-.9-.1-.4.2-.9.6-1 .1 0 .2-.1.4-.1h3.8c.4 0 .7.2.9.6.2.4.1.7-.1 1-.2.3-.5.4-.9.4H2.9zM14.5 29v2c0 .5-.4.8-.9.9-.4.1-.9-.2-1-.6-.1-.2-.1-.3-.1-.5v-3.6c0-.7.4-1.1 1-1.1s1 .5 1 1.1V29zM29 7.5h1.8c.6 0 1.1.4 1.1 1 0 .5-.4 1-1 1h-3.8c-.6 0-1-.5-1-1 0-.6.5-1 1.1-1H29zM29 24.5h-1.8c-.6 0-1.1-.4-1.1-1s.4-1 1.1-1h3.7c.6 0 1.1.5 1.1 1 0 .6-.5 1-1.1 1H29zM7.5 29v-1.8c0-.6.4-1.1 1-1.1s1 .5 1 1.1v3.7c0 .5-.3.9-.8 1-.4.1-.9-.1-1.1-.5-.1-.2-.1-.3-.1-.5V29zM29 19.5h-1.8c-.6 0-1.1-.4-1.1-1s.4-1 1.1-1h3.7c.6 0 1 .4 1 .9.1.4-.2.9-.6 1.1-.2.1-.4.1-.5.1-.6-.1-1.2-.1-1.8-.1zM19.5 29v2c0 .5-.4.9-.9.9-.4.1-.9-.2-1-.7 0-.1-.1-.3-.1-.4v-3.7c0-.5.3-.9.8-1 .4-.1.8 0 1.1.4.1.2.2.4.2.7-.1.6-.1 1.2-.1 1.8zM29 12.5h2c.5 0 .9.4.9.9.1.4-.2.9-.7 1.1-.1.1-.3.1-.5.1h-3.6c-.5 0-.9-.3-1.1-.8-.1-.4 0-.9.4-1.1.2-.1.4-.2.7-.2.7-.1 1.3 0 1.9 0z"></path>
  </symbol>

  <symbol id="aérospatiale" viewBox="0 0 32 32">
    <title>aérospatiale</title>
    <path d="M21.6 10.9c-.6-3.1-1.7-6-3.6-8.6-.6-.8-1.3-1.5-2-2.3l-.7.7c-1.7 1.8-3 3.9-3.8 6.3-1.9 5.1-2.1 10.4-1 15.7.3 1.8 1 3.4 2 4.9.5.7 1.2 1.3 2 1.7l.6.2v-7.4c0-.4.1-.8.5-1 .6-.3 1.3.2 1.3.9v7.4c.1 0 .1 0 .2-.1 1.1-.4 1.9-1.2 2.6-2.2 1-1.6 1.6-3.3 1.9-5.2.7-3.5.7-7.3 0-11zm-8.7-2.1c.7-2.2 1.6-4.1 3.1-5.9 1.4 1.8 2.4 3.7 3.1 5.9-2.1.4-4.1.4-6.2 0zM27.1 24.7c0-1-.4-1.8-1.2-2.4-.8-.6-1.7-.7-2.6-.6-.1 0-.2.2-.2.3l-.7 2.9c-.3.9-.7 1.8-1.1 2.7 1.9 1.4 3.9 2.9 6 4.4v-.4c-.2-2.3-.2-4.6-.2-6.9zM8.7 21.7h-1.1c-1.3.3-2.8 1.3-2.7 3.2.1 2.2 0 4.4 0 6.7v.5c2-1.5 4-3 6-4.4-1-1.8-1.5-3.6-1.9-5.6 0-.2-.2-.4-.3-.4z"></path>
  </symbol>

  <symbol id="money_next_turn" viewBox="0 0 32 32">
    <title>money_next_turn</title>
    <path d="M14.6 11.5l-3.6.6-.2-.6c-.2-.9-.4-1.7-.4-2.6 0-.5.1-.9.4-1.3 1.1-1.7 3.3-2.1 5-1.1.7.5 1.2.9 1.8 1.4.1-.5.3-1.4 1.3-1.4h.8l-.4-.5c-1.4-1.5-3.1-2.5-5-3.2-1.9-.7-3.8-.6-5.6.4-.9.5-1.7 1.1-2.3 1.9-.8.9-1.2 2-1.4 3.2-.3 1.5-.2 3 .1 4.5l.1.3-5.1.9c3.1 2.2 6.2 4.4 9.2 6.6l5.8-8.2-.5-.9zM19.4 8.7c-.3.3-.3.8-1 1.3-.8.6-3.3-.8-2.2 1.4l2 3.2s1.5 1.6 4.9 0c0 0-.2-2 1.6-3.9.3-.3.2-1.8-1.3-1.2-.3.1-.6.5-1.2.1-.4-.2-1.7-2.2-2.8-.9zm1 2.2l1.2 1.1-.3.5-.9-.8-1 .8-.3-.5 1.3-1.1zM19.8 20.6c-.4.4-.5 1.1-.5 2 0 1 .2 1.7.5 2.1.3.3.6.5 1 .6v-5.3c-.4.1-.7.3-1 .6zM31.8 24c-2.5-7.6-8.9-8.3-8.9-8.3-1.6 1.2-4.4.1-4.4.1-4 .9-8.6 6.8-7.7 10.3l7.1 3.4h7.9c7.5-.3 6-5.5 6-5.5zm-10.2 2.8v1h-.8v-1c-.9-.1-1.6-.4-2.2-1.1-.7-.7-1-1.7-1-2.9 0-1.3.3-2.3 1-3.1.6-.6 1.3-1 2.2-1.1v-.5h.8v.5c.8.1 1.5.3 2 .8.4.3.6.8.8 1.4l-1.6.4c-.1-.4-.3-.7-.6-1-.2-.2-.4-.3-.7-.3v5.3c.7-.2 1.1-.7 1.3-1.6l1.5.5c-.2 1.7-1.2 2.6-2.7 2.7z"></path>
  </symbol>

  <symbol id="télécom" viewBox="0 0 32 32">
    <title>télécom</title>
    <path d="M29.608 25.518c-.54.314-1.154.425-1.772.425-.61 0-1.38.007-1.938-.258-1.38-.653-1.377-2.485-1.637-3.774-.616-3.062-2.042-5.936-4.126-8.267-2.01-2.246-4.57-4.02-7.406-5.045-1.41-.507-2.835-.676-4.287-.993-.648-.142-1.22-.49-1.595-1.046-.35-.517-.383-1.285-.405-1.896-.044-1.308.414-2.742 1.903-2.877.658-.06 1.373.094 2.02.203.777.132 1.55.295 2.314.495 2.8.73 5.47 1.95 7.82 3.646 4.757 3.434 8.198 8.627 9.446 14.36.2.916.358 1.847.445 2.777.04.4.05.807-.052 1.198-.12.462-.4.723-.728 1.053-.995.58.164-.164 0 0z"></path>
    <path d="M17.023 15.52c2.107 2.084 3.49 4.825 4.105 7.714.266 1.25.426 2.752-1.044 3.298-.626.233-1.392.175-2.05.152-.71-.024-1.317-.198-1.822-.73-.495-.522-.674-1.16-.85-1.84-.21-.812-.525-1.585-.925-2.323-.725-1.34-1.736-2.513-2.993-3.383-.61-.422-1.267-.767-1.955-1.043-.76-.303-1.6-.426-2.334-.78-1.198-.58-1.49-1.65-1.488-2.88.004-.975.138-2.07 1.09-2.58 1.015-.544 2.54.013 3.56.326 2.534.78 4.81 2.23 6.705 4.07 2.207 2.18-2.73-2.645 0 0zM3.81 21.476c1.56-1.748 4.376-1.833 6.106-.292 1.822 1.62 1.85 4.475.26 6.266-1.622 1.826-4.602 1.884-6.312.15-1.67-1.686-1.608-4.386-.053-6.124 1.553-1.737-1.7 1.902 0 0z"></path>
  </symbol>

  <symbol id="transport" viewBox="0 0 32 32">
    <title>Transport</title>
    <path d="M28.9 29.43c.44-1.52.13-2.73-1.1-3.6-.95-.7-2.28-.72-3.26-.05-1.3.87-1.6 2.1-1.2 3.57H7.94c.3-1.17.1-2.2-.75-3.05-.6-.6-1.34-.87-2.17-.85C3.07 25.52 2 27 2.23 29.3c-.66-.05-1.32-.5-1.44-.98-.03-.08-.05-.2 0-.26.16-.3.1-.6-.04-.87-.28-.62-.2-1.15.32-1.6.07-.06.08-.2.1-.3.08-.53.17-1.04.23-1.56.02-.12-.07-.25-.1-.38-.04 0-.08 0-.1-.02.27-.34.55-.7.83-1.03.1-.1.2-.24.27-.38.5-1.12 1.32-2 2.13-2.9.12-.12.34-.2.52-.2 1.58-.13 3.17-.32 4.76-.33 2.76-.04 5.5.05 8.27.1.82 0 1.57.2 2.2.8 1.07 1 2.16 2.03 3.25 3.03.13.12.32.23.5.26 1.74.26 3.5.54 5.17 1.14l.28.1c1.38.4 2.03 1.87 2.02 3.06 0 .56-.18 1.08-.15 1.63.02.37-.2.6-.56.66-.58.06-1.15.08-1.8.13zm-8.37-6.46l-.3-.4-2.25-2.78c-.15-.2-.3-.26-.52-.25-1.7.02-3.4.04-5.1.04-.3 0-.45.1-.44.4.02.84.07 1.7.1 2.6l6.1.2.02-.2c.05-.48.27-.78.56-.78.5 0 .8.3.9.76.02.1.14.25.24.3.2.06.4.05.7.1zM10.7 19.8c-.16-.02-.3-.04-.42-.04-.97 0-1.93-.02-2.9 0-1.35 0-1.46.07-2.13 1.25-.16.28-.27.58-.37.88-.06.2.03.33.3.33 1.5.04 3.03.1 4.55.13.24 0 .48 0 .7-.05.1-.02.26-.16.26-.25V19.8zm8.1-.3l.67.7c.7.76 1.4 1.52 2.14 2.25.46.46.96.47 1.55.14-.02-.04-.03-.08-.06-.1l-3.3-3c-.06-.06-.16-.08-.25-.08-.22 0-.45.05-.74.08z"></path>
    <path d="M7.9 28.43c0 1.55-1.25 2.8-2.8 2.8-1.56 0-2.8-1.28-2.8-2.85 0-1.54 1.27-2.77 2.83-2.76s2.78 1.25 2.78 2.8zm-2.83 2c1.13.02 2.06-.9 2.07-2 0-1.1-.9-2.03-2-2.04-1.1-.03-2.03.87-2.05 2-.02 1.1.85 2 1.97 2.03zM26.16 25.47c1.58 0 2.8 1.27 2.78 2.85-.02 1.54-1.3 2.77-2.84 2.76-1.54-.02-2.77-1.3-2.76-2.84 0-1.55 1.26-2.78 2.82-2.77zm-.04 4.82c1.13 0 2.06-.9 2.05-2.04 0-1.1-.92-2.02-2.03-2.02-1.1 0-2 .9-2.02 2.02 0 1.12.88 2.02 2 2.02z"></path>
    <path d="M3.68 27.41c.2.26.4.46.58.68h-.83l.25-.66zM4.8 26.7v.96c-.23-.27-.4-.5-.58-.7.13-.07.33-.15.57-.25zM5.87 28.1l.68-.6.26.6h-.93zM5.9 28.73h.9l-.24.63-.64-.63zM4.3 28.8c-.2.17-.4.34-.65.53l-.24-.6h.84l.05.07zM4.8 29.16v.94l-.63-.23c.2-.23.38-.44.63-.7zM5.45 29.2l.6.65-.6.26v-.9zM6.04 26.96l-.6.62v-.85c.22.1.42.16.6.23zM5.1 28.75c-.1-.15-.22-.24-.2-.33 0-.1.12-.17.2-.25.08.08.2.15.24.25 0 .07-.12.18-.23.33zM26.46 29.97v-.95c.22.28.38.5.56.7-.12.07-.32.15-.56.25zM25.83 29.1v.85c-.23-.08-.43-.16-.58-.2l.58-.66zM27.06 26.8l-.6.62v-.85l.6.24zM25.2 26.82l.63-.25v.94l-.62-.68zM27.84 28.6c-.1.2-.17.4-.26.64l-.67-.65h.94zM25.4 28.6c-.28.22-.5.4-.7.6l-.25-.6h.94zM27.85 27.94h-.93c.2-.23.4-.4.62-.66l.3.66zM25.34 27.94h-.88c.1-.23.16-.42.23-.6l.64.6zM26.48 28.28c-.15.1-.25.2-.33.2-.1 0-.17-.13-.25-.2.1-.1.16-.22.26-.24.07 0 .17.12.32.24z"></path>
  </symbol>

  <symbol id="gain_domination_bubble" viewBox="0 0 32 32">
    <title>gain_domination_bubble</title>
     <path fill="green" d="M6.83.67h18.34V2.5h.4c1.5 0 3 .02 4.5 0 .34 0 .6.1.82.33.56.56.87 1.25.9 2.02.07 2.43-.38 4.75-1.77 6.8-1.52 2.23-3.67 2.97-6.3 2.54-.27-.06-.6-.23-.84-.14-.22.1-.33.44-.48.68-.8 1.18-1.74 2.2-3.12 2.7-.07.03-.14.18-.14.27-.02.58 0 1.15 0 1.74h-6.3c0-.53-.02-1.05 0-1.57 0-.28-.06-.4-.34-.52-1.22-.47-2.08-1.38-2.8-2.43-.16-.2-.32-.43-.44-.66-.1-.2-.22-.26-.46-.2-1.32.32-2.64.38-3.94-.08-1.58-.56-2.66-1.7-3.4-3.14C.47 8.94.1 6.88.2 4.74c.04-.77.37-1.44.96-1.97.2-.18.4-.26.68-.26 1.55.02 3.1 0 4.66 0h.3V.68zm18.23 3.48c-.2 2.7-.2 5.4-1.3 7.93 1.33.52 2.56.52 3.72-.3.74-.52 1.22-1.25 1.53-2.08.62-1.64.74-3.34.7-5.07 0-.16-.03-.3-.05-.48h-4.6zM8.2 12.08l-.1-.32c-.23-.8-.55-1.58-.66-2.4-.22-1.62-.33-3.26-.47-4.9-.02-.23-.06-.33-.3-.33H2.62c-.24 0-.34.07-.33.32.03.8 0 1.6.08 2.38.08 1.14.3 2.25.8 3.3.92 2 3.04 2.84 5.03 1.95zM7.68 28.66c.73-.05 1.28-.43 1.8-.85 2.25-1.75 3.47-4.04 3.64-6.9l.03-.23h5.7c.16 1.74.44 3.46 1.52 4.87 1.04 1.36 2.13 2.7 3.94 3.18v3H7.7v-3.06z"></path>
  </symbol>

  <symbol id="lose_domination_bubble" viewBox="0 0 32 32">
    <title>lose_domination_bubble</title>
     <path fill="red" d="M6.83.67h18.34V2.5h.4c1.5 0 3 .02 4.5 0 .34 0 .6.1.82.33.56.56.87 1.25.9 2.02.07 2.43-.38 4.75-1.77 6.8-1.52 2.23-3.67 2.97-6.3 2.54-.27-.06-.6-.23-.84-.14-.22.1-.33.44-.48.68-.8 1.18-1.74 2.2-3.12 2.7-.07.03-.14.18-.14.27-.02.58 0 1.15 0 1.74h-6.3c0-.53-.02-1.05 0-1.57 0-.28-.06-.4-.34-.52-1.22-.47-2.08-1.38-2.8-2.43-.16-.2-.32-.43-.44-.66-.1-.2-.22-.26-.46-.2-1.32.32-2.64.38-3.94-.08-1.58-.56-2.66-1.7-3.4-3.14C.47 8.94.1 6.88.2 4.74c.04-.77.37-1.44.96-1.97.2-.18.4-.26.68-.26 1.55.02 3.1 0 4.66 0h.3V.68zm18.23 3.48c-.2 2.7-.2 5.4-1.3 7.93 1.33.52 2.56.52 3.72-.3.74-.52 1.22-1.25 1.53-2.08.62-1.64.74-3.34.7-5.07 0-.16-.03-.3-.05-.48h-4.6zM8.2 12.08l-.1-.32c-.23-.8-.55-1.58-.66-2.4-.22-1.62-.33-3.26-.47-4.9-.02-.23-.06-.33-.3-.33H2.62c-.24 0-.34.07-.33.32.03.8 0 1.6.08 2.38.08 1.14.3 2.25.8 3.3.92 2 3.04 2.84 5.03 1.95zM7.68 28.66c.73-.05 1.28-.43 1.8-.85 2.25-1.75 3.47-4.04 3.64-6.9l.03-.23h5.7c.16 1.74.44 3.46 1.52 4.87 1.04 1.36 2.13 2.7 3.94 3.18v3H7.7v-3.06z"></path>
  </symbol>

  <symbol id="gain_negative_bubble" viewBox="0 0 32 32">
    <title>gain_negative_bubble</title>
     <path fill="red" fill-rule="evenodd" clip-rule="evenodd" d="M14.37.58h3.25l.33.05c.8.1 1.6.15 2.38.32 4.46.97 8.66 4.62 9.04 10.73.1 1.5-.27 2.9-.93 4.24-.25.5-.38 1.04-.39 1.6 0 .9.2 1.76.76 2.5.6.8.86 1.7.63 2.67-.32 1.35-1.34 2.32-2.83 2.24l-.54.02c-1.1 0-1.76.6-2.1 1.6-.07.2-.15.38-.2.58l-.35 1.6c-.14.77-.56 1.3-1.32 1.53-1.17.32-2.34.63-3.52.9-.56.13-1.14.17-1.72.25h-1.7c-.06 0-.14-.05-.22-.05-1.5-.13-2.96-.5-4.4-.88-1.25-.34-1.93-1.05-2.08-2.34-.08-.77-.3-1.54-.7-2.22-.32-.56-.8-.9-1.45-.95-.34-.04-.67-.06-1-.06-1.12 0-1.94-.5-2.45-1.5-.63-1.24-.4-2.4.4-3.52.85-1.22.96-2.56.34-3.88-.94-1.96-1.16-3.96-.75-6.1 1.02-5.28 5.3-8.6 9.82-9.18l1.7-.18zm8.23 15.06v.06c-.3 0-.6-.02-.9 0-.97.08-1.93.23-2.8.7-.7.4-1.2.96-1.27 1.77-.03.42-.02.85.07 1.26.23 1.1.75 2.04 1.8 2.55 1.23.6 2.53.8 3.87.5 1.23-.26 2.2-.9 2.6-2.2.36-1.27.1-2.46-.6-3.55-.35-.53-.86-.86-1.48-.97-.43-.07-.87-.08-1.3-.12zm-13.17.05c-.24 0-.48-.02-.72 0-1.2.02-2.02.64-2.46 1.76-.1.22-.16.45-.22.68-.53 2.1.47 3.86 2.5 4.34 1.12.26 2.2.12 3.3-.2 1.27-.4 2.03-1.28 2.4-2.52.55-1.83-.1-3.1-1.9-3.7-.95-.3-1.92-.38-2.9-.37zm9.3 10.4c.04 0 .06-.02.1-.03-.18-.46-.3-.93-.52-1.36-.33-.7-.73-1.37-1.1-2.05-.1-.13-.17-.26-.27-.37-.22-.26-.5-.38-.83-.24-.05.02-.12.03-.17.02-.55-.1-.76-.06-1.02.4-.5.9-1.02 1.82-1.45 2.77-.17.36-.14.82-.15 1.23 0 .25.14.5.4.6.56.18 1.1.24 1.6-.17.46-.4.93-.42 1.4 0 .08.07.2.13.3.18.86.4 1.74-.1 1.74-.98z"></path>
  </symbol>

  <symbol id="lose_negative_bubble" viewBox="0 0 32 32">
    <title>lose_negative_bubble</title>
     <path fill="green" fill-rule="evenodd" clip-rule="evenodd" d="M14.37.58h3.25l.33.05c.8.1 1.6.15 2.38.32 4.46.97 8.66 4.62 9.04 10.73.1 1.5-.27 2.9-.93 4.24-.25.5-.38 1.04-.39 1.6 0 .9.2 1.76.76 2.5.6.8.86 1.7.63 2.67-.32 1.35-1.34 2.32-2.83 2.24l-.54.02c-1.1 0-1.76.6-2.1 1.6-.07.2-.15.38-.2.58l-.35 1.6c-.14.77-.56 1.3-1.32 1.53-1.17.32-2.34.63-3.52.9-.56.13-1.14.17-1.72.25h-1.7c-.06 0-.14-.05-.22-.05-1.5-.13-2.96-.5-4.4-.88-1.25-.34-1.93-1.05-2.08-2.34-.08-.77-.3-1.54-.7-2.22-.32-.56-.8-.9-1.45-.95-.34-.04-.67-.06-1-.06-1.12 0-1.94-.5-2.45-1.5-.63-1.24-.4-2.4.4-3.52.85-1.22.96-2.56.34-3.88-.94-1.96-1.16-3.96-.75-6.1 1.02-5.28 5.3-8.6 9.82-9.18l1.7-.18zm8.23 15.06v.06c-.3 0-.6-.02-.9 0-.97.08-1.93.23-2.8.7-.7.4-1.2.96-1.27 1.77-.03.42-.02.85.07 1.26.23 1.1.75 2.04 1.8 2.55 1.23.6 2.53.8 3.87.5 1.23-.26 2.2-.9 2.6-2.2.36-1.27.1-2.46-.6-3.55-.35-.53-.86-.86-1.48-.97-.43-.07-.87-.08-1.3-.12zm-13.17.05c-.24 0-.48-.02-.72 0-1.2.02-2.02.64-2.46 1.76-.1.22-.16.45-.22.68-.53 2.1.47 3.86 2.5 4.34 1.12.26 2.2.12 3.3-.2 1.27-.4 2.03-1.28 2.4-2.52.55-1.83-.1-3.1-1.9-3.7-.95-.3-1.92-.38-2.9-.37zm9.3 10.4c.04 0 .06-.02.1-.03-.18-.46-.3-.93-.52-1.36-.33-.7-.73-1.37-1.1-2.05-.1-.13-.17-.26-.27-.37-.22-.26-.5-.38-.83-.24-.05.02-.12.03-.17.02-.55-.1-.76-.06-1.02.4-.5.9-1.02 1.82-1.45 2.77-.17.36-.14.82-.15 1.23 0 .25.14.5.4.6.56.18 1.1.24 1.6-.17.46-.4.93-.42 1.4 0 .08.07.2.13.3.18.86.4 1.74-.1 1.74-.98z"></path>
  </symbol>

  <symbol id="DIncVoteOrder" viewBox="0 0 32 32">
    <title>DIncVoteOrder</title>
    <path fill-rule="evenodd" clip-rule="evenodd" d="M27 19.2h2v1.3h2v1.3H1.2v-1.3h2v-1.3h2v-31h22v31zm-14.7-5.8v5.8h3.2v-5.8h-3.2zm4.5 0v5.8H20v-5.8h-3.2zm-9-22.7V-6h3v-3.3H8zM15.3-6v-3.3h-3.2V-6h3.3zm1.4 0H20v-3.3h-3.2V-6zm4.5 0h3.2v-3.3h-3.2V-6zM11-1.6v-3.2H7.6v3.2H11zm1.2 0h3.2V-5h-3.2v3.2zM16.8-5v3.2H20v-3.2h-3.2zm4.5 0v3.2h3.2v-3.2h-3.2zM11 3V-.2H7.6V3H11zM12 3h3.3V-.2h-3.3V3zm4.6-3.2V3H20V-.2h-3.2zM24.5 3V-.2h-3.2V3h3.2zM11 7.5V4.3H7.6v3.2H11zm4.5-3.2h-3.2v3.2h3.2V4.3zM20 7.5V4.3h-3.2v3.2H20zm1.3-3.2v3.2h3.2V4.3h-3.2zM11 12V9H7.6v3H11zm4.5-3h-3.2v3h3.2V9zM20 9h-3.2v3H20V9zm4.5 0h-3.2v3h3.2V9z"></path>
  <path d="M.4 22.7h3.4c3 0 5 1.8 5 4.3s-2 4.4-5 4.4H.3v-8.7zm3.4 6.6c1.5 0 2.4-.8 2.4-2.2 0-1.3-1-2.2-2.4-2.2h-1v4.5h1zM10 22.7h2.4v8.7H10v-8.7zM14 22.7h2.3l3.5 4.6v-4.6h2.4v8.7h-2l-3.8-4.8v4.8H14v-8.7zM23.5 27c0-2.5 2-4.5 4.6-4.5 2 0 3 .8 3.8 1.8l-2 1.5c-.3-.7-1-1-1.8-1-1.2 0-2 1-2 2.2 0 1.4.8 2.4 2 2.4 1 0 1.5-.4 2-1l1.8 1.2c-.8 1.2-2 2-3.8 2-2.5 0-4.5-2-4.5-4.5z"></path>
  </symbol>

  <symbol id="vote_security" viewBox="0 0 32 32">
    <title>vote_security</title>
    <path d="M14 19.7c0 1 1 1.7 2 1.7s2-.8 2-1.7c0-1-.6-1.6-1-1.8l3.4-5.4h7.2c0 1 1 2 2 2 1.3 0 2-1 2-2s-1-2-1.7-2c-.6 0-1 .2-1.2.4L25 4.8 29-1.4c.3.2.6.3 1 .3 1 0 1.7-1 1.7-2s-.6-2-1.8-2c-1 0-2 1-2 2h-7.3L17-8.3c.4-.2 1-.8 1-1.7 0-1-1-1.8-2-1.8s-2 1-2 1.8c0 1 .7 1.5 1.2 1.7L11.7-3H4.5c0-1-1-2-2.2-2-1 0-1.7 1-1.7 2s.8 2 1.6 2c.5 0 .8-.2 1-.4L7 4.8 3.3 11c-.3-.2-.6-.3-1-.3-1 0-1.7 1-1.7 2s.6 2 1.7 2c1.2 0 2.2-1 2.2-2h7.2l3.5 5.2c-.5 0-1 .7-1 1.7zM4 23H.6v8.7H4c3 0 5-1.8 5-4.4C9 24.8 7 23 4 23zm2.4 4.4c0 1.4-1 2.2-2.4 2.2H3v-4.4h1c1.4 0 2.4.8 2.4 2.2zM10.2 23h2.4v8.7h-2.4zM20 27.6L16.4 23h-2.2v8.7h2.4V27l3.7 4.7h2V23H20M30.2 28.6c-.5.7-1 1-2 1-1.2 0-2-1-2-2.2 0-1.3.8-2.4 2-2.4 1 0 1.4.4 2 1l1.7-1.3c-.8-1-2-2-3.8-2-2.6 0-4.6 2-4.6 4.7 0 2.6 2 4.5 4.5 4.5 2 0 3.2-1 4-2l-1.8-1.4z"></path>
  </symbol>

  <symbol id="effect_security_up" viewBox="0 0 32 32">
    <title>effect_security_up</title>
    <path fill="green" d="M14 19.7c0 1 1 1.7 2 1.7s2-.8 2-1.7c0-1-.6-1.6-1-1.8l3.4-5.4h7.2c0 1 1 2 2 2 1.3 0 2-1 2-2s-1-2-1.7-2c-.6 0-1 .2-1.2.4L25 4.8 29-1.4c.3.2.6.3 1 .3 1 0 1.7-1 1.7-2s-.6-2-1.8-2c-1 0-2 1-2 2h-7.3L17-8.3c.4-.2 1-.8 1-1.7 0-1-1-1.8-2-1.8s-2 1-2 1.8c0 1 .7 1.5 1.2 1.7L11.7-3H4.5c0-1-1-2-2.2-2-1 0-1.7 1-1.7 2s.8 2 1.6 2c.5 0 .8-.2 1-.4L7 4.8 3.3 11c-.3-.2-.6-.3-1-.3-1 0-1.7 1-1.7 2s.6 2 1.7 2c1.2 0 2.2-1 2.2-2h7.2l3.5 5.2c-.5 0-1 .7-1 1.7zM4 23H.6v8.7H4c3 0 5-1.8 5-4.4C9 24.8 7 23 4 23zm2.4 4.4c0 1.4-1 2.2-2.4 2.2H3v-4.4h1c1.4 0 2.4.8 2.4 2.2zM10.2 23h2.4v8.7h-2.4zM20 27.6L16.4 23h-2.2v8.7h2.4V27l3.7 4.7h2V23H20M30.2 28.6c-.5.7-1 1-2 1-1.2 0-2-1-2-2.2 0-1.3.8-2.4 2-2.4 1 0 1.4.4 2 1l1.7-1.3c-.8-1-2-2-3.8-2-2.6 0-4.6 2-4.6 4.7 0 2.6 2 4.5 4.5 4.5 2 0 3.2-1 4-2l-1.8-1.4z"></path>
  </symbol>

   <symbol id="effect_security_down" viewBox="0 0 32 32">
    <title>effect_security_down</title>
    <path fill="red" d="M14 19.7c0 1 1 1.7 2 1.7s2-.8 2-1.7c0-1-.6-1.6-1-1.8l3.4-5.4h7.2c0 1 1 2 2 2 1.3 0 2-1 2-2s-1-2-1.7-2c-.6 0-1 .2-1.2.4L25 4.8 29-1.4c.3.2.6.3 1 .3 1 0 1.7-1 1.7-2s-.6-2-1.8-2c-1 0-2 1-2 2h-7.3L17-8.3c.4-.2 1-.8 1-1.7 0-1-1-1.8-2-1.8s-2 1-2 1.8c0 1 .7 1.5 1.2 1.7L11.7-3H4.5c0-1-1-2-2.2-2-1 0-1.7 1-1.7 2s.8 2 1.6 2c.5 0 .8-.2 1-.4L7 4.8 3.3 11c-.3-.2-.6-.3-1-.3-1 0-1.7 1-1.7 2s.6 2 1.7 2c1.2 0 2.2-1 2.2-2h7.2l3.5 5.2c-.5 0-1 .7-1 1.7zM4 23H.6v8.7H4c3 0 5-1.8 5-4.4C9 24.8 7 23 4 23zm2.4 4.4c0 1.4-1 2.2-2.4 2.2H3v-4.4h1c1.4 0 2.4.8 2.4 2.2zM10.2 23h2.4v8.7h-2.4zM20 27.6L16.4 23h-2.2v8.7h2.4V27l3.7 4.7h2V23H20M30.2 28.6c-.5.7-1 1-2 1-1.2 0-2-1-2-2.2 0-1.3.8-2.4 2-2.4 1 0 1.4.4 2 1l1.7-1.3c-.8-1-2-2-3.8-2-2.6 0-4.6 2-4.6 4.7 0 2.6 2 4.5 4.5 4.5 2 0 3.2-1 4-2l-1.8-1.4z"></path>
  </symbol>

  <symbol id="vote_contrat" viewBox="0 0 32 32">
    <title>vote_contrat</title>
    <path d="M30.6 21.5V21 4.7c0-.4 0-.7-.4-1l-11-11-3.2-3h-.2L1.6 4l-.2.7V21.7h10.2V10h8.8v11.5h10.2zM10 8.5V20H3v-.3V5c0-.2 0-.4.2-.5L15.8-8.3l.2-.2.2.3L28.8 4.3c.2.2.3.5.3.8v15.1H22V8.6H10zM3.8 22.6H.4v8.8h3.3c3.2 0 5-2 5-4.4 0-2.6-1.8-4.4-5-4.4zM6.2 27c0 1.4-1 2.2-2.4 2.2h-1v-4.4h1c1.5 0 2.4.8 2.4 2.2zM10 22.6h2.4v8.7H10zM19.8 27.2l-3.5-4.6H14v8.8h2.4v-4.8l3.7 4.8h2.2v-8.8h-2.4M28 29.3c-1.2 0-2-1-2-2.3 0-1.3.8-2.3 2-2.3 1 0 1.5.4 2 1l1.8-1.4c-.8-1-2-1.8-3.7-1.8-2.6 0-4.5 2-4.5 4.5 0 2.6 2 4.5 4.5 4.5 2 0 3-.8 3.8-2L30 28.4c-.5.6-1 1-2 1z"></path>
  </symbol>

  <symbol id="effect_contrat_up" viewBox="0 0 32 32">
    <title>effect_contrat_up</title>
    <path fill="green" d="M30.6 21.5V21 4.7c0-.4 0-.7-.4-1l-11-11-3.2-3h-.2L1.6 4l-.2.7V21.7h10.2V10h8.8v11.5h10.2zM10 8.5V20H3v-.3V5c0-.2 0-.4.2-.5L15.8-8.3l.2-.2.2.3L28.8 4.3c.2.2.3.5.3.8v15.1H22V8.6H10zM3.8 22.6H.4v8.8h3.3c3.2 0 5-2 5-4.4 0-2.6-1.8-4.4-5-4.4zM6.2 27c0 1.4-1 2.2-2.4 2.2h-1v-4.4h1c1.5 0 2.4.8 2.4 2.2zM10 22.6h2.4v8.7H10zM19.8 27.2l-3.5-4.6H14v8.8h2.4v-4.8l3.7 4.8h2.2v-8.8h-2.4M28 29.3c-1.2 0-2-1-2-2.3 0-1.3.8-2.3 2-2.3 1 0 1.5.4 2 1l1.8-1.4c-.8-1-2-1.8-3.7-1.8-2.6 0-4.5 2-4.5 4.5 0 2.6 2 4.5 4.5 4.5 2 0 3-.8 3.8-2L30 28.4c-.5.6-1 1-2 1z"></path>
  </symbol>

  <symbol id="effect_contrat_down" viewBox="0 0 32 32">
    <title>effect_contrat_down</title>
    <path fill="red" d="M30.6 21.5V21 4.7c0-.4 0-.7-.4-1l-11-11-3.2-3h-.2L1.6 4l-.2.7V21.7h10.2V10h8.8v11.5h10.2zM10 8.5V20H3v-.3V5c0-.2 0-.4.2-.5L15.8-8.3l.2-.2.2.3L28.8 4.3c.2.2.3.5.3.8v15.1H22V8.6H10zM3.8 22.6H.4v8.8h3.3c3.2 0 5-2 5-4.4 0-2.6-1.8-4.4-5-4.4zM6.2 27c0 1.4-1 2.2-2.4 2.2h-1v-4.4h1c1.5 0 2.4.8 2.4 2.2zM10 22.6h2.4v8.7H10zM19.8 27.2l-3.5-4.6H14v8.8h2.4v-4.8l3.7 4.8h2.2v-8.8h-2.4M28 29.3c-1.2 0-2-1-2-2.3 0-1.3.8-2.3 2-2.3 1 0 1.5.4 2 1l1.8-1.4c-.8-1-2-1.8-3.7-1.8-2.6 0-4.5 2-4.5 4.5 0 2.6 2 4.5 4.5 4.5 2 0 3-.8 3.8-2L30 28.4c-.5.6-1 1-2 1z"></path>
  </symbol>

  <symbol id="vote_consolidation" viewBox="0 0 32 32">
    <title>vote_consolidation</title>
    <path d="M32.8-9.3H-3.5c-.5 0-.8.3-.8 1v28.1c0 .7.3 1 1 1h36c1 0 1-.2 1-1V6.5-8c0-1 0-1.3-1-1.3zM29-7.5h3.3v5.3H29v-5.3zm3.3 7V5h-10V-.5h10zm-16.6-7h11.6v5.3H15.7v-5.3zm5 7v5c0 .4-.2.5-.5.5H9V-.5h11.6zm-18.4-7H14v5.3H2.2v-5.3zm-5 0H.7v5.3h-3.2v-5.3zm0 7h10V5h-10V-.5zm0 7.3H.6V12h-3.3V7zm10 12.4h-10V14h10V19zm-5-7V6.7H14V12H2.2zm18.3 7H9V14h11.6V19zm-5-7V6.7h11.7V12H15.7zm16.7 7h-10V14h10V19zm0-7H29V6.7h3.3V12zM4 22.7H.6v8.7H4c3 0 5-1.8 5-4.3s-2-4.3-5-4.3zM6.4 27c0 1.5-1 2.3-2.4 2.3H3V25h1c1.4 0 2.4.7 2.4 2zM10.2 22.7h2.4v8.7h-2.4zM20 27.3l-3.6-4.6h-2.2v8.7h2.4v-4.7l3.7 4.7h2v-8.7H20M28.2 29.4c-1.2 0-2-1-2-2.3 0-1.2.8-2.2 2-2.2 1 0 1.4.3 2 1l1.7-1.4c-.8-1-2-2-3.8-2-2.6 0-4.6 2-4.6 4.7s2 4.6 4.5 4.6c2 0 3.2-.8 4-2l-1.8-1.3c-.5.7-1 1-2 1z"></path>
  </symbol>

  <symbol id="effect_consolidation_up" viewBox="0 0 32 32">
    <title>effect_consolidation_up</title>
    <path fill="green" d="M32.8-9.3H-3.5c-.5 0-.8.3-.8 1v28.1c0 .7.3 1 1 1h36c1 0 1-.2 1-1V6.5-8c0-1 0-1.3-1-1.3zM29-7.5h3.3v5.3H29v-5.3zm3.3 7V5h-10V-.5h10zm-16.6-7h11.6v5.3H15.7v-5.3zm5 7v5c0 .4-.2.5-.5.5H9V-.5h11.6zm-18.4-7H14v5.3H2.2v-5.3zm-5 0H.7v5.3h-3.2v-5.3zm0 7h10V5h-10V-.5zm0 7.3H.6V12h-3.3V7zm10 12.4h-10V14h10V19zm-5-7V6.7H14V12H2.2zm18.3 7H9V14h11.6V19zm-5-7V6.7h11.7V12H15.7zm16.7 7h-10V14h10V19zm0-7H29V6.7h3.3V12zM4 22.7H.6v8.7H4c3 0 5-1.8 5-4.3s-2-4.3-5-4.3zM6.4 27c0 1.5-1 2.3-2.4 2.3H3V25h1c1.4 0 2.4.7 2.4 2zM10.2 22.7h2.4v8.7h-2.4zM20 27.3l-3.6-4.6h-2.2v8.7h2.4v-4.7l3.7 4.7h2v-8.7H20M28.2 29.4c-1.2 0-2-1-2-2.3 0-1.2.8-2.2 2-2.2 1 0 1.4.3 2 1l1.7-1.4c-.8-1-2-2-3.8-2-2.6 0-4.6 2-4.6 4.7s2 4.6 4.5 4.6c2 0 3.2-.8 4-2l-1.8-1.3c-.5.7-1 1-2 1z"></path>
  </symbol>

  <symbol id="effect_consolidation_down" viewBox="0 0 32 32">
    <title>effect_consolidation_down</title>
    <path fill="red" d="M32.8-9.3H-3.5c-.5 0-.8.3-.8 1v28.1c0 .7.3 1 1 1h36c1 0 1-.2 1-1V6.5-8c0-1 0-1.3-1-1.3zM29-7.5h3.3v5.3H29v-5.3zm3.3 7V5h-10V-.5h10zm-16.6-7h11.6v5.3H15.7v-5.3zm5 7v5c0 .4-.2.5-.5.5H9V-.5h11.6zm-18.4-7H14v5.3H2.2v-5.3zm-5 0H.7v5.3h-3.2v-5.3zm0 7h10V5h-10V-.5zm0 7.3H.6V12h-3.3V7zm10 12.4h-10V14h10V19zm-5-7V6.7H14V12H2.2zm18.3 7H9V14h11.6V19zm-5-7V6.7h11.7V12H15.7zm16.7 7h-10V14h10V19zm0-7H29V6.7h3.3V12zM4 22.7H.6v8.7H4c3 0 5-1.8 5-4.3s-2-4.3-5-4.3zM6.4 27c0 1.5-1 2.3-2.4 2.3H3V25h1c1.4 0 2.4.7 2.4 2zM10.2 22.7h2.4v8.7h-2.4zM20 27.3l-3.6-4.6h-2.2v8.7h2.4v-4.7l3.7 4.7h2v-8.7H20M28.2 29.4c-1.2 0-2-1-2-2.3 0-1.2.8-2.2 2-2.2 1 0 1.4.3 2 1l1.7-1.4c-.8-1-2-2-3.8-2-2.6 0-4.6 2-4.6 4.7s2 4.6 4.5 4.6c2 0 3.2-.8 4-2l-1.8-1.3c-.5.7-1 1-2 1z"></path>
  </symbol>

  <symbol id="robot" viewBox="0 0 32 32">
    <title>robot</title>
    <path d="M24.6 18.3v2.2c0 .3-.3.6-.7.7-.7 0-1.4.2-2 .3-.2 0-.4 0-.5.4l-.8 1.8v.4l1.2 1.6c.2.5.2 1-.2 1.3l-1.5 1.6c-.4.4-.8.4-1.2 0l-1.5-1c-.2-.2-.3-.2-.5 0l-2 .7c-.2 0-.2.2-.3.4l-.3 2c0 .4-.4.7-1 .7h-2c-.6 0-1-.3-1-.8l-.4-2s0-.2-.2-.2l-2-1c-.2 0-.3 0-.4.2l-1.6 1c-.5.4-1 .4-1.3 0L3 27.2c-.4-.5-.4-.8 0-1.3l1-1.7c.2 0 .2-.2 0-.4-.2-.8-.5-1.4-.8-2 0-.3 0-.4-.3-.4-.8 0-1.4-.2-2-.3-.6 0-1-.4-1-1V18c0-.4.4-.7 1-.8l1.8-.3c.2 0 .3-.2.4-.4l.8-2v-.4l-1.2-1.6c-.3-.5-.3-1 0-1.3l1.6-1.5c.4-.4.8-.4 1.3 0l1.5 1c.2.2.3.2.5 0l2-.7s.2 0 .3-.3c0-.7.2-1.3.3-2 0-.5.4-.8 1-.8H14v2.2c0 1 .7 1.8 1.8 2 .8 0 .7.3.3 1-.6.7-.6 1.7.2 2.5l1 1c.6 1 1.6 1 2.6.4h.3c.4-.3.5-.2.5 0 0 .3 0 .6.2 1 .2.7 1 1.2 1.7 1.3h2.2zM7.4 19c0 3 2.2 5.2 5 5.2 2.7 0 5-2.2 5-5 0-2.7-2-5-5-5-2.7 0-5 2-5 5z"></path>
    <path d="M30.4 4.2s0 .3-.2.4l-.7 1V6c0 .4.2.8.4 1.2 0 0 0 .3.2.3l1.2.3c.3 0 .5.3.5.6l-.2 1.5c0 .2-.2.4-.6.4-.4 0-.8 0-1.2.2 0 0-.2 0-.3.2L29 12v.4l.8 1c.2.4.2.7 0 1l-1 .8c-.4.3-.6.3-1 0l-1-.7h-.3c-.4 0-1 .2-1.3.4 0 0-.2 0-.3.2l-.3 1.2c0 .4-.3.5-.7.5h-1.2c-.5-.2-.7-.3-.8-.8V15l-.3-.3-1.3-.5H20l-1 .7c-.3 0-.5 0-.8-.2l-1-1c-.2-.4-.2-.6 0-.8l.8-1v-.4c0-.5-.3-1-.4-1.3l-.3-.3c-.4 0-.8 0-1.2-.2-.3 0-.5-.4-.4-.8V7.8c0-.4 0-.6.6-.7h1.2l.3-.3.6-1.2V5l-.7-1c-.2-.3-.2-.5 0-.8l1-1c.4-.2.6-.2 1 0l1 .8s0 .2.3 0c.3 0 .7-.2 1-.4.3 0 .4-.2.4-.3l.3-1.2c0-.3.3-.4.7-.4h1.4c.3 0 .5.2.5.6 0 .4 0 .8.2 1.2 0 .2 0 .3.2.4.5 0 1 .3 1.3.5h.4l1-.6c.4-.2.6-.2 1 0l.8 1c0 .2 0 .3.2.5zm-10 4.5c0 2 1.5 3.4 3.3 3.4 1.8.2 3.4-1.3 3.4-3.2 0-2-1.3-3.4-3.2-3.4-2 0-3.4 1.4-3.4 3.3z"></path>
  </symbol>
</svg>
