<svg version="1.1" xmlns="http://www.w3.org/2000/svg" xmlns:xlink="http://www.w3.org/1999/xlink" display="none">
  <symbol id="Svg--rules" viewBox="0 0 19.2 20.7">
    <title>Règle du jeu</title>
    <path fill-rule="evenodd" clip-rule="evenodd" d="M11.8 20.7h-.2l-.3-.1-9.3-3c-.7-.2-1.2-.6-1.5-1.2-.6-1.1-.6-2.3 0-3.4.1-.1 0-.2 0-.3-.1-.3-.3-.6-.4-1-.1-.3-.1-.8-.1-1.2 0-1 .3-1.8 1-2.6l2.7-3c1.4-1.5 2.7-3 4.1-4.6.3-.3.6-.4 1-.3l9.4 2.1c.1 0 .2 0 .3.1.7.2.9.7.4 1.3-2.4 2.8-4.8 5.6-7.2 8.5-.3.3-.6.4-1 .3l-6.5-2c-.4-.1-.9-.3-1.5-.5-.5-.1-.9.1-1.1.5-.1.5-.1 1 .1 1.4.1.3.3.4.5.5l9 2.7c.2.1.3 0 .4-.1l5.8-7.2c.1-.1.1-.3.1-.4-.1-.5 0-1 .2-1.5s1-.6 1.3-.1c.2.3.2.5.1.8l-.1.7c.1.4.1.7 0 1.1-.3 1-.4 2 0 3.1.2.4.1.8-.2 1.1l-6.4 7.8c-.1.2-.3.4-.6.5zm5.4-10.3l-.2.2-4.6 5.7c-.3.4-.6.5-1.1.3l-9.2-2.8c-.2-.1-.3 0-.4.2-.2.4-.2.8-.1 1.3.2.4.4.7.9.9 2.9.9 5.8 1.8 8.7 2.8.2 0 .2 0 .3-.1l2-2.4 3.9-4.7c.1-.1.1-.2.1-.2-.1-.5-.2-.9-.3-1.2zm-4.6-5.1c.4 0 .6-.1.7-.3s.3-.4.5-.6c.1-.2.1-.3-.1-.4h-.2l-2.4-.6c-.9-.2-1.7-.4-2.5-.6-.4-.1-.8 0-1.1.3l-.3.3c-.3.4-.2.6.2.7h.1c1.3.3 2.6.6 4 1 .3.1.8.2 1.1.2z"></path>
  </symbol>

  <symbol id="voice_up" viewBox="0 0 32 32">
    <title>Voix au chapitre positives</title>
    <path d="M.3 16.2s9.4-5.1 11.3-14.6c.5-2.6 5.6-2.1 5.1.9-.3 1.9-1.1 6-1.1 6s-.7 2.2 1.3 2.2l12.9.3s2.2.5 2.2 2.5c0 1.4-.7 1.7-2.8 2.7 0 0 2.7.6 2.7 2.6 0 1.4-.7 1.9-3.4 2.8 0 0 1.9.7 1.9 2.6 0 1.7-1.5 2.3-3.4 2.6 0 0 1.6.8 1.5 2.1-.1 1.3-.7 2.6-4 2.8-16.4 1.3-24.5-3.5-24.5-3.5l.3-12z"></path>
  </symbol>

  <symbol id="voice_down" viewBox="0 0 32 32">
    <title>Voix au chapitre négatives</title>
    <path d="M.3 15.8s9.4 5.1 11.3 14.6c.5 2.6 5.6 2.1 5.1-.9-.3-1.9-1.1-6-1.1-6s-.7-2.2 1.3-2.2 12.9-.2 12.9-.2 2.2-.5 2.2-2.5c0-1.4-.7-1.7-2.8-2.7 0 0 2.7-.6 2.7-2.6 0-1.4-.7-1.9-3.4-2.8 0 0 1.9-.7 1.9-2.6 0-1.7-1.5-2.3-3.4-2.6 0 0 1.6-.8 1.5-2.1-.1-1.3-.7-2.6-4-2.8-16.4-1.4-24.5 3.4-24.5 3.4l.3 12z"></path>
  </symbol>

  <symbol id="last_effect" viewBox="0 0 32 32">
    <title>Effet dernier</title>
    <path d="M0 0v32l32-32h-32zm8 23.7l-6.6-6.5 1.2-1.2 5.7 5.6 3-3 .9.9-4.2 4.2zm7.8-7.8c-.1 0-.3-.2-.6-.3 0 .7-.2 1.3-.7 1.8-.5.5-1 .8-1.6.8-.6 0-1.1-.2-1.5-.6-.5-.5-.7-1.1-.6-1.8.1-.7.5-1.4 1.2-2.1l.7-.7-.3-.3c-.3-.3-.5-.4-.8-.4-.3 0-.6.1-.9.4-.2.2-.4.5-.4.8 0 .3 0 .5.2.7l-1.1 1.1c-.3-.3-.4-.6-.5-1-.1-.4 0-.8.2-1.3.2-.4.4-.8.8-1.2.6-.6 1.2-.9 1.8-.9.6-.1 1.2.2 1.7.7l2.2 2.2c.4.4.9.7 1.2.9l.1.1-1.1 1.1zm5-5.7c-.1.6-.4 1.2-1 1.8-.4.4-.8.7-1.3.9s-.9.2-1.3.1-.8-.3-1.1-.6l1.1-1.1c.3.2.6.3.9.3.3 0 .6-.2.9-.5.3-.3.5-.6.5-.8 0-.3 0-.5-.2-.7-.2-.2-.4-.3-.7-.2-.3.1-.6.2-1.1.5-.4.3-.9.5-1.2.6-.8.3-1.5.2-2-.3-.4-.4-.6-.9-.5-1.6s.4-1.2.9-1.8c.6-.6 1.2-.9 1.8-1 .6-.1 1.2.1 1.7.6l-1.1 1.1c-.2-.2-.5-.3-.8-.3-.3 0-.6.2-.8.4-.2.2-.4.5-.4.8 0 .3 0 .5.2.7.2.2.4.2.6.2.2 0 .6-.2 1.1-.6s1-.6 1.3-.7c.4-.1.7-.1 1-.1s.6.2.8.5c.6.6.8 1.2.7 1.8zm.8-2.8l-2.8-2.8-.8.9-.8-.8.8-.8-1.2-1.2 1.1-1.1 1.2 1.2.9-.9.8.8-.9.9 2.7 2.7c.2.2.4.3.5.3.2 0 .3-.1.5-.3l.3-.4.8.8c-.2.3-.4.6-.6.8-.7.9-1.6.9-2.5-.1zM13.3 13.8l-.6.6c-.4.4-.6.8-.7 1.1-.1.3 0 .6.3.9.2.2.4.3.7.3.3 0 .5-.1.7-.4.2-.2.4-.5.5-.8s.1-.6 0-.9l-.9-.8z"></path>
  </symbol>
  <symbol id="first_effect" viewBox="0 0 32 32">
    <title>first_effect</title>
    <path d="M0 0v32l32-32h-32zm8.3 21.5h-2.4v-16.6h-.1l-3.3 1.8-.5-2 4.1-2.2h2.2v19zm4.8-12.3c-.7 0-1.3-.2-1.7-.4l.3-.9c.3.2.9.4 1.5.4.8 0 1.2-.4 1.2-.9s-.3-.8-1.2-1.1c-1.1-.4-1.6-1-1.6-1.8 0-1 .8-1.8 2.1-1.8.6 0 1.2.2 1.5.4l-.3.8c-.2-.2-.7-.4-1.3-.4-.7 0-1 .4-1 .8 0 .5.4.7 1.2 1.1 1.1.4 1.6 1 1.6 1.9 0 1.2-.9 1.9-2.3 1.9zm6-.9c.3 0 .5 0 .7-.1l.1.8c-.2.1-.6.2-1 .2-.5 0-1-.2-1.2-.5-.3-.3-.4-.9-.4-1.6v-3.4h-1v-.8h1v-1.5l1.1-.3v1.8h1.6v.9h-1.6v3.4c-.2.7 0 1.1.7 1.1z"></path>
  </symbol>

  <symbol id="crash_effect" viewBox="0 0 32 32">
    <title>crash_effect</title>
    <path fill-rule="evenodd" clip-rule="evenodd" d="M23 19.3l8.8 11.5-.1.1-10.9-7.5-.2 4.1-2.4-2.9-4.6 6.2-.2-6.8-12 2.7-.1-.1 10-7.7-4.5.3-.1-.1 3.9-2.3-10.4-5.6.1-.1 13 2.9-3.3-3.5 3.5.6-3.3-10 .1-.1 8.3 8.7 1.8-2.6.4 3.7 6-7.1v.3l-4.2 10.7 7.5-.8.1.1-6.2 2.7 5.3 3.6-.1.1-6.2-1.1z"></path>
  </symbol>

  <symbol id="ope_sabotage" viewBox="0 0 32 32">
    <title>ope_sabotage</title>
    <path d="M29.5 12.3l-1.6-1.5c-.2-.2-.3-.6 0-.8l1.7-1.7c.2-.2.3-.6.1-.9l-1.1-1.6c-.2-.3-.6-.5-.9-.5h-1.5c-.3 0-.6-.3-.6-.6v-2.6c0-.3-.2-.7-.5-.8l-1.4-.6c-.3-.1-.8-.1-1 .1l-1.8 1.4c-.3.2-.7.2-.9 0l-2.6-2c-.3-.2-.7-.2-1-.1l-1.3.7c-.3.2-.5.6-.5.9v1.3c0 .3-.2.7-.5.8l-2.3 1c-.3.1-.5.5-.5.8v.8c0 .3.2.8.4 1l1 .9c.2.2.6.2.9 0v-.3c.2-.2.3-.6.1-.9l-.5-.7c-.2-.3-.1-.6.2-.6l2.3-.7c.3-.1.6-.4.6-.8l.1-1.8c0-.3.2-.4.5-.2l3 2.9c.2.2.6.2.9 0l2.4-2.4c.2-.2.4-.1.4.2l.1 3.8c0 .3.3.6.6.6h2.6c.3 0 .4.2.2.4l-2.5 2.6c-.2.2-.2.6.1.8l2.4 1.8c.3.2.2.4-.1.5l-4.5 1.5c-.3.1-.5.4-.4.7l.4 1.1c.1.3.5.5.8.4l6-1.9c.3-.1.6-.5.6-.8v-1.2c0-.4-.2-.8-.4-1zM19.2 16.5c.9-.9 1.5-2.2 1.5-3.6v-.5c0-1.9-1-3.5-2.5-4.4-.8 0-1.3.7-1.4 1.4 1.1.6 1.8 1.8 1.8 3.2 0 .9-.3 1.7-.8 2.3l-1.5-1.5c-.7-.7-1.8-.7-2.5-.1-.2.2-.3.4-.4.6-.7-.2-1.4-.3-2.2-.3-5 0-9.1 4.1-9.1 9.1s4.1 9.1 9.1 9.1 9.1-4.1 9.1-9.1c0-.8-.1-1.5-.3-2.3.2-.1.4-.2.5-.4.7-.7.6-1.8-.1-2.5l-1.2-1zm-7.7 13.3c-.4 0-.7.1-1-.1-.3-.2-.4-.6-.4-.9 0-.3 0-.6.2-.7.3-.3.9-.2.9-.2 2.9-.2 4.9-2.3 5.1-5v-.8c.2-.2.5-.3.9-.3s.7.2 1 .4c.1.3.1.7.1 1.1 0 3.5-3.1 6.5-6.8 6.5z"></path>
  </symbol>

  <symbol id="ope_sabotage_fail" viewBox="0 0 32 32">
    <title>ope_sabotage_fail</title>
    <path d="M29.5 12.3l-1.6-1.5c-.2-.2-.3-.6 0-.8l1.7-1.7c.2-.2.3-.6.1-.9l-1.1-1.6c-.2-.3-.6-.5-.9-.5h-1.5c-.3 0-.6-.3-.6-.6v-2.6c0-.3-.2-.7-.5-.8l-1.4-.6c-.3-.1-.8-.1-1 .1l-1.8 1.4c-.3.2-.7.2-.9 0l-2.6-2c-.3-.2-.7-.2-1-.1l-1.3.7c-.3.2-.5.6-.5.9v1.3c0 .3-.2.7-.5.8l-2.3 1c-.3.1-.5.5-.5.8v.8c0 .3.2.8.4 1l1 .9c.2.2.6.2.9 0v-.3c.2-.2.3-.6.1-.9l-.5-.7c-.2-.3-.1-.6.2-.6l2.3-.7c.3-.1.6-.4.6-.8l.1-1.8c0-.3.2-.4.5-.2l3 2.9c.2.2.6.2.9 0l2.4-2.4c.2-.2.4-.1.4.2l.1 3.8c0 .3.3.6.6.6h2.6c.3 0 .4.2.2.4l-2.5 2.6c-.2.2-.2.6.1.8l2.4 1.8c.3.2.2.4-.1.5l-4.5 1.5c-.3.1-.5.4-.4.7l.4 1.1c.1.3.5.5.8.4l6-1.9c.3-.1.6-.5.6-.8v-1.2c0-.4-.2-.8-.4-1zM19.2 16.5c.9-.9 1.5-2.2 1.5-3.6v-.5c0-1.9-1-3.5-2.5-4.4-.8 0-1.3.7-1.4 1.4 1.1.6 1.8 1.8 1.8 3.2 0 .9-.3 1.7-.8 2.3l-1.5-1.5c-.7-.7-1.8-.7-2.5-.1-.2.2-.3.4-.4.6-.7-.2-1.4-.3-2.2-.3-5 0-9.1 4.1-9.1 9.1s4.1 9.1 9.1 9.1 9.1-4.1 9.1-9.1c0-.8-.1-1.5-.3-2.3.2-.1.4-.2.5-.4.7-.7.6-1.8-.1-2.5l-1.2-1zm-7.7 13.3c-.4 0-.7.1-1-.1-.3-.2-.4-.6-.4-.9 0-.3 0-.6.2-.7.3-.3.9-.2.9-.2 2.9-.2 4.9-2.3 5.1-5v-.8c.2-.2.5-.3.9-.3s.7.2 1 .4c.1.3.1.7.1 1.1 0 3.5-3.1 6.5-6.8 6.5z"></path>
    <polygon fill="red" points="31.9,29.5 18,15.7 31.9,2 29.8,0 16,13.7 2.1,0 0.1,2 13.9,15.7 0,29.5 2,31.5 16,17.7 29.9,31.5 "/>
  </symbol>

  <symbol id="ope_datasteal_down" viewBox="0 0 32 32">
    <title>ope_datasteal_down</title>
    <path fill="red" d="M15.2 2.7h3v7h-3zM30.8 24.8l-3.3-2.8 4.6-2.3-5.2-.7 4.6-3.4-5.2 1.1v-.1l1-5.6-1 1.1v-5.9c0-3.6-3.8-5.7-5.8-5.7h-17c-1.9.1-3.5 1.6-3.5 3.5v19.3c0 1.9 1.6 3.5 3.5 3.5h11l-1.3 1.3 2.6-1.3h3.8l-1.5 4.6 4.1-4.6h.6c.4 0 .9-.1 1.3-.2l4.9 3.5-3-5.7v-.1l4.8.5zm-25.6-21.9c0-.6.5-1.2 1.2-1.2h12.6c.6 0 1.2.5 1.2 1.2v6.7c0 .6-.5 1.2-1.2 1.2h-12.7c-.6 0-1.2-.5-1.2-1.2v-6.7zm10.4 22.7h-11.3c-.6 0-1.2-.5-1.2-1.2v-9.6c0-.6.5-1.2 1.2-1.2h11.3l2.9 4.2-4.9-.3 4 3-6.9 1.4 7.5 1.1-2.6 2.6zm4.4 0h-1.9l2.3-1.2-.4 1.2zm.8-9.1l-4.2-2.8h4.7l-.5 2.8zm2.4-1l-.6.6-.8-2.5h.2c.6 0 1.2.5 1.2 1.2v.7z"></path>
  </symbol>

  <symbol id="ope_datasteal_up" viewBox="0 0 32 32">
    <title>ope_datasteal_up</title>
    <path fill="green" d="M15.2 2.7h3v7h-3zM30.8 24.8l-3.3-2.8 4.6-2.3-5.2-.7 4.6-3.4-5.2 1.1v-.1l1-5.6-1 1.1v-5.9c0-3.6-3.8-5.7-5.8-5.7h-17c-1.9.1-3.5 1.6-3.5 3.5v19.3c0 1.9 1.6 3.5 3.5 3.5h11l-1.3 1.3 2.6-1.3h3.8l-1.5 4.6 4.1-4.6h.6c.4 0 .9-.1 1.3-.2l4.9 3.5-3-5.7v-.1l4.8.5zm-25.6-21.9c0-.6.5-1.2 1.2-1.2h12.6c.6 0 1.2.5 1.2 1.2v6.7c0 .6-.5 1.2-1.2 1.2h-12.7c-.6 0-1.2-.5-1.2-1.2v-6.7zm10.4 22.7h-11.3c-.6 0-1.2-.5-1.2-1.2v-9.6c0-.6.5-1.2 1.2-1.2h11.3l2.9 4.2-4.9-.3 4 3-6.9 1.4 7.5 1.1-2.6 2.6zm4.4 0h-1.9l2.3-1.2-.4 1.2zm.8-9.1l-4.2-2.8h4.7l-.5 2.8zm2.4-1l-.6.6-.8-2.5h.2c.6 0 1.2.5 1.2 1.2v.7z"></path>
  </symbol>

  <symbol id="datastealorder" viewBox="0 0 32 32">
    <title>datastealorder</title>
    <path d="M15.2 2.7h3v7h-3zM30.8 24.8l-3.3-2.8 4.6-2.3-5.2-.7 4.6-3.4-5.2 1.1v-.1l1-5.6-1 1.1v-5.9c0-3.6-3.8-5.7-5.8-5.7h-17c-1.9.1-3.5 1.6-3.5 3.5v19.3c0 1.9 1.6 3.5 3.5 3.5h11l-1.3 1.3 2.6-1.3h3.8l-1.5 4.6 4.1-4.6h.6c.4 0 .9-.1 1.3-.2l4.9 3.5-3-5.7v-.1l4.8.5zm-25.6-21.9c0-.6.5-1.2 1.2-1.2h12.6c.6 0 1.2.5 1.2 1.2v6.7c0 .6-.5 1.2-1.2 1.2h-12.7c-.6 0-1.2-.5-1.2-1.2v-6.7zm10.4 22.7h-11.3c-.6 0-1.2-.5-1.2-1.2v-9.6c0-.6.5-1.2 1.2-1.2h11.3l2.9 4.2-4.9-.3 4 3-6.9 1.4 7.5 1.1-2.6 2.6zm4.4 0h-1.9l2.3-1.2-.4 1.2zm.8-9.1l-4.2-2.8h4.7l-.5 2.8zm2.4-1l-.6.6-.8-2.5h.2c.6 0 1.2.5 1.2 1.2v.7z"></path>
  </symbol>


  <symbol id="ope_datasteal_fail_up" viewBox="0 0 32 32">
    <title>ope_datasteal_fail_up</title>
    <path fill="green" d="M15.2 2.7h3v7h-3zM30.8 24.8l-3.3-2.8 4.6-2.3-5.2-.7 4.6-3.4-5.2 1.1v-.1l1-5.6-1 1.1v-5.9c0-3.6-3.8-5.7-5.8-5.7h-17c-1.9.1-3.5 1.6-3.5 3.5v19.3c0 1.9 1.6 3.5 3.5 3.5h11l-1.3 1.3 2.6-1.3h3.8l-1.5 4.6 4.1-4.6h.6c.4 0 .9-.1 1.3-.2l4.9 3.5-3-5.7v-.1l4.8.5zm-25.6-21.9c0-.6.5-1.2 1.2-1.2h12.6c.6 0 1.2.5 1.2 1.2v6.7c0 .6-.5 1.2-1.2 1.2h-12.7c-.6 0-1.2-.5-1.2-1.2v-6.7zm10.4 22.7h-11.3c-.6 0-1.2-.5-1.2-1.2v-9.6c0-.6.5-1.2 1.2-1.2h11.3l2.9 4.2-4.9-.3 4 3-6.9 1.4 7.5 1.1-2.6 2.6zm4.4 0h-1.9l2.3-1.2-.4 1.2zm.8-9.1l-4.2-2.8h4.7l-.5 2.8zm2.4-1l-.6.6-.8-2.5h.2c.6 0 1.2.5 1.2 1.2v.7z"></path>
    <polygon fill="red" points="31.9,29.5 18,15.7 31.9,2 29.8,0 16,13.7 2.1,0 0.1,2 13.9,15.7 0,29.5 2,31.5 16,17.7 29.9,31.5 "/>
  </symbol>

  <symbol id="ope_datasteal_fail_down" viewBox="0 0 32 32">
    <title>ope_datasteal_fail_down</title>
    <path fill="red" d="M31.8 29.6l-4.1-4.1 2.9.3-3.1-2.7 4.3-2.1-4.8-.7 4.3-3.2-4.9 1.1v-.1l.9-5.2-.9 1.1v-5.6c0-.3 0-.5-.1-.8l5.5-5.6-2-2-4.9 4.9c-1.2-1.3-2.9-1.9-4-1.9h-15.8l-2.9-3-2 2 2.2 2.2c-.4.5-.7 1.2-.7 2v18.1c0 1 .5 1.9 1.2 2.5l-2.8 2.8 2 2 4-4h9.2l-1.3 1.4 2.7-1.4h3.4l-1.4 4.4 3.9-4.5h.5c.4 0 .7-.1 1.1-.2l4.7 3.4-.1-.1 1 1 2-2zm-15.8-11.8l1.4 1.4-2.6-.2 1.2-1.2zm7-.1l-.8-2.4h.2c.6 0 1.1.5 1.1 1.1v.7l-.5.6zm-1.2-2.5l-.5 2.8-3.2-2.1-.1-.1.5-.5h3.3zm-14.1-11.2h11.9c.6 0 1.1.5 1.1 1.1v4l-1.9 1.9v-6.1h-2.8v6.5h2.4l-1 1h-2.7l-8-7.9c.2-.3.6-.5 1-.5zm3 8.4h-3c-.6 0-1.1-.5-1.1-1.1v-3l4.1 4.1zm-6.1 3.9c0-.6.5-1.1 1.1-1.1h7.7l.5.5-9.4 9.4v-8.8zm2.7 10.1l7.3-7.3 3.5 2.6-6.4 1.3 7.1 1.1-2.3 2.4h-9.2zm11.6 0l1.9-1-.3 1h-1.6z"></path>
  </symbol>

  <symbol id="ope_protection" viewBox="0 0 32 32">
    <title>ope_protection</title>
    <path d="M.3 6.4c-.1-.9-.4-2 0-2.8.4-.7 1.3-1.1 2.1-1.4 1-.4 2.1-.7 3.2-.8 2.5-.4 5-.8 7.6-1.1 2.8-.4 2.8-.4 5.6 0l1.5.3c3 .5 6 1 9 1.6.9.2 1.9.6 2.4 1.5.4.7.1 1.7 0 2.5l-.3 1.5c-.5 3.9-1 7.8-1.4 11.7-.3 2.1-1.2 3.8-2.9 5l-10.5 7.2-.6.4-.6-.4c-3.7-2.5-7.4-5-10.9-7.7-1-.7-1.8-2-2.1-3.1-.6-2.2-.9-4.5-1.2-6.8-.4-2.5-.6-5-.9-7.6zm15.7-3.2l-10.8 1.5c-1.2.2-1.8 1-1.6 2.2.4 3.8.8 7.6 1.3 11.4.2 1.5.6 2.9 1.9 3.9 2.6 1.9 5.2 3.8 7.8 5.6.9.7 1.9.7 2.9 0 2.6-1.9 5.3-3.7 7.8-5.7.8-.7 1.5-1.9 1.7-2.9.6-4 1-8 1.5-12 .2-1.4-.4-2.3-1.8-2.5l-10.7-1.5zM16 5.6c2.8.4 5.5.7 8.2 1.1 1.2.2 1.8.9 1.6 2.1-.4 3-.7 6-1.2 9-.2.9-.7 2-1.4 2.6-1.8 1.5-3.8 2.9-5.7 4.3-1 .7-2.1.6-3.1-.1l-3-2.1c-2.7-1.7-4.2-3.9-4.4-7.1-.1-2.2-.5-4.4-.7-6.7-.1-1.1.3-1.8 1.5-2 2.6-.4 5.4-.8 8.2-1.1z"></path>
  </symbol>

  <symbol id="ope_extraction_up" viewBox="0 0 32 32">
    <title>ope_extraction_up</title>
    <path fill="green" d="M28.2 25.1v1.3c0 1.4-.3 1.7-1.8 1.7h-14c-1.1 0-1.6-.1-1.7-.8 1.8-.1 3.6-.3 5.3-.6 1.3-.3 2.9-.7 3.2-2.1.1-.5.1-1 0-1.4-.4-2.1-2.6-2.9-4.4-3.7l-1.4-.6c-1.5-.6-1.8-1.7-.8-2.9 1.1-1.4 1.8-3 2.1-4.7.4-2.3-.6-4.7-2.4-5.7-.5-.3-1.1-.5-1.6-.6.1-.8.5-.9 1.7-.9h12.8c2.9 0 3-.3 3 3.1 0 1.8.2 3.5 2.1 3.5v-4.3c0-2.1.1-4.4-2.5-4.4h-16.9c-2.2 0-2.4 0-2.5 3.1-.6.1-1.4.4-2 1-1.9 1.6-2.2 3.9-1.5 6.2.4 1.3 1.2 2.6 1.9 3.8.7 1.2.6 2.1-.7 2.7-1.4.7-2.8 1.3-4.1 2.2-.8.5-1.5 1.3-1.8 2.2-.2.5-.1.9 0 1.4.3 1.5 1.9 1.8 3.2 2.1 1.8.3 3.5.5 5.3.6 0 3 .3 3 2.5 3h16.9c1.3 0 2.3-1.3 2.4-2.7v-6c-2.1 0-2.3 1.7-2.3 3.5zM22.8 10v2.9h-6.1000000000000005c-1.2 0-1.6.4-1.6 1.6v3.3c0 1.2.4 1.6 1.6 1.6h6.1v2.9c0 .3.3.7.5.9.2.1.6-.1.8-.3 2.6-2.2 5.1-4.4 7.8-6.7l-8-6.9c-.5-.6-1-.2-1.1.7z"></path>
  </symbol>

  <symbol id="extractionorder" viewBox="0 0 32 32">
    <title>extractionorder</title>
    <path d="M28.2 25.1v1.3c0 1.4-.3 1.7-1.8 1.7h-14c-1.1 0-1.6-.1-1.7-.8 1.8-.1 3.6-.3 5.3-.6 1.3-.3 2.9-.7 3.2-2.1.1-.5.1-1 0-1.4-.4-2.1-2.6-2.9-4.4-3.7l-1.4-.6c-1.5-.6-1.8-1.7-.8-2.9 1.1-1.4 1.8-3 2.1-4.7.4-2.3-.6-4.7-2.4-5.7-.5-.3-1.1-.5-1.6-.6.1-.8.5-.9 1.7-.9h12.8c2.9 0 3-.3 3 3.1 0 1.8.2 3.5 2.1 3.5v-4.3c0-2.1.1-4.4-2.5-4.4h-16.9c-2.2 0-2.4 0-2.5 3.1-.6.1-1.4.4-2 1-1.9 1.6-2.2 3.9-1.5 6.2.4 1.3 1.2 2.6 1.9 3.8.7 1.2.6 2.1-.7 2.7-1.4.7-2.8 1.3-4.1 2.2-.8.5-1.5 1.3-1.8 2.2-.2.5-.1.9 0 1.4.3 1.5 1.9 1.8 3.2 2.1 1.8.3 3.5.5 5.3.6 0 3 .3 3 2.5 3h16.9c1.3 0 2.3-1.3 2.4-2.7v-6c-2.1 0-2.3 1.7-2.3 3.5zM22.8 10v2.9h-6.1000000000000005c-1.2 0-1.6.4-1.6 1.6v3.3c0 1.2.4 1.6 1.6 1.6h6.1v2.9c0 .3.3.7.5.9.2.1.6-.1.8-.3 2.6-2.2 5.1-4.4 7.8-6.7l-8-6.9c-.5-.6-1-.2-1.1.7z"></path>
  </symbol>

  <symbol id="ope_extraction_down" viewBox="0 0 32 32">
    <title>ope_extraction_down</title>
    <path fill="red" d="M28.2 25.1v1.3c0 1.4-.3 1.7-1.8 1.7h-14c-1.1 0-1.6-.1-1.7-.8 1.8-.1 3.6-.3 5.3-.6 1.3-.3 2.9-.7 3.2-2.1.1-.5.1-1 0-1.4-.4-2.1-2.6-2.9-4.4-3.7l-1.4-.6c-1.5-.6-1.8-1.7-.8-2.9 1.1-1.4 1.8-3 2.1-4.7.4-2.3-.6-4.7-2.4-5.7-.5-.3-1.1-.5-1.6-.6.1-.8.5-.9 1.7-.9h12.8c2.9 0 3-.3 3 3.1 0 1.8.2 3.5 2.1 3.5v-4.3c0-2.1.1-4.4-2.5-4.4h-16.9c-2.2 0-2.4 0-2.5 3.1-.6.1-1.4.4-2 1-1.9 1.6-2.2 3.9-1.5 6.2.4 1.3 1.2 2.6 1.9 3.8.7 1.2.6 2.1-.7 2.7-1.4.7-2.8 1.3-4.1 2.2-.8.5-1.5 1.3-1.8 2.2-.2.5-.1.9 0 1.4.3 1.5 1.9 1.8 3.2 2.1 1.8.3 3.5.5 5.3.6 0 3 .3 3 2.5 3h16.9c1.3 0 2.3-1.3 2.4-2.7v-6c-2.1 0-2.3 1.7-2.3 3.5zM22.8 10v2.9h-6.1000000000000005c-1.2 0-1.6.4-1.6 1.6v3.3c0 1.2.4 1.6 1.6 1.6h6.1v2.9c0 .3.3.7.5.9.2.1.6-.1.8-.3 2.6-2.2 5.1-4.4 7.8-6.7l-8-6.9c-.5-.6-1-.2-1.1.7z"></path>
  </symbol>

  <symbol id="ope_extraction_fail_up" viewBox="0 0 32 32">
    <title>ope_extraction_fail_up</title>
    <path fill="green" d="M28.2 25.1v1.3c0 1.4-.3 1.7-1.8 1.7h-14c-1.1 0-1.6-.1-1.7-.8 1.8-.1 3.6-.3 5.3-.6 1.3-.3 2.9-.7 3.2-2.1.1-.5.1-1 0-1.4-.4-2.1-2.6-2.9-4.4-3.7l-1.4-.6c-1.5-.6-1.8-1.7-.8-2.9 1.1-1.4 1.8-3 2.1-4.7.4-2.3-.6-4.7-2.4-5.7-.5-.3-1.1-.5-1.6-.6.1-.8.5-.9 1.7-.9h12.8c2.9 0 3-.3 3 3.1 0 1.8.2 3.5 2.1 3.5v-4.3c0-2.1.1-4.4-2.5-4.4h-16.9c-2.2 0-2.4 0-2.5 3.1-.6.1-1.4.4-2 1-1.9 1.6-2.2 3.9-1.5 6.2.4 1.3 1.2 2.6 1.9 3.8.7 1.2.6 2.1-.7 2.7-1.4.7-2.8 1.3-4.1 2.2-.8.5-1.5 1.3-1.8 2.2-.2.5-.1.9 0 1.4.3 1.5 1.9 1.8 3.2 2.1 1.8.3 3.5.5 5.3.6 0 3 .3 3 2.5 3h16.9c1.3 0 2.3-1.3 2.4-2.7v-6c-2.1 0-2.3 1.7-2.3 3.5zM22.8 10v2.9h-6.1000000000000005c-1.2 0-1.6.4-1.6 1.6v3.3c0 1.2.4 1.6 1.6 1.6h6.1v2.9c0 .3.3.7.5.9.2.1.6-.1.8-.3 2.6-2.2 5.1-4.4 7.8-6.7l-8-6.9c-.5-.6-1-.2-1.1.7z"></path>
    <polygon fill="red" points="31.9,29.5 18,15.7 31.9,2 29.8,0 16,13.7 2.1,0 0.1,2 13.9,15.7 0,29.5 2,31.5 16,17.7 29.9,31.5 "/>
  </symbol>

  <symbol id="ope_extraction_fail_down" viewBox="0 0 32 32">
    <title>ope_extraction_fail_down</title>
    <path fill="red" d="M32 29.9l-1.8-1.8.1-.6v-6c-1.9 0-2.1 1.7-2.1 3.5v1.2l-3.7-3.7c2.5-2.1 4.9-4.2 7.5-6.4-2.5-2.2-5-4.3-7.5-6.4l3.7-3.7v1.1c0 1.8.2 3.5 2.1 3.5v-4.3c0-.8 0-1.7-.1-2.4l1.8-1.8-2.1-2.1-1.8 1.8h-17.099999999999998c-2.2 0-2.4 0-2.5 3.1-.4.1-.7.2-1.1.4l-5.3-5.3-2.1 2.1 5.2 5.2c-.9 1.4-.9 3.1-.4 4.8.5 1.4 1.2 2.7 2 3.9.7 1.2.6 2.1-.7 2.7-1.4.7-2.8 1.3-4.1 2.2-.8.5-1.5 1.3-1.8 2.2-.2.5-.1.9 0 1.4.2 1.5 1.8 1.8 3.1 2.1l-3.3 3.3 2.1 2.1 4.9-4.9 1.6.1c0 3 .3 3 2.5 3h17.099999999999998l1.8 1.8 2-2.1zm-10.7-10.6h1.5v1.5l-1.5-1.5zm-9.1-1.6c-.2-.5-.1-1.1.5-1.8l.5-.7.8.8-1.8 1.7zm10.6-5h-1.5l1.5-1.5v1.5zm-10.3-8.7h13.5l-8.8 8.8h-.5c-.8 0-1.2.1-1.4.5l-.8-.8.3-1.2c.4-2.3-.6-4.7-2.4-5.7-.5-.3-1.1-.5-1.6-.6.1-.9.5-1 1.7-1zm0 24c-1.1 0-1.6-.1-1.7-.8 1.8-.1 3.6-.3 5.3-.6 1.3-.3 2.9-.7 3.2-2.1.1-.5.1-1 0-1.4-.4-2.1-2.6-2.9-4.4-3.7h-.1l.6-.6c.2.4.6.5 1.4.5h.5l8.7 8.7h-13.5z"></path>
  </symbol>

  <symbol id="market_hand_up" viewBox="0 0 32 32">
    <title>market_hand_up</title>
    <path fill="green" d="M19 29.9c.2-1 .4-2 .7-3 .7-3 1.3-5.9 1.9-8.9.1-.2.1-.3.4-.4l9.8-.4h.2l-.5 2.3c-.7 3.1-1.4 6.2-2.1 9.2-.1.3-.1.4-.4.4l-9.6.7c-.1.1-.2.1-.4.1zm2.5-3c0 .9.5 1.3 1.1 1 .7-.3 1.2-1.2 1-1.9-.1-.6-.6-.9-1.2-.6-.6.3-.9.9-.9 1.5zm3.4-6.4c0-.5-.2-.9-.4-1-.4-.2-.7-.1-1 .2-.5.4-.8 1-.7 1.6 0 .7.7 1.1 1.3.7.5-.4.8-.9.8-1.5zm-.4 3.3c0 .4.1.8.4 1 .4.2.7.1 1-.2.5-.4.8-1 .7-1.6-.1-.7-.6-1-1.2-.6-.5.3-.8.8-.9 1.4zm4.1 2.1c0-.3-.1-.7-.4-.8-.3-.2-.6-.1-.9.1-.5.4-.8 1-.8 1.6 0 .7.6 1 1.2.6.6-.3.9-.9.9-1.5zm1.2-5.6c0-.4-.1-.8-.5-.9-.4-.2-.7 0-1 .2-.5.4-.7.9-.6 1.6.1.7.6 1 1.2.6.6-.3.9-.9.9-1.5zM9.4 14.2c-3.1-.7-6.2-1.4-9.4-2 .2-.4.4-.8.6-1.1 1.5-2.9 3-5.7 4.4-8.6.1-.3.3-.3.6-.3 2.9.5 5.8 1 8.7 1.6.1 0 .2.1.4.1-1.8 3.4-3.5 6.8-5.3 10.3zm-2-2.8c0 .5.3.8.8.6.6-.2 1.1-1 1.1-1.6 0-.5-.3-.8-.8-.6-.6.2-1.1.9-1.1 1.6zm-2.4-.5c0 .5.3.7.8.6.6-.1 1.2-1 1.2-1.6 0-.5-.3-.7-.8-.5-.6.1-1.2.9-1.2 1.5zm-.3-1.4c0-.5-.3-.7-.8-.6-.6.2-1.1 1-1.1 1.6 0 .5.3.7.8.6.6-.2 1.2-1 1.1-1.6zm2.7-3.3c0 .5.3.7.8.6.6-.2 1.1-.9 1.1-1.5 0-.5-.3-.8-.8-.6-.6.1-1.1.9-1.1 1.5zm4.3-.6c0-.5-.3-.7-.8-.6-.6.2-1.2 1-1.2 1.6 0 .5.3.8.8.6.6-.2 1.2-1 1.2-1.6zm-4.6-.8c0-.5-.3-.7-.7-.6-.6.2-1.2 1-1.2 1.6 0 .5.3.7.8.6.5-.2 1.1-1 1.1-1.6zM14.3 13c.7.5 1.3.9 1.9 1.4 1.4 1 2.9 2 4.3 3.1.2.1.2.2.2.4l-2.5 11.5s0 .1-.1.2l-.3-.3c-1.8-1.5-3.6-3-5.5-4.5-.2-.2-.3-.3-.2-.6.6-3.2 1.2-6.4 1.8-9.7.2-.5.3-.9.4-1.5zm3.2 12.2l-.1-.7c-.1-.4-.3-.8-.8-.9-.4-.1-.6 0-.7.4-.1.6 0 1.2.5 1.6.2.2.5.3.8.3.1 0 .3-.5.3-.7zm-2.2-4.6c0 .4.1.9.5 1.3s.9.3 1-.2c.1-.5 0-1.1-.3-1.5-.2-.3-.5-.5-.8-.4-.4.1-.4.4-.4.8zm1.1-2.9c0-.6-.1-1.1-.6-1.4-.3-.2-.8-.1-.9.3-.1.5-.1 1.1.3 1.5.2.3.5.5.8.4.4-.2.4-.5.4-.8zM31.7 16.6c-1.9.1-3.8.2-5.6.2l-4.4.2c-.2 0-.4-.1-.5-.2-2.2-1.5-4.3-3-6.4-4.5-.1 0-.1-.1-.2-.2h.3l8.2-.1c.1 0 .3 0 .4.1 2.7 1.4 5.3 2.8 8 4.3 0 0 0 .1.2.2zm-9.6-3.2c-.1 0-.3 0-.4.1-.4.1-.5.4-.2.6.7.6 1.4.9 2.3.7.2 0 .4-.2.4-.3 0-.1-.1-.4-.2-.5-.6-.4-1.2-.5-1.9-.6zM12.4 17.1c-.5-.6-1-1.1-1.4-1.7-.3-.3-.7-.6-.7-.9 0-.3.3-.7.5-1l4.3-8.6.2-.4c.1.1.2.2.2.3l3.9 5.3c.2.3.1.5 0 .7-.1.2-.3.2-.5.2h-4.9c-.2 0-.3 0-.4.3-.4 1.9-.8 3.8-1.2 5.8zm3.7-9.1c0-.1-.1-.4-.3-.5-.2-.1-.5.1-.6.3-.4.4-.6.9-.5 1.4 0 .2.1.5.3.5.1.1.4-.1.5-.2.4-.3.8-.8.6-1.5zM11.8 20.2c-1.7-.4-3.4-.8-5.1-1.3-.1 0-.2-.1-.3-.2l-6.2-5.7-.2-.2h.4c2.9.6 5.7 1.2 8.6 1.9.2 0 .4.1.5.3l2.4 2.8c.1.1.1.3.1.5.1.7 0 1.3-.2 1.9zm-4.2-4.8c-.3 0-.4.1-.3.4.4.6 1 .9 1.7 1 .3 0 .4-.1.2-.4-.4-.6-.9-.9-1.6-1zm-2.1.4c.3-.6-1.6-1.6-1.8-1.1-.4.6 1.5 1.6 1.8 1.1zm4.1 2.3c-.3.5 1.5 1.5 1.8 1 .3-.5-1.5-1.5-1.8-1zm-3.5-.9c-.3.5 1.4 1.4 1.6.9.3-.5-1.3-1.4-1.6-.9z"></path>
  </symbol>

  <symbol id="market_hand_down" viewBox="0 0 32 32">
    <title>market_hand_down</title>
    <path fill="red" d="M19 29.9c.2-1 .4-2 .7-3 .7-3 1.3-5.9 1.9-8.9.1-.2.1-.3.4-.4l9.8-.4h.2l-.5 2.3c-.7 3.1-1.4 6.2-2.1 9.2-.1.3-.1.4-.4.4l-9.6.7c-.1.1-.2.1-.4.1zm2.5-3c0 .9.5 1.3 1.1 1 .7-.3 1.2-1.2 1-1.9-.1-.6-.6-.9-1.2-.6-.6.3-.9.9-.9 1.5zm3.4-6.4c0-.5-.2-.9-.4-1-.4-.2-.7-.1-1 .2-.5.4-.8 1-.7 1.6 0 .7.7 1.1 1.3.7.5-.4.8-.9.8-1.5zm-.4 3.3c0 .4.1.8.4 1 .4.2.7.1 1-.2.5-.4.8-1 .7-1.6-.1-.7-.6-1-1.2-.6-.5.3-.8.8-.9 1.4zm4.1 2.1c0-.3-.1-.7-.4-.8-.3-.2-.6-.1-.9.1-.5.4-.8 1-.8 1.6 0 .7.6 1 1.2.6.6-.3.9-.9.9-1.5zm1.2-5.6c0-.4-.1-.8-.5-.9-.4-.2-.7 0-1 .2-.5.4-.7.9-.6 1.6.1.7.6 1 1.2.6.6-.3.9-.9.9-1.5zM9.4 14.2c-3.1-.7-6.2-1.4-9.4-2 .2-.4.4-.8.6-1.1 1.5-2.9 3-5.7 4.4-8.6.1-.3.3-.3.6-.3 2.9.5 5.8 1 8.7 1.6.1 0 .2.1.4.1-1.8 3.4-3.5 6.8-5.3 10.3zm-2-2.8c0 .5.3.8.8.6.6-.2 1.1-1 1.1-1.6 0-.5-.3-.8-.8-.6-.6.2-1.1.9-1.1 1.6zm-2.4-.5c0 .5.3.7.8.6.6-.1 1.2-1 1.2-1.6 0-.5-.3-.7-.8-.5-.6.1-1.2.9-1.2 1.5zm-.3-1.4c0-.5-.3-.7-.8-.6-.6.2-1.1 1-1.1 1.6 0 .5.3.7.8.6.6-.2 1.2-1 1.1-1.6zm2.7-3.3c0 .5.3.7.8.6.6-.2 1.1-.9 1.1-1.5 0-.5-.3-.8-.8-.6-.6.1-1.1.9-1.1 1.5zm4.3-.6c0-.5-.3-.7-.8-.6-.6.2-1.2 1-1.2 1.6 0 .5.3.8.8.6.6-.2 1.2-1 1.2-1.6zm-4.6-.8c0-.5-.3-.7-.7-.6-.6.2-1.2 1-1.2 1.6 0 .5.3.7.8.6.5-.2 1.1-1 1.1-1.6zM14.3 13c.7.5 1.3.9 1.9 1.4 1.4 1 2.9 2 4.3 3.1.2.1.2.2.2.4l-2.5 11.5s0 .1-.1.2l-.3-.3c-1.8-1.5-3.6-3-5.5-4.5-.2-.2-.3-.3-.2-.6.6-3.2 1.2-6.4 1.8-9.7.2-.5.3-.9.4-1.5zm3.2 12.2l-.1-.7c-.1-.4-.3-.8-.8-.9-.4-.1-.6 0-.7.4-.1.6 0 1.2.5 1.6.2.2.5.3.8.3.1 0 .3-.5.3-.7zm-2.2-4.6c0 .4.1.9.5 1.3s.9.3 1-.2c.1-.5 0-1.1-.3-1.5-.2-.3-.5-.5-.8-.4-.4.1-.4.4-.4.8zm1.1-2.9c0-.6-.1-1.1-.6-1.4-.3-.2-.8-.1-.9.3-.1.5-.1 1.1.3 1.5.2.3.5.5.8.4.4-.2.4-.5.4-.8zM31.7 16.6c-1.9.1-3.8.2-5.6.2l-4.4.2c-.2 0-.4-.1-.5-.2-2.2-1.5-4.3-3-6.4-4.5-.1 0-.1-.1-.2-.2h.3l8.2-.1c.1 0 .3 0 .4.1 2.7 1.4 5.3 2.8 8 4.3 0 0 0 .1.2.2zm-9.6-3.2c-.1 0-.3 0-.4.1-.4.1-.5.4-.2.6.7.6 1.4.9 2.3.7.2 0 .4-.2.4-.3 0-.1-.1-.4-.2-.5-.6-.4-1.2-.5-1.9-.6zM12.4 17.1c-.5-.6-1-1.1-1.4-1.7-.3-.3-.7-.6-.7-.9 0-.3.3-.7.5-1l4.3-8.6.2-.4c.1.1.2.2.2.3l3.9 5.3c.2.3.1.5 0 .7-.1.2-.3.2-.5.2h-4.9c-.2 0-.3 0-.4.3-.4 1.9-.8 3.8-1.2 5.8zm3.7-9.1c0-.1-.1-.4-.3-.5-.2-.1-.5.1-.6.3-.4.4-.6.9-.5 1.4 0 .2.1.5.3.5.1.1.4-.1.5-.2.4-.3.8-.8.6-1.5zM11.8 20.2c-1.7-.4-3.4-.8-5.1-1.3-.1 0-.2-.1-.3-.2l-6.2-5.7-.2-.2h.4c2.9.6 5.7 1.2 8.6 1.9.2 0 .4.1.5.3l2.4 2.8c.1.1.1.3.1.5.1.7 0 1.3-.2 1.9zm-4.2-4.8c-.3 0-.4.1-.3.4.4.6 1 .9 1.7 1 .3 0 .4-.1.2-.4-.4-.6-.9-.9-1.6-1zm-2.1.4c.3-.6-1.6-1.6-1.8-1.1-.4.6 1.5 1.6 1.8 1.1zm4.1 2.3c-.3.5 1.5 1.5 1.8 1 .3-.5-1.5-1.5-1.8-1zm-3.5-.9c-.3.5 1.4 1.4 1.6.9.3-.5-1.3-1.4-1.6-.9z"></path>
  </symbol>

  <symbol id="add_citizenship" viewBox="0 0 32 32">
    <title>add_citizenship</title>
    <path d="M13.6 4.8c-7.5 0-13.6 6.1-13.6 13.6s6.1 13.6 13.6 13.6 13.6-6.1 13.6-13.6-6.1-13.6-13.6-13.6zm-6.5 22.4c-2.7-2-4.4-5.2-4.4-8.8 0-.9.1-1.8.3-2.7h.1l2.6 2.6-.6 3.6 2.1 2.1-.1 3.2zm16.8-12l-1-.5-1.2-.3h-1.4l-1.4.6-1.2.4-1 1.1v1.2l.3 1.5.7.5 1.1.5.8.5.5.5h.3v5.7c-1.9 1.5-4.2 2.4-6.8 2.4-1.3 0-2.6-.2-3.8-.7l3.1-6.8-.5-1.8-.3-1.6-1.4-1.4-1.6-1h-.8l-1.1 1.3-1.1-1.9 1.1-.5 2.4-1.8.4-1.9 1.2-2.5v-.5l-.3-.4c.9-.2 1.8-.3 2.7-.3.8 0 1.6.1 2.4.3l-.1.2-.4 1.2 1.3.3 1.4-.2.4-.3v-.2c.5.2.9.5 1.3.8l-.2.3-1 .1-1.1 1 .9.5.1.9-1.2.1v.9l.3.6.9.2h1.1v-1.2l.4-.5.8-.5h.5l1 .3c.7.7 1.2 1.8 1.5 2.9zM28.4 3.6v-3.6h-2.5v3.6h-3.6v2.5h3.6v3.6h2.5v-3.6h3.6v-2.5z"></path>
  </symbol>

  <symbol id="remove_citizenship" viewBox="0 0 32 32">
    <title>remove_citizenship</title>
    <path d="M13.6 4.8c-7.5 0-13.6 6.1-13.6 13.6s6.1 13.6 13.6 13.6 13.6-6.1 13.6-13.6-6.1-13.6-13.6-13.6zm-6.5 22.4c-2.7-2-4.4-5.2-4.4-8.8 0-.9.1-1.8.3-2.7h.1l2.6 2.6-.6 3.6 2.1 2.1-.1 3.2zm16.8-12l-1-.5-1.2-.3h-1.4l-1.4.6-1.2.4-1 1.1v1.2l.3 1.5.7.5 1.1.5.8.5.5.5h.3v5.7c-1.9 1.5-4.2 2.4-6.8 2.4-1.3 0-2.6-.2-3.8-.7l3.1-6.8-.5-1.8-.3-1.6-1.4-1.4-1.6-1h-.8l-1.1 1.3-1.1-1.9 1.1-.5 2.4-1.8.4-1.9 1.2-2.5v-.5l-.3-.4c.9-.2 1.8-.3 2.7-.3.8 0 1.6.1 2.4.3l-.1.2-.4 1.2 1.3.3 1.4-.2.4-.3v-.2c.5.2.9.5 1.3.8l-.2.3-1 .1-1.1 1 .9.5.1.9-1.2.1v.9l.3.6.9.2h1.1v-1.2l.4-.5.8-.5h.5l1 .3c.7.7 1.2 1.8 1.5 2.9zM21.4 2.3h9.7v2.5h-9.7z"></path>
  </symbol>

  <symbol id="ope_information" viewBox="0 0 32 32">
    <title>ope_information</title>
    <path d="M28.2 4c-2.2.1-4.5 0-6.7 0-.4-2.6-.4-2.6-3-2.6h-5c-2.6 0-2.6 0-3 2.6-2.2 0-4.5.1-6.8 0-1.7-.1-2.9.4-3.7 2v22.6c.7 1.5 1.8 2.1 3.5 2 8.3-.1 16.6-.1 25 0 1.7 0 2.8-.5 3.5-2v-22.6c-.8-1.6-2.1-2.1-3.8-2zm.4 21.7c0 1.4-.9 1.6-2 1.6h-21.1c-1.6 0-2-.4-2-2v-15.8c0-1.7.3-2 2-2h5.1c.4 2.5.4 2.5 3 2.5h5c2.4 0 2.5-.1 2.8-2.6 2 0 4-.1 6 .1.4 0 1.1.9 1.1 1.4.1 5.6.1 11.2.1 16.8zM13.2 19.8c-1.1-.2-1.2-.6-.5-1.4l.7-.9c1.2-2 .6-4.1-1.3-4.7-1.4-.4-2.8 0-3.6 1.1-.8 1.2-.5 2.8.7 4.3.9 1.1.9 1.2-.5 1.6-2 .5-2.7 1.5-2.7 3.3 0 1.1.4 1.6 1.5 1.5h7.1c1 0 1.3-.4 1.4-1.4.1-2-.6-2.9-2.8-3.4zM23.5 13.8h-3.6c-.9 0-1.7.7-1.7 1.7 0 .9.7 1.7 1.7 1.7h3.6c.9 0 1.7-.7 1.7-1.7s-.8-1.7-1.7-1.7zM23.5 19.7h-3.6c-.9 0-1.7.7-1.7 1.7s.8 1.6 1.7 1.6h3.6c.9 0 1.7-.7 1.7-1.7s-.8-1.6-1.7-1.6z"></path>
  </symbol>

  <symbol id="ic_up" viewBox="0 0 32 32">
    <title>ic_up</title>
    <path d="M12.7 6.7c-7 0-12.7 5.7-12.7 12.7 0 6.9 5.7 12.6 12.7 12.6s12.6-5.7 12.6-12.6c0-7-5.7-12.7-12.6-12.7zm-4.5 18.3h-3.4v-11.9h3.3v11.9zm7.9.3c-3.4 0-6.1-2.6-6.1-6.2 0-3.5 2.7-6.2 6.3-6.2 2.4 0 4 1 5 2.5l-2.5 1.9c-.7-.9-1.5-1.4-2.6-1.4-1.7 0-2.8 1.4-2.8 3.1 0 1.8 1.2 3.2 2.8 3.2 1.2 0 2-.6 2.7-1.4l2.5 1.8c-1.2 1.5-2.7 2.7-5.3 2.7zM27.7 4.3v-4.3h-3v4.3h-4.4v3h4.4v4.4h3v-4.4h4.3v-3z"></path>
  </symbol>

  <symbol id="wiretransfert" viewBox="0 0 32 32">
    <title>wiretransfert</title>
    <path d="M9.3 13.5c-.1 1.1 0 2.3 0 3.5h-7.4c-1.4 0-1.9.4-1.9 1.9v4c0 1.5.4 1.9 1.9 1.9h7.4c0 1.3-.1 2.4 0 3.5 0 .4.3.9.6 1 .2.1.8-.1 1-.3 3.1-2.6 6.2-5.3 9.4-8.1-3.3-2.8-6.4-5.6-9.6-8.3-.6-.6-1.3-.2-1.4.9zM30.1 7.2h-7.4c0-1.3.1-2.4 0-3.5 0-.4-.3-.9-.6-1-.2-.1-.8.1-1 .3-3.1 2.6-6.2 5.3-9.4 8.1 3.3 2.8 6.4 5.6 9.6 8.3.7.6 1.4.2 1.5-.9.1-1.1 0-2.3 0-3.5h7.4c1.5 0 1.9-.4 1.9-1.9v-4c-.1-1.5-.6-1.9-2-1.9z"></path>
  </symbol>

  <symbol id="buy_share" viewBox="0 0 32 32">
    <title>buy_share</title>
    <path d="M11.4 9.6s2.3 2.5 7.3 0c0 0-.3-3 2.4-5.9.5-.5.3-2.7-1.9-1.8-.4.1-.8.6-1.9.1-.6-.3-2.5-3.3-4.1-1.3-.4.5-.4 1.2-1.6 2-1.2.9-4.9-1.2-3.3 2.1l3.1 4.8zm3.3-5.7l1.8 1.6-.5.9-1.3-1.2-1.5 1.2-.4-.7 1.9-1.8zM13 21.6c0 1.5.3 2.6.8 3.2.4.5.9.8 1.5.9v-8c-.6.1-1.1.4-1.5.9-.5.6-.8 1.6-.8 3zM31.8 23.7c-3.7-11.5-13.4-12.4-13.4-12.4-2.5 1.8-6.6.2-6.6.2-6.1 1.4-13 10.2-11.6 15.4 1.3 5.2 10.6 5.1 10.6 5.1h11.9c11.3-.6 9.1-8.3 9.1-8.3zm-15.3 4.1v1.5h-1.2v-1.5c-1.3-.1-2.4-.6-3.3-1.6-1-1.1-1.5-2.5-1.5-4.4 0-2 .5-3.5 1.5-4.6.9-.9 2-1.5 3.3-1.6v-.8h1.2v.8c1.2.1 2.3.5 3.1 1.3.5.5.9 1.2 1.2 2.2l-2.4.6c-.1-.6-.4-1.1-.9-1.4-.3-.2-.7-.4-1-.5v8c1-.2 1.7-1.1 2-2.4l2.3.7c-.6 2.2-2 3.5-4.3 3.7z"></path>
  </symbol>

  <symbol id="background" viewBox="0 0 32 32">
    <title>background</title>
    <path fill-rule="evenodd" clip-rule="evenodd" d="M.2 24.8c-.1-.5-.2-1 0-1.5.3-.9 1.1-1.7 1.9-2.3 1.3-.9 2.8-1.6 4.3-2.3 1.3-.6 1.5-1.6.8-2.8-.8-1.2-1.6-2.6-2-4-.8-2.2-.5-4.5 1.5-6.3 1.7-1.4 4.2-1.6 6.2-.4 1.8 1.1 2.9 3.5 2.4 5.9-.3 1.8-1 3.4-2.1 4.9-1 1.3-.7 2.4.8 3 .5.2 1 .4 1.4.6 1.8.9 4.1 1.6 4.6 3.8.1.5.1 1 0 1.5-.3 1.5-1.9 1.9-3.3 2.2-4.4.9-8.8.9-13.3 0-1.2-.4-2.9-.8-3.2-2.3z"></path>
    <path d="M24.1 6.2c-4.4 0-7.9 3.5-7.9 7.9s3.5 7.9 7.9 7.9 7.9-3.5 7.9-7.9c0-4.3-3.5-7.9-7.9-7.9zm-6.4 7.9c0-.5.1-1.1.2-1.6l1.5 1.5-.4 2.1 1.3 1.2-.1 1.8c-1.5-1-2.5-2.9-2.5-5zm4.2 6l1.8-4-.2-1.1-.2-.9-.8-.8-1-.6h-.5l-.6.8-.6-1.1.6-.3 1.4-1 .2-1.1.7-1.5v-.3l-.2-.2c.5-.1 1-.2 1.6-.2.5 0 .9.1 1.4.2h-.1l-.2.7.7.2.8-.1.3-.2v-.1c.3.1.5.3.8.5l-.1.2-.6.1-.6.6.5.3.1.5h-.7v.5l.2.3.5.1h.6v-.7l.2-.3.5-.3h.3l.6.2c.4.5.7 1.2.9 1.8l-.7-.3-.7-.2h-.8l-.8.4-.7.2-.6.6v.7l.2.9.4.3.6.3.5.3.3.3h.2v3.3c-1.1.9-2.5 1.4-4 1.4-.8 0-1.5-.2-2.2-.4z"></path>
  </symbol>

  <symbol id="corporationspeculationorder" viewBox="0 0 32 32">
    <title>corporationspeculationorder</title>
    <path d="M8.9 11.6s1.8 1.9 5.7 0c0 0-.3-2.3 1.9-4.6.4-.4.2-2.2-1.5-1.4-.3.1-.7.6-1.4.1-.5-.2-2-2.6-3.2-1.1-.4.4-.3 1-1.3 1.6-.9.7-3.8-.9-2.5 1.6l2.3 3.8zm2.6-4.4l1.4 1.3-.3.6-1-.9-1.2.9-.4-.6 1.5-1.3zM10.2 21c0 1.2.2 2 .6 2.5.3.4.7.6 1.2.7v-6.2c-.5.1-.9.3-1.2.7-.4.5-.6 1.2-.6 2.3zM14.4 12.9c-1.9 1.4-5.2.1-5.2.1-4.8 1.1-10.1 8-9.1 12.1 1.1 4.1 8.3 4 8.3 4h9.3c8.9-.5 7.1-6.5 7.1-6.5-2.8-8.9-10.4-9.7-10.4-9.7zm-1.5 13v1.1h-.9v-1.2c-1-.1-1.9-.5-2.6-1.2-.8-.8-1.2-2-1.2-3.4 0-1.5.4-2.7 1.2-3.6.7-.7 1.5-1.1 2.6-1.2v-.6h.9v.6c1 .1 1.8.4 2.4 1 .4.4.7 1 .9 1.7l-1.8.4c-.1-.5-.3-.9-.7-1.1-.2-.2-.5-.3-.8-.4v6.3c.8-.2 1.3-.8 1.6-1.9l1.8.6c-.5 1.7-1.6 2.7-3.4 2.9zM22.4 7.3s1.1 1.1 3.4 0c0 0-.2-1.4 1.1-2.8.2-.2.1-1.3-.9-.8-.2.1-.4.3-.9.1-.3-.1-1.2-1.5-1.9-.6-.2.2-.2.5-.7.9-.5.4-2.3-.6-1.5 1l1.4 2.2zm1.5-2.6l.8.8-.2.4-.6-.6-.7.6-.2-.4.9-.8zM23.2 12.9c0 .7.1 1.2.4 1.5.2.2.4.4.7.4v-3.7c-.3.1-.5.2-.7.4-.3.3-.4.8-.4 1.4zM31.9 13.9c-1.7-5.4-6.2-5.8-6.2-5.8-1.1.9-3.1.1-3.1.1-2 .4-4.1 2.5-5 4.6 1.9.5 4.5 1.8 6.5 5h3.6c5.3-.3 4.2-3.9 4.2-3.9zm-7.1 1.9v.7h-.5v-.7c-.6-.1-1.1-.3-1.5-.7-.5-.5-.8-1.2-.8-2.1 0-.9.2-1.6.7-2.1.4-.4.9-.7 1.5-.7v-.4h.5v.4c.6 0 1.1.2 1.4.6.3.2.4.6.6 1l-1 .2c-.1-.3-.2-.5-.4-.7-.1-.1-.3-.2-.5-.2v3.7c.5-.1.8-.5.9-1.1l1.1.3c-.3 1.1-.9 1.7-2 1.8z"></path>
  </symbol>

  <symbol id="speculation_win" viewBox="0 0 32 32">
    <title>speculation_win</title>
    <path fill="green" d="M8.9 11.6s1.8 1.9 5.7 0c0 0-.3-2.3 1.9-4.6.4-.4.2-2.2-1.5-1.4-.3.1-.7.6-1.4.1-.5-.2-2-2.6-3.2-1.1-.4.4-.3 1-1.3 1.6-.9.7-3.8-.9-2.5 1.6l2.3 3.8zm2.6-4.4l1.4 1.3-.3.6-1-.9-1.2.9-.4-.6 1.5-1.3zM10.2 21c0 1.2.2 2 .6 2.5.3.4.7.6 1.2.7v-6.2c-.5.1-.9.3-1.2.7-.4.5-.6 1.2-.6 2.3zM14.4 12.9c-1.9 1.4-5.2.1-5.2.1-4.8 1.1-10.1 8-9.1 12.1 1.1 4.1 8.3 4 8.3 4h9.3c8.9-.5 7.1-6.5 7.1-6.5-2.8-8.9-10.4-9.7-10.4-9.7zm-1.5 13v1.1h-.9v-1.2c-1-.1-1.9-.5-2.6-1.2-.8-.8-1.2-2-1.2-3.4 0-1.5.4-2.7 1.2-3.6.7-.7 1.5-1.1 2.6-1.2v-.6h.9v.6c1 .1 1.8.4 2.4 1 .4.4.7 1 .9 1.7l-1.8.4c-.1-.5-.3-.9-.7-1.1-.2-.2-.5-.3-.8-.4v6.3c.8-.2 1.3-.8 1.6-1.9l1.8.6c-.5 1.7-1.6 2.7-3.4 2.9zM22.4 7.3s1.1 1.1 3.4 0c0 0-.2-1.4 1.1-2.8.2-.2.1-1.3-.9-.8-.2.1-.4.3-.9.1-.3-.1-1.2-1.5-1.9-.6-.2.2-.2.5-.7.9-.5.4-2.3-.6-1.5 1l1.4 2.2zm1.5-2.6l.8.8-.2.4-.6-.6-.7.6-.2-.4.9-.8zM23.2 12.9c0 .7.1 1.2.4 1.5.2.2.4.4.7.4v-3.7c-.3.1-.5.2-.7.4-.3.3-.4.8-.4 1.4zM31.9 13.9c-1.7-5.4-6.2-5.8-6.2-5.8-1.1.9-3.1.1-3.1.1-2 .4-4.1 2.5-5 4.6 1.9.5 4.5 1.8 6.5 5h3.6c5.3-.3 4.2-3.9 4.2-3.9zm-7.1 1.9v.7h-.5v-.7c-.6-.1-1.1-.3-1.5-.7-.5-.5-.8-1.2-.8-2.1 0-.9.2-1.6.7-2.1.4-.4.9-.7 1.5-.7v-.4h.5v.4c.6 0 1.1.2 1.4.6.3.2.4.6.6 1l-1 .2c-.1-.3-.2-.5-.4-.7-.1-.1-.3-.2-.5-.2v3.7c.5-.1.8-.5.9-1.1l1.1.3c-.3 1.1-.9 1.7-2 1.8z"></path>
  </symbol>

  <symbol id="speculation_lost" viewBox="0 0 32 32">
    <title>speculation_lost</title>
    <path fill="red" d="M8.9 11.6s1.8 1.9 5.7 0c0 0-.3-2.3 1.9-4.6.4-.4.2-2.2-1.5-1.4-.3.1-.7.6-1.4.1-.5-.2-2-2.6-3.2-1.1-.4.4-.3 1-1.3 1.6-.9.7-3.8-.9-2.5 1.6l2.3 3.8zm2.6-4.4l1.4 1.3-.3.6-1-.9-1.2.9-.4-.6 1.5-1.3zM10.2 21c0 1.2.2 2 .6 2.5.3.4.7.6 1.2.7v-6.2c-.5.1-.9.3-1.2.7-.4.5-.6 1.2-.6 2.3zM14.4 12.9c-1.9 1.4-5.2.1-5.2.1-4.8 1.1-10.1 8-9.1 12.1 1.1 4.1 8.3 4 8.3 4h9.3c8.9-.5 7.1-6.5 7.1-6.5-2.8-8.9-10.4-9.7-10.4-9.7zm-1.5 13v1.1h-.9v-1.2c-1-.1-1.9-.5-2.6-1.2-.8-.8-1.2-2-1.2-3.4 0-1.5.4-2.7 1.2-3.6.7-.7 1.5-1.1 2.6-1.2v-.6h.9v.6c1 .1 1.8.4 2.4 1 .4.4.7 1 .9 1.7l-1.8.4c-.1-.5-.3-.9-.7-1.1-.2-.2-.5-.3-.8-.4v6.3c.8-.2 1.3-.8 1.6-1.9l1.8.6c-.5 1.7-1.6 2.7-3.4 2.9zM22.4 7.3s1.1 1.1 3.4 0c0 0-.2-1.4 1.1-2.8.2-.2.1-1.3-.9-.8-.2.1-.4.3-.9.1-.3-.1-1.2-1.5-1.9-.6-.2.2-.2.5-.7.9-.5.4-2.3-.6-1.5 1l1.4 2.2zm1.5-2.6l.8.8-.2.4-.6-.6-.7.6-.2-.4.9-.8zM23.2 12.9c0 .7.1 1.2.4 1.5.2.2.4.4.7.4v-3.7c-.3.1-.5.2-.7.4-.3.3-.4.8-.4 1.4zM31.9 13.9c-1.7-5.4-6.2-5.8-6.2-5.8-1.1.9-3.1.1-3.1.1-2 .4-4.1 2.5-5 4.6 1.9.5 4.5 1.8 6.5 5h3.6c5.3-.3 4.2-3.9 4.2-3.9zm-7.1 1.9v.7h-.5v-.7c-.6-.1-1.1-.3-1.5-.7-.5-.5-.8-1.2-.8-2.1 0-.9.2-1.6.7-2.1.4-.4.9-.7 1.5-.7v-.4h.5v.4c.6 0 1.1.2 1.4.6.3.2.4.6.6 1l-1 .2c-.1-.3-.2-.5-.4-.7-.1-.1-.3-.2-.5-.2v3.7c.5-.1.8-.5.9-1.1l1.1.3c-.3 1.1-.9 1.7-2 1.8z"></path>
  </symbol>

  <symbol id="alimentaire" viewBox="0 0 32 32">
    <title>alimentaire</title>
    <path d="M1.7 14.7v.4h28.6v-3.6c0-.7-.2-1.4-.5-2.1-.6-1.2-1.6-2-2.7-2.7-2.1-1.3-4.5-1.7-6.9-1.7h-8.3c-1 0-2 .1-3 .3-1.8.3-3.5 1-5 2.2-1.4 1.2-2.2 2.7-2.2 4.6v2.6zm21-4.6c.5 0 .9.4.8.9 0 .5-.4.8-.8.8-.5 0-.8-.4-.8-.9 0-.4.4-.8.8-.8zm-3.3-3.3c.5 0 .8.3.8.8s-.4.9-.8.9c-.5 0-.9-.4-.8-.9-.1-.5.3-.8.8-.8zm-3.4 3.3c.5 0 .8.4.8.9 0 .4-.4.8-.9.8s-.9-.4-.8-.9c.1-.4.5-.8.9-.8zm-3.4-3.3c.5 0 .8.4.8.8 0 .5-.4.9-.9.8-.5 0-.8-.4-.8-.9.1-.4.5-.8.9-.7zm-3.3 3.3c.5 0 .8.4.8.8 0 .5-.4.8-.8.8-.5 0-.9-.4-.9-.8s.4-.8.9-.8zM1.7 21.9v1.5c0 1.9 1.6 3.5 3.5 3.5h21.5c.3 0 .6 0 .9-.1 2-.6 3.1-2.7 2.5-4.9h-28.4zM30 16.9h-28.5c-.7 0-1.5.8-1.5 1.6s.7 1.6 1.5 1.7h28.4c1.2 0 2-.7 2-1.7.1-.9-.8-1.6-1.9-1.6z"></path>
  </symbol>

  <symbol id="btp" viewBox="0 0 32 32">
    <title>btp</title>
    <path fill-rule="evenodd" clip-rule="evenodd" d="M26.7 29.6v-29.6h-21.4v29.6h-4.4v2.4h30.2v-2.4h-4.4zm-17.9-25.7c0-.2 0-.4.3-.4h4.1v4h-4c-.3 0-.4-.1-.4-.4v-3.2zm0 6.3c0-.1.2-.4.3-.4h4s.1 0 .1.1v3.9h-4.1c-.3 0-.4-.1-.4-.4.1-1.1.1-2.1.1-3.2zm0 6h4.4v3.9h-4.4v-3.9zm4.8 13.3h-4.4v-7h4.4v7zm4.5-19.4c0-.1.2-.3.3-.3h3.9c.1 0 .3.2.3.3v3.4c0 .1-.2.3-.3.3h-4.2v-3.7zm0 6.1h4.4v3.5c0 .1-.2.4-.3.4h-4.2c.1-1.3.1-2.6.1-3.9zm4.4 9.9c0 .1-.2.4-.3.4h-4s-.1 0-.1-.1v-3.9h4.1c.3 0 .4.1.4.4l-.1 3.2zm.1-19c0 .3 0 .4-.3.4h-3.8c-.1 0-.1 0-.2-.1v-3.9h3.9c.3 0 .5.1.4.4-.1 1.1-.1 2.1 0 3.2z"></path>
  </symbol>

  <symbol id="energy" viewBox="0 0 32 32">
    <title>energy</title>
    <path d="M20.2 0s-6.2-.3-7.9 3.4-4.9 10.4-5 11.3c0 .8.1 1.5.9 1.5h6c.7 0 .8.5.5 1-.2.5-7.7 14.8-7.7 14.8s17.6-20.4 17.9-20.9c.3-.5.2-1.3-.8-1.3-1 .1-7.4.3-8.5 0-1.2-.2 4.6-9.8 4.6-9.8z"></path>
  </symbol>

  <symbol id="media" viewBox="0 0 32 32">
    <title>media</title>
    <path d="M17.3 23.8c3.6-.6 6.3-3.6 6.5-7.2.1-1.3 0-2.6 0-3.9v-.2h-2.2v3.4c0 .4 0 .9-.1 1.3-.5 2.7-2.9 4.6-5.6 4.5-2.8-.1-5.1-2.3-5.3-5.1-.1-1.2 0-2.5 0-3.7v-.4h-2.3v3.8000000000000003c.1 3.9 2.7 6.9 6.6 7.5.3 0 .3.2.3.4v5.3h-5.1v2.5h12.2v-2.5h-5.1v-5.4c-.2-.2-.1-.2.1-.3zM15.8 20.1c2.5.1 4.5-1.8 4.5-4.4v-6.6h-8.6v7c.1 2.2 2 3.9 4.1 4zM16 0c-2.1 0-4 1.7-4.2 3.8h8.4c-.1-2.1-2.1-3.8-4.2-3.8zM20.3 5.5h-8.6v1.9h8.6v-1.9z"></path>
  </symbol>

  <symbol id="medical" viewBox="0 0 32 32">
    <title>medical</title>
    <path fill-rule="evenodd" clip-rule="evenodd" d="M10.5 0h11v10.6h10.4v11.1h-10.3v10.3h-11.2v-10.4h-10.5v-11h10.5c.1-3.7.1-7.2.1-10.6z"></path>
  </symbol>

  <symbol id="military" viewBox="0 0 32 32">
    <title>military</title>
    <path d="M28.3 16.7h-22.7l-3.6 3.9 2.1-.1s1.2 2.1 2.9 2.1h19.9l2.9-2h2.2s-1.6-3.9-3.7-3.9zm-21.2 4.7c-.9 0-1.7-.7-1.7-1.7 0-.9.7-1.7 1.7-1.7.9 0 1.7.7 1.7 1.7-.1.9-.8 1.7-1.7 1.7zm3.9-.1c-.9 0-1.7-.7-1.7-1.7 0-.9.7-1.7 1.7-1.7.9 0 1.7.7 1.7 1.7s-.8 1.7-1.7 1.7zm4 0c-.9 0-1.7-.7-1.7-1.7 0-.9.7-1.7 1.7-1.7.9 0 1.7.7 1.7 1.7s-.7 1.7-1.7 1.7zm4.1 0c-.9 0-1.7-.7-1.7-1.7 0-.9.7-1.7 1.7-1.7s1.7.7 1.7 1.7c-.1 1-.8 1.7-1.7 1.7zm3.9 0c-.9 0-1.7-.7-1.7-1.7 0-.9.7-1.7 1.7-1.7s1.7.7 1.7 1.7-.8 1.7-1.7 1.7zm4 .1c-.9 0-1.7-.7-1.7-1.7 0-.9.7-1.7 1.7-1.7s1.7.7 1.7 1.7c0 .9-.8 1.7-1.7 1.7zM25.6 13.8c1.2-2.8-.9-3.1-.9-3.1l-5.5-.1v-.5c0-.5-.9-.7-.9-.7h-3.5s-.9.3-.9.9v.5h-.6c-.9 0-2.1 1.5-2.5 2h-10.8v2h10s.6 1.3 1.2 1.3h16.7v-1.3c.1-.1-1.3 0-2.3-1z"></path>
  </symbol>

  <symbol id="robot" viewBox="0 0 32 32">
    <title>robot</title>
    <path fill-rule="evenodd" clip-rule="evenodd" d="M16 7.8h6.3c1.1 0 1.9.8 1.9 1.9v12.5c0 1.2-.7 1.9-1.9 1.9H9.7c-1.1 0-1.9-.8-1.9-1.8V9.7c0-1 .8-1.8 1.8-1.8 2.2-.1 4.3-.1 6.4-.1zM24.5 2.9v1.9c0 .6-.4 1-.9 1-.6 0-1.1-.4-1.1-1V.9c0-.6.5-1 1.1-1 .6 0 1 .5 1 1.1-.1.7-.1 1.3-.1 1.9zM2.9 24.5H1c-.6 0-1-.4-1.1-1 0-.5.4-1 1-1.1h3.9c.6 0 1 .5 1 1.1 0 .6-.4.9-1 .9-.6.1-1.2.1-1.9.1zM7.5 2.9V1.1c0-.6.4-1.1 1-1.1.5 0 1 .4 1 1v3.9c0 .6-.5 1-1 1s-1-.5-1-1v-2zM19.5 2.9v1.8c0 .7-.4 1.1-1 1.1s-1-.4-1-1.1V1c0-.6.5-1.1 1-1.1.6 0 1 .5 1 1.1v1.9zM2.9 7.5h1.8c.6 0 1 .4 1.1 1 0 .6-.4 1-1 1H1c-.5 0-1-.5-1-1 0-.6.5-1 1.1-1h1.8zM3 19.5H1.2c-.6 0-1.1-.5-1.1-1 0-.6.5-1 1.1-1h3.7c.5 0 .9.3 1.1.8.1.4-.1.9-.5 1.1-.2.1-.4.1-.6.1H3zM24.5 29v1.8c0 .6-.4 1-1 1.1-.6 0-1.1-.5-1.1-1v-3.8c0-.6.5-1.1 1.1-1 .6 0 1 .5 1 1.1V29zM12.5 2.9V1.1c0-.6.4-1.1 1-1.1s1 .5 1 1.1v3.7c0 .7-.4 1.1-1 1.1s-1-.5-1-1.1c-.1-.7-.1-1.3 0-1.9zM2.9 14.5h-2c-.5 0-.9-.4-.9-.9-.1-.4.2-.9.6-1 .1 0 .2-.1.4-.1h3.8c.4 0 .7.2.9.6.2.4.1.7-.1 1-.2.3-.5.4-.9.4H2.9zM14.5 29v2c0 .5-.4.8-.9.9-.4.1-.9-.2-1-.6-.1-.2-.1-.3-.1-.5v-3.6c0-.7.4-1.1 1-1.1s1 .5 1 1.1V29zM29 7.5h1.8c.6 0 1.1.4 1.1 1 0 .5-.4 1-1 1h-3.8c-.6 0-1-.5-1-1 0-.6.5-1 1.1-1H29zM29 24.5h-1.8c-.6 0-1.1-.4-1.1-1s.4-1 1.1-1h3.7c.6 0 1.1.5 1.1 1 0 .6-.5 1-1.1 1H29zM7.5 29v-1.8c0-.6.4-1.1 1-1.1s1 .5 1 1.1v3.7c0 .5-.3.9-.8 1-.4.1-.9-.1-1.1-.5-.1-.2-.1-.3-.1-.5V29zM29 19.5h-1.8c-.6 0-1.1-.4-1.1-1s.4-1 1.1-1h3.7c.6 0 1 .4 1 .9.1.4-.2.9-.6 1.1-.2.1-.4.1-.5.1-.6-.1-1.2-.1-1.8-.1zM19.5 29v2c0 .5-.4.9-.9.9-.4.1-.9-.2-1-.7 0-.1-.1-.3-.1-.4v-3.7c0-.5.3-.9.8-1 .4-.1.8 0 1.1.4.1.2.2.4.2.7-.1.6-.1 1.2-.1 1.8zM29 12.5h2c.5 0 .9.4.9.9.1.4-.2.9-.7 1.1-.1.1-.3.1-.5.1h-3.6c-.5 0-.9-.3-1.1-.8-.1-.4 0-.9.4-1.1.2-.1.4-.2.7-.2.7-.1 1.3 0 1.9 0z"></path>
  </symbol>

  <symbol id="space" viewBox="0 0 32 32">
    <title>space</title>
    <path d="M21.6 10.9c-.6-3.1-1.7-6-3.6-8.6-.6-.8-1.3-1.5-2-2.3l-.7.7c-1.7 1.8-3 3.9-3.8 6.3-1.9 5.1-2.1 10.4-1 15.7.3 1.8 1 3.4 2 4.9.5.7 1.2 1.3 2 1.7l.6.2v-7.4c0-.4.1-.8.5-1 .6-.3 1.3.2 1.3.9v7.4c.1 0 .1 0 .2-.1 1.1-.4 1.9-1.2 2.6-2.2 1-1.6 1.6-3.3 1.9-5.2.7-3.5.7-7.3 0-11zm-8.7-2.1c.7-2.2 1.6-4.1 3.1-5.9 1.4 1.8 2.4 3.7 3.1 5.9-2.1.4-4.1.4-6.2 0zM27.1 24.7c0-1-.4-1.8-1.2-2.4-.8-.6-1.7-.7-2.6-.6-.1 0-.2.2-.2.3l-.7 2.9c-.3.9-.7 1.8-1.1 2.7 1.9 1.4 3.9 2.9 6 4.4v-.4c-.2-2.3-.2-4.6-.2-6.9zM8.7 21.7h-1.1c-1.3.3-2.8 1.3-2.7 3.2.1 2.2 0 4.4 0 6.7v.5c2-1.5 4-3 6-4.4-1-1.8-1.5-3.6-1.9-5.6 0-.2-.2-.4-.3-.4z"></path>
  </symbol>

  <symbol id="telecom" viewBox="0 0 32 32">
    <title>telecom</title>
    <path d="M29.5 7.7c-1.2 0-2.2.8-2.5 2l-11-3.8v-.1c0-.8-.7-1.5-1.5-1.5s-1.5.7-1.5 1.5c0 .4.2.8.4 1l-11.6 13.6c-.2-.1-.3-.1-.5-.1-.7 0-1.3.6-1.3 1.3 0 .7.6 1.3 1.3 1.3.5 0 1-.3 1.2-.8l10.6 2.5-.1.6c0 1.3 1.1 2.4 2.4 2.4s2.4-1.1 2.4-2.4c0-.3-.1-.6-.1-.8l8.3-3.3c.2.2.5.3.8.3.7 0 1.3-.6 1.3-1.3 0-.4-.2-.8-.5-1l1.2-6.4c.2.1.4.1.6.1 1.4 0 2.5-1.1 2.5-2.5.1-1.5-1-2.6-2.4-2.6zm-2.1 4l-4.1 4.6-2.3-2.9 6.1-2.4c0 .3.2.5.3.7zm-12.9-4.4l.4 8.1-2.4.9c-.1-.2-.2-.3-.4-.4l1.9-8.7c.2.1.4.1.5.1zm6 5.9l-5.3 2.1-.2-8c.2-.1.4-.1.5-.3l5 6.2zm-7.8 3.9c0-.1 0-.3-.1-.4l2.3-.9.2 7c-.2 0-.5.1-.7.2l-2.2-4.9c.3-.2.5-.6.5-1zm4.3 6.3c-.4-.3-.9-.5-1.5-.5l-.3-7.1 5.5-2.2 2.4 3-6.1 6.8zm9.9-13.5v.8l-6.2 2.5-5.1-6.3c.2-.2.3-.4.3-.7l11 3.7zm-13.3-2.9l.2.1-1.9 8.7c-.2-.1-.4-.1-.6-.1-.8 0-1.4.6-1.4 1.4v.3l-7.9 3.1 11.6-13.5zm-11 14.9v-.3c0-.3-.1-.6-.3-.8l7.7-3c.2.5.7.8 1.3.8.3 0 .5-.1.8-.2l2.2 4.8c-.5.3-.9.7-1.1 1.3l-10.6-2.6zm14.6 1.7l6.1-6.8 2.3 2.8c-.1.2-.1.3-.1.5 0 .3.1.6.3.8l-8.2 3.3c-.1-.2-.2-.4-.4-.6zm10.2-4.6c-.2-.1-.4-.1-.6-.1-.4 0-.8.2-1.1.6l-2.3-2.8 4.1-4.6c.3.3.6.5.9.6l-1 6.3z"></path>
  </symbol>

  <symbol id="transport" viewBox="0 0 32 32">
    <title>transport</title>
    <path d="M31.7 18.2c0-3.1-3.3-3.6-5.7-4.1-.7-.1-1.6-.1-2.2-.4-.6-.3-1.2-1.1-1.7-1.5-1.1-1-2.1-2.3-3.7-2.5-3.3-.4-6.9-.3-10.2-.1-1.5.1-3.5-.1-4.5 1-1.1 1.2-1.8 2.6-2.8 3.9.9.2-.5 2.7-.6 3.1-.1.3.1.5.1.9.1.3 0 .7 0 1 .2.7.8 1.1 1.5 1.1-.2-1.7.5-3.5 2.3-3.9 2.3-.4 4 1.7 3.5 3.9h15.7c-.6-2 .7-4.2 2.9-4.1 2.3 0 3.3 2.2 2.8 4.2.6 0 1.8.1 2.2-.4.4-.3.4-1.6.4-2.1zm-21.1-5.1c0 .6-3.6.2-4.1.2-.5 0-1.7.2-1.8-.3-.1-.3.6-1.4.8-1.7.7-.8 1.8-.6 2.7-.6.3 0 2.2-.2 2.4 0 .2.4 0 2 0 2.4zm9.3.9c-.5-.2-.4-1.5-1.4-1-.3.2-.2.6-.4.7-.3.3-.5.2-1.1.2-1.1 0-2.2-.1-3.4-.1-.3 0-1.6.1-1.8-.1-.2-.2-.1-1.4-.1-1.6 0-1-.2-1.4.9-1.5h3.6c1.2 0 1.5.1 2.2 1.1l2 2.4s-.2-.1-.5-.1zm1.8-.4l-2.9-3c1.2-.1 1.5.4 2.3 1.2.6.6 1.7 1.3 2.1 2-.4.2-1 .2-1.5-.2zM4.9 16.8c-3.8 0-3.7 5.9.2 5.7 3.5-.2 3.4-5.7-.2-5.7zm-.1 4.9c-2.7 0-2.6-4.2.1-4.1 2.7 0 2.6 4.1-.1 4.1zM26.4 16.6c-3.7 0-3.7 5.7-.1 5.7 3.7.1 3.8-5.6.1-5.7zm-.1 5c-2.7 0-2.6-4.1 0-4.1 2.7-.1 2.7 4.1 0 4.1-1.1-.1 1.2 0 0 0zM3.4 18.6l-.3.7h.9l-.6-.7c-.1.3.2.3 0 0zM4.5 17.9c-.1.1-.3.2-.5.2l.6.7c-.1-.2-.1-.6-.1-.9-.2.1 0 .3 0 0zM6.6 19.3l-.3-.6-.7.6h1c-.1-.2-.3 0 0 0zM6.4 20.6c.1-.2.2-.4.2-.6h-.9c.2.2.4.4.7.6 0-.2-.3-.2 0 0zM4 20h-.8c.1.2.2.4.2.6.1-.1.7-.5.6-.6zM4.6 21.4v-1l-.6.7c.1.1.3.2.6.3 0-.4-.3-.1 0 0zM5.2 21.4l.6-.3c-.2-.2-.4-.4-.6-.7v1c.3-.1 0-.4 0 0zM5.2 17.9v.9l.6-.6-.6-.3c0 .3.2.1 0 0zM4.9 19.4c-.3.3-.2.3 0 .6.2-.3.3-.3 0-.6-.1.1 0 .1 0 0zM26.7 21.2c.2-.1.4-.2.6-.2l-.6-.7v.9c.2-.1 0-.3 0 0zM26 21.2v-.9c-.2.2-.4.4-.6.7l.6.2c0-.3-.2-.1 0 0zM26.7 17.8v.9l.6-.6c-.2-.2-.4-.3-.6-.3 0 .3.2.1 0 0zM26 17.8l-.6.3.6.7v-1c-.2.1 0 .3 0 0zM27.8 20.5c.1-.2.2-.4.3-.7h-.9l.6.7c.1-.2-.2-.2 0 0zM24.6 19.8c.1.2.2.4.2.6l.7-.6h-.9c.1.2.4 0 0 0zM28.1 19.2c-.1-.2-.2-.4-.3-.7-.2.2-.4.4-.6.7h.9c-.1-.3-.3 0 0 0zM24.9 18.5c-.1.2-.2.4-.2.6h.9c-.3-.2-.5-.4-.7-.6-.1.2.2.2 0 0zM26.4 19.3c-.4.1-.2.6.3.2-.1-.1-.2-.2-.3-.2z"></path>
  </symbol>

  <symbol id="money_next_turn" viewBox="0 0 32 32">
    <title>money_next_turn</title>
    <path d="M14.6 11.5l-3.6.6-.2-.6c-.2-.9-.4-1.7-.4-2.6 0-.5.1-.9.4-1.3 1.1-1.7 3.3-2.1 5-1.1.7.5 1.2.9 1.8 1.4.1-.5.3-1.4 1.3-1.4h.8l-.4-.5c-1.4-1.5-3.1-2.5-5-3.2-1.9-.7-3.8-.6-5.6.4-.9.5-1.7 1.1-2.3 1.9-.8.9-1.2 2-1.4 3.2-.3 1.5-.2 3 .1 4.5l.1.3-5.1.9c3.1 2.2 6.2 4.4 9.2 6.6l5.8-8.2-.5-.9zM19.4 8.7c-.3.3-.3.8-1 1.3-.8.6-3.3-.8-2.2 1.4l2 3.2s1.5 1.6 4.9 0c0 0-.2-2 1.6-3.9.3-.3.2-1.8-1.3-1.2-.3.1-.6.5-1.2.1-.4-.2-1.7-2.2-2.8-.9zm1 2.2l1.2 1.1-.3.5-.9-.8-1 .8-.3-.5 1.3-1.1zM19.8 20.6c-.4.4-.5 1.1-.5 2 0 1 .2 1.7.5 2.1.3.3.6.5 1 .6v-5.3c-.4.1-.7.3-1 .6zM31.8 24c-2.5-7.6-8.9-8.3-8.9-8.3-1.6 1.2-4.4.1-4.4.1-4 .9-8.6 6.8-7.7 10.3l7.1 3.4h7.9c7.5-.3 6-5.5 6-5.5zm-10.2 2.8v1h-.8v-1c-.9-.1-1.6-.4-2.2-1.1-.7-.7-1-1.7-1-2.9 0-1.3.3-2.3 1-3.1.6-.6 1.3-1 2.2-1.1v-.5h.8v.5c.8.1 1.5.3 2 .8.4.3.6.8.8 1.4l-1.6.4c-.1-.4-.3-.7-.6-1-.2-.2-.4-.3-.7-.3v5.3c.7-.2 1.1-.7 1.3-1.6l1.5.5c-.2 1.7-1.2 2.6-2.7 2.7z"></path>
  </symbol>
</svg>
