<svg xmlns="http://www.w3.org/2000/svg" style="display: none;">
    <symbol id="Svg--rules" viewBox="0 0 19.2 20.7">
      <title>Règle du jeu</title>
		<path fill-rule="evenodd" clip-rule="evenodd" d="M11.8 20.7h-.2l-.3-.1-9.3-3c-.7-.2-1.2-.6-1.5-1.2-.6-1.1-.6-2.3 0-3.4.1-.1 0-.2 0-.3-.1-.3-.3-.6-.4-1-.1-.3-.1-.8-.1-1.2 0-1 .3-1.8 1-2.6l2.7-3c1.4-1.5 2.7-3 4.1-4.6.3-.3.6-.4 1-.3l9.4 2.1c.1 0 .2 0 .3.1.7.2.9.7.4 1.3-2.4 2.8-4.8 5.6-7.2 8.5-.3.3-.6.4-1 .3l-6.5-2c-.4-.1-.9-.3-1.5-.5-.5-.1-.9.1-1.1.5-.1.5-.1 1 .1 1.4.1.3.3.4.5.5l9 2.7c.2.1.3 0 .4-.1l5.8-7.2c.1-.1.1-.3.1-.4-.1-.5 0-1 .2-1.5s1-.6 1.3-.1c.2.3.2.5.1.8l-.1.7c.1.4.1.7 0 1.1-.3 1-.4 2 0 3.1.2.4.1.8-.2 1.1l-6.4 7.8c-.1.2-.3.4-.6.5zm5.4-10.3l-.2.2-4.6 5.7c-.3.4-.6.5-1.1.3l-9.2-2.8c-.2-.1-.3 0-.4.2-.2.4-.2.8-.1 1.3.2.4.4.7.9.9 2.9.9 5.8 1.8 8.7 2.8.2 0 .2 0 .3-.1l2-2.4 3.9-4.7c.1-.1.1-.2.1-.2-.1-.5-.2-.9-.3-1.2zm-4.6-5.1c.4 0 .6-.1.7-.3s.3-.4.5-.6c.1-.2.1-.3-.1-.4h-.2l-2.4-.6c-.9-.2-1.7-.4-2.5-.6-.4-.1-.8 0-1.1.3l-.3.3c-.3.4-.2.6.2.7h.1c1.3.3 2.6.6 4 1 .3.1.8.2 1.1.2z"></path>
    </symbol>
</svg>
