<?xml version="1.0" encoding="UTF-8" standalone="no"?>
<!DOCTYPE svg PUBLIC "-//W3C//DTD SVG 1.1//EN"
 "http://www.w3.org/Graphics/SVG/1.1/DTD/svg11.dtd">
<!-- Generated by graphviz version 2.26.3 (20100126.1600)
 -->
<!-- Title: g Pages: 1 -->
<svg width="793pt" height="517pt"
 viewBox="0.00 0.00 793.00 517.00" xmlns="http://www.w3.org/2000/svg" xmlns:xlink="http://www.w3.org/1999/xlink">
<g id="graph1" class="graph" transform="scale(1 1) rotate(0) translate(4 513)">
<title>g</title>
<g id="graph2" class="cluster"><title>cluster_nikkei</title>
<polygon fill="none" stroke="black" points="8,-290 8,-388 417,-388 417,-290 8,-290"/>
<text text-anchor="middle" x="212.5" y="-371.4" font-family="Times Roman,serif" font-size="14.00">Nikkei</text>
</g>
<g id="graph3" class="cluster"><title>cluster_dowjones</title>
<polygon fill="none" stroke="black" points="469,-218 469,-422 777,-422 777,-218 469,-218"/>
<text text-anchor="middle" x="623" y="-405.4" font-family="Times Roman,serif" font-size="14.00">Dow Jones</text>
</g>
<!-- aztechnology -->
<g id="node1" class="node"><title>aztechnology</title>
<ellipse fill="burlywood" stroke="black" cx="356" cy="-491" rx="77.7817" ry="18.3848"/>
<text text-anchor="middle" x="356" y="-487.4" font-family="Times Roman,serif" font-size="14.00">Aztechnology</text>
</g>
<!-- horizon -->
<g id="node2" class="node"><title>horizon</title>
<ellipse fill="burlywood" stroke="black" cx="547" cy="-468" rx="50.2046" ry="18.3848"/>
<text text-anchor="middle" x="547" y="-464.4" font-family="Times Roman,serif" font-size="14.00">Horizon</text>
</g>
<!-- aztechnology&#45;&gt;horizon -->
<g id="edge8" class="edge"><title>aztechnology&#45;&gt;horizon</title>
<path fill="none" stroke="red" d="M425.225,-482.664C446.323,-480.123 469.275,-477.36 489.507,-474.923"/>
<polygon fill="red" stroke="red" points="489.997,-478.39 499.507,-473.719 489.16,-471.44 489.997,-478.39"/>
</g>
<!-- dernier -->
<g id="node6" class="node"><title>dernier</title>
<polygon fill="#fcd975" stroke="black" points="758,-506.5 682,-506.5 682,-429.5 758,-429.5 758,-506.5"/>
<text text-anchor="middle" x="720" y="-464.4" font-family="Times Roman,serif" font-size="14.00">Dernière</text>
</g>
<!-- aztechnology&#45;&gt;dernier -->
<g id="edge10" class="edge"><title>aztechnology&#45;&gt;dernier</title>
<path fill="none" stroke="red" d="M428.023,-497.965C482.184,-501.78 558.082,-504.093 624,-495 639.757,-492.826 656.569,-488.735 671.649,-484.383"/>
<polygon fill="red" stroke="red" points="672.702,-487.721 681.28,-481.503 670.697,-481.015 672.702,-487.721"/>
</g>
<!-- horizon&#45;&gt;dernier -->
<g id="edge12" class="edge"><title>horizon&#45;&gt;dernier</title>
<path fill="none" stroke="red" d="M594.273,-461.909C618.171,-461.048 647.137,-461.031 671.24,-461.857"/>
<polygon fill="red" stroke="red" points="671.109,-465.354 681.243,-462.263 671.393,-458.36 671.109,-465.354"/>
</g>
<!-- horizon&#45;&gt;dernier -->
<g id="edge14" class="edge"><title>horizon&#45;&gt;dernier</title>
<path fill="none" stroke="red" d="M594.273,-474.091C618.171,-474.952 647.137,-474.969 671.24,-474.143"/>
<polygon fill="red" stroke="red" points="671.393,-477.64 681.243,-473.737 671.109,-470.646 671.393,-477.64"/>
</g>
<!-- saederkrupp -->
<g id="node3" class="node"><title>saederkrupp</title>
<ellipse fill="burlywood" stroke="black" cx="547" cy="-37" rx="77.0746" ry="18.3848"/>
<text text-anchor="middle" x="547" y="-33.4" font-family="Times Roman,serif" font-size="14.00">Saeder&#45;Krupp</text>
</g>
<!-- second -->
<g id="node4" class="node"><title>second</title>
<polygon fill="#fcd975" stroke="black" points="757,-74 683,-74 683,-3.55271e-14 757,-1.42109e-14 757,-74"/>
<text text-anchor="middle" x="720" y="-33.4" font-family="Times Roman,serif" font-size="14.00">Seconde</text>
</g>
<!-- saederkrupp&#45;&gt;second -->
<g id="edge28" class="edge"><title>saederkrupp&#45;&gt;second</title>
<path fill="none" stroke="red" d="M618.615,-30.3396C636.936,-30.117 656.175,-30.3091 672.911,-30.9158"/>
<polygon fill="red" stroke="red" points="672.837,-34.4158 682.978,-31.3472 673.137,-27.4222 672.837,-34.4158"/>
</g>
<!-- saederkrupp&#45;&gt;second -->
<g id="edge30" class="edge"><title>saederkrupp&#45;&gt;second</title>
<path fill="none" stroke="red" d="M618.615,-43.6604C636.936,-43.883 656.175,-43.6909 672.911,-43.0842"/>
<polygon fill="red" stroke="red" points="673.137,-46.5778 682.978,-42.6528 672.837,-39.5842 673.137,-46.5778"/>
</g>
<!-- avantdernier -->
<g id="node5" class="node"><title>avantdernier</title>
<polygon fill="#fcd975" stroke="black" points="779,-210.5 661,-210.5 661,-91.5 779,-91.5 779,-210.5"/>
<text text-anchor="middle" x="720" y="-147.4" font-family="Times Roman,serif" font-size="14.00">Avant&#45;dernière</text>
</g>
<!-- sony -->
<g id="node8" class="node"><title>sony</title>
<ellipse fill="burlywood" stroke="black" cx="52" cy="-316" rx="36.0624" ry="18.3848"/>
<text text-anchor="middle" x="52" y="-312.4" font-family="Times Roman,serif" font-size="14.00">Sony</text>
</g>
<!-- shiawase -->
<g id="node9" class="node"><title>shiawase</title>
<ellipse fill="burlywood" stroke="black" cx="183" cy="-316" rx="58.1882" ry="18.3848"/>
<text text-anchor="middle" x="183" y="-312.4" font-family="Times Roman,serif" font-size="14.00">Shiawase</text>
</g>
<!-- sony&#45;&gt;shiawase -->
<g id="edge38" class="edge"><title>sony&#45;&gt;shiawase</title>
<path fill="none" stroke="green" d="M86.0767,-309.994C96.0019,-309.485 107.189,-309.237 118.343,-309.25"/>
<polygon fill="green" stroke="green" points="118.511,-312.752 128.54,-309.336 118.57,-305.752 118.511,-312.752"/>
</g>
<!-- renraku -->
<g id="node10" class="node"><title>renraku</title>
<ellipse fill="burlywood" stroke="black" cx="356" cy="-316" rx="51.8276" ry="18.3848"/>
<text text-anchor="middle" x="356" y="-312.4" font-family="Times Roman,serif" font-size="14.00">Renraku</text>
</g>
<!-- sony&#45;&gt;renraku -->
<g id="edge36" class="edge"><title>sony&#45;&gt;renraku</title>
<path fill="none" stroke="green" d="M78.3603,-328.486C91.7116,-334.132 108.368,-340.165 124,-343 175.603,-352.357 189.91,-349.084 242,-343 263.43,-340.497 286.674,-335.432 306.549,-330.359"/>
<polygon fill="green" stroke="green" points="307.524,-333.721 316.309,-327.799 305.748,-326.95 307.524,-333.721"/>
</g>
<!-- shiawase&#45;&gt;sony -->
<g id="edge34" class="edge"><title>shiawase&#45;&gt;sony</title>
<path fill="none" stroke="green" d="M128.54,-322.664C117.752,-322.833 106.552,-322.752 96.1578,-322.421"/>
<polygon fill="green" stroke="green" points="96.2123,-318.92 86.0767,-322.006 95.9243,-325.914 96.2123,-318.92"/>
</g>
<!-- shiawase&#45;&gt;renraku -->
<g id="edge32" class="edge"><title>shiawase&#45;&gt;renraku</title>
<path fill="none" stroke="red" d="M238.214,-309.659C256.737,-309.154 277.471,-309.117 296.32,-309.547"/>
<polygon fill="red" stroke="red" points="296.478,-313.053 306.572,-309.834 296.674,-306.055 296.478,-313.053"/>
</g>
<!-- renraku&#45;&gt;shiawase -->
<g id="edge26" class="edge"><title>renraku&#45;&gt;shiawase</title>
<path fill="none" stroke="red" d="M306.572,-322.166C288.478,-322.772 267.716,-322.906 248.439,-322.569"/>
<polygon fill="red" stroke="red" points="248.289,-319.065 238.214,-322.341 248.133,-326.063 248.289,-319.065"/>
</g>
<!-- neonet -->
<g id="node13" class="node"><title>neonet</title>
<ellipse fill="burlywood" stroke="black" cx="547" cy="-316" rx="50.9117" ry="18.3848"/>
<text text-anchor="middle" x="547" y="-312.4" font-family="Times Roman,serif" font-size="14.00">NeoNET</text>
</g>
<!-- renraku&#45;&gt;neonet -->
<g id="edge24" class="edge"><title>renraku&#45;&gt;neonet</title>
<path fill="none" stroke="red" d="M408.697,-316C432.571,-316 460.945,-316 485.76,-316"/>
<polygon fill="red" stroke="red" points="485.794,-319.5 495.794,-316 485.794,-312.5 485.794,-319.5"/>
</g>
<!-- ares -->
<g id="node12" class="node"><title>ares</title>
<ellipse fill="burlywood" stroke="black" cx="547" cy="-370" rx="33.234" ry="18.3848"/>
<text text-anchor="middle" x="547" y="-366.4" font-family="Times Roman,serif" font-size="14.00">Ares</text>
</g>
<!-- ares&#45;&gt;avantdernier -->
<g id="edge4" class="edge"><title>ares&#45;&gt;avantdernier</title>
<path fill="none" stroke="green" d="M579.264,-365.739C594.732,-362.113 612.377,-355.405 624,-343 662.472,-301.938 634.106,-269.483 657.695,-219.024"/>
<polygon fill="green" stroke="green" points="660.837,-220.569 662.334,-210.081 654.623,-217.346 660.837,-220.569"/>
</g>
<!-- ares&#45;&gt;dernier -->
<g id="edge6" class="edge"><title>ares&#45;&gt;dernier</title>
<path fill="none" stroke="green" d="M578.7,-375.471C593.156,-378.846 610.106,-384.089 624,-392 643.125,-402.889 642.94,-412.097 660,-426 664.189,-429.414 668.641,-432.852 673.153,-436.212"/>
<polygon fill="green" stroke="green" points="671.154,-439.086 681.295,-442.153 675.28,-433.431 671.154,-439.086"/>
</g>
<!-- neonet&#45;&gt;second -->
<g id="edge18" class="edge"><title>neonet&#45;&gt;second</title>
<path fill="none" stroke="red" d="M593.346,-308.387C604.846,-304.388 616.121,-298.292 624,-289 684.108,-218.11 611.828,-162.485 660,-83 663.929,-76.5175 669.138,-70.6188 674.851,-65.3705"/>
<polygon fill="red" stroke="red" points="677.476,-67.7362 682.879,-58.6229 672.972,-62.3774 677.476,-67.7362"/>
</g>
<!-- spinrad -->
<g id="node15" class="node"><title>spinrad</title>
<ellipse fill="burlywood" stroke="black" cx="720" cy="-316" rx="48.7904" ry="18.3848"/>
<text text-anchor="middle" x="720" y="-312.4" font-family="Times Roman,serif" font-size="14.00">Spinrad</text>
</g>
<!-- neonet&#45;&gt;spinrad -->
<g id="edge16" class="edge"><title>neonet&#45;&gt;spinrad</title>
<path fill="none" stroke="red" d="M598.437,-316C618.035,-316 640.522,-316 660.784,-316"/>
<polygon fill="red" stroke="red" points="660.839,-319.5 670.839,-316 660.839,-312.5 660.839,-319.5"/>
</g>
<!-- prometheus -->
<g id="node14" class="node"><title>prometheus</title>
<ellipse fill="burlywood" stroke="black" cx="547" cy="-244" rx="70.0036" ry="18.3848"/>
<text text-anchor="middle" x="547" y="-240.4" font-family="Times Roman,serif" font-size="14.00">Prometheus</text>
</g>
<!-- prometheus&#45;&gt;second -->
<g id="edge22" class="edge"><title>prometheus&#45;&gt;second</title>
<path fill="none" stroke="green" d="M606.143,-234.213C612.778,-231.156 618.952,-227.175 624,-222 668.56,-176.317 624.757,-136.202 660,-83 664.086,-76.8311 669.283,-71.1484 674.902,-66.037"/>
<polygon fill="green" stroke="green" points="677.36,-68.5431 682.762,-59.4289 672.856,-63.185 677.36,-68.5431"/>
</g>
<!-- prometheus&#45;&gt;prometheus -->
<g id="edge20" class="edge"><title>prometheus&#45;&gt;prometheus</title>
<path fill="none" stroke="green" d="M517.025,-260.29C509.798,-270.389 519.789,-280 547,-280 564.432,-280 574.797,-276.056 578.095,-270.566"/>
<polygon fill="green" stroke="green" points="581.538,-269.852 576.975,-260.29 574.58,-270.611 581.538,-269.852"/>
</g>
<!-- spinrad&#45;&gt;spinrad -->
<g id="edge40" class="edge"><title>spinrad&#45;&gt;spinrad</title>
<path fill="none" stroke="green" d="M704.647,-333.41C701.781,-343.088 706.898,-352 720,-352 728.188,-352 733.258,-348.519 735.209,-343.545"/>
<polygon fill="green" stroke="green" points="738.711,-343.459 735.353,-333.41 731.712,-343.359 738.711,-343.459"/>
</g>
<!-- spinrad&#45;&gt;spinrad -->
<g id="edge42" class="edge"><title>spinrad&#45;&gt;spinrad</title>
<path fill="none" stroke="green" d="M696.066,-331.755C679.604,-349.539 687.582,-370 720,-370 747.353,-370 757.306,-355.433 749.86,-340.199"/>
<polygon fill="green" stroke="green" points="752.543,-337.929 743.934,-331.755 746.814,-341.95 752.543,-337.929"/>
</g>
</g>
</svg>
