<?xml version="1.0" encoding="UTF-8" standalone="no"?>
<!DOCTYPE svg PUBLIC "-//W3C//DTD SVG 1.1//EN"
 "http://www.w3.org/Graphics/SVG/1.1/DTD/svg11.dtd">
<!-- Generated by graphviz version 2.26.3 (20100126.1600)
 -->
<!-- Title: g Pages: 1 -->
<svg width="732pt" height="479pt"
 viewBox="0.00 0.00 732.00 479.00" xmlns="http://www.w3.org/2000/svg" xmlns:xlink="http://www.w3.org/1999/xlink">
<g id="graph1" class="graph" transform="scale(1 1) rotate(0) translate(4 475)">
<title>g</title>
<g id="graph2" class="cluster"><title>cluster_nikkei</title>
<polygon fill="none" stroke="black" points="192,-53 192,-151 576,-151 576,-53 192,-53"/>
<text text-anchor="middle" x="384" y="-134.4" font-family="Times Roman,serif" font-size="14.00">Nikkei</text>
</g>
<g id="graph3" class="cluster"><title>cluster_dowjones</title>
<polygon fill="none" stroke="black" points="8,-8 8,-284 164,-284 164,-8 8,-8"/>
<text text-anchor="middle" x="86" y="-267.4" font-family="Times Roman,serif" font-size="14.00">Dow Jones</text>
</g>
<!-- aztechnology -->
<g id="node1" class="node"><title>aztechnology</title>
<ellipse fill="burlywood" stroke="black" cx="86" cy="-363" rx="77.7817" ry="18.3848"/>
<text text-anchor="middle" x="86" y="-359.4" font-family="Times Roman,serif" font-size="14.00">Aztechnology</text>
</g>
<!-- horizon -->
<g id="node2" class="node"><title>horizon</title>
<ellipse fill="burlywood" stroke="black" cx="253" cy="-363" rx="50.2046" ry="18.3848"/>
<text text-anchor="middle" x="253" y="-359.4" font-family="Times Roman,serif" font-size="14.00">Horizon</text>
</g>
<!-- aztechnology&#45;&gt;horizon -->
<g id="edge9" class="edge"><title>aztechnology&#45;&gt;horizon</title>
<path fill="none" stroke="green" d="M141.145,-350.217C161.614,-349.143 184.662,-349.276 204.495,-350.614"/>
<polygon fill="green" stroke="green" points="204.293,-354.109 214.542,-351.424 204.856,-347.132 204.293,-354.109"/>
</g>
<!-- aztechnology&#45;&gt;horizon -->
<g id="edge11" class="edge"><title>aztechnology&#45;&gt;horizon</title>
<path fill="none" stroke="green" d="M164.121,-363C173.62,-363 183.211,-363 192.402,-363"/>
<polygon fill="green" stroke="green" points="192.581,-366.5 202.581,-363 192.581,-359.5 192.581,-366.5"/>
</g>
<!-- horizon&#45;&gt;aztechnology -->
<g id="edge13" class="edge"><title>horizon&#45;&gt;aztechnology</title>
<path fill="none" stroke="green" d="M214.542,-374.576C195.751,-376.359 172.618,-376.903 151.179,-376.207"/>
<polygon fill="green" stroke="green" points="151.284,-372.708 141.145,-375.783 150.988,-379.702 151.284,-372.708"/>
</g>
<!-- premier -->
<g id="node4" class="node"><title>premier</title>
<polygon fill="#fcd975" stroke="black" points="440,-237 362,-237 362,-159 440,-159 440,-237"/>
<text text-anchor="middle" x="401" y="-194.4" font-family="Times Roman,serif" font-size="14.00">Première</text>
</g>
<!-- horizon&#45;&gt;premier -->
<g id="edge15" class="edge"><title>horizon&#45;&gt;premier</title>
<path fill="none" stroke="red" d="M282.275,-348.21C290.435,-343.346 298.98,-337.499 306,-331 332.775,-306.213 356.62,-272.772 373.723,-245.624"/>
<polygon fill="red" stroke="red" points="376.744,-247.394 379.035,-237.05 370.793,-243.708 376.744,-247.394"/>
</g>
<!-- saederkrupp -->
<g id="node3" class="node"><title>saederkrupp</title>
<ellipse fill="burlywood" stroke="black" cx="86" cy="-417" rx="77.0746" ry="18.3848"/>
<text text-anchor="middle" x="86" y="-413.4" font-family="Times Roman,serif" font-size="14.00">Saeder&#45;Krupp</text>
</g>
<!-- saederkrupp&#45;&gt;saederkrupp -->
<g id="edge29" class="edge"><title>saederkrupp&#45;&gt;saederkrupp</title>
<path fill="none" stroke="green" d="M71.0796,-434.782C68.5441,-444.315 73.5176,-453 86,-453 93.6065,-453 98.4246,-449.775 100.454,-445.098"/>
<polygon fill="green" stroke="green" points="103.965,-444.93 100.92,-434.782 96.9726,-444.614 103.965,-444.93"/>
</g>
<!-- saederkrupp&#45;&gt;saederkrupp -->
<g id="edge31" class="edge"><title>saederkrupp&#45;&gt;saederkrupp</title>
<path fill="none" stroke="green" d="M61.714,-434.142C47.4281,-451.585 55.5234,-471 86,-471 111.477,-471 121.313,-457.433 115.51,-442.792"/>
<polygon fill="green" stroke="green" points="118.452,-440.892 110.286,-434.142 112.46,-444.511 118.452,-440.892"/>
</g>
<!-- second -->
<g id="node5" class="node"><title>second</title>
<polygon fill="#fcd975" stroke="black" points="290,-289 216,-289 216,-215 290,-215 290,-289"/>
<text text-anchor="middle" x="253" y="-248.4" font-family="Times Roman,serif" font-size="14.00">Seconde</text>
</g>
<!-- avantdernier -->
<g id="node6" class="node"><title>avantdernier</title>
<polygon fill="#fcd975" stroke="black" points="723,-135.5 605,-135.5 605,-16.5 723,-16.5 723,-135.5"/>
<text text-anchor="middle" x="664" y="-72.4" font-family="Times Roman,serif" font-size="14.00">Avant&#45;dernière</text>
</g>
<!-- sony -->
<g id="node8" class="node"><title>sony</title>
<ellipse fill="burlywood" stroke="black" cx="532" cy="-99" rx="36.0624" ry="18.3848"/>
<text text-anchor="middle" x="532" y="-95.4" font-family="Times Roman,serif" font-size="14.00">Sony</text>
</g>
<!-- sony&#45;&gt;avantdernier -->
<g id="edge37" class="edge"><title>sony&#45;&gt;avantdernier</title>
<path fill="none" stroke="red" d="M560.968,-88.2532C570.929,-85.883 582.553,-83.5103 594.334,-81.398"/>
<polygon fill="red" stroke="red" points="594.974,-84.8394 604.234,-79.6907 593.784,-77.9413 594.974,-84.8394"/>
</g>
<!-- sony&#45;&gt;avantdernier -->
<g id="edge39" class="edge"><title>sony&#45;&gt;avantdernier</title>
<path fill="none" stroke="red" d="M568.07,-98.806C576.31,-97.7593 585.34,-96.4027 594.461,-94.858"/>
<polygon fill="red" stroke="red" points="595.119,-98.2961 604.36,-93.1139 593.904,-91.4023 595.119,-98.2961"/>
</g>
<!-- shiawase -->
<g id="node9" class="node"><title>shiawase</title>
<ellipse fill="burlywood" stroke="black" cx="401" cy="-79" rx="58.1882" ry="18.3848"/>
<text text-anchor="middle" x="401" y="-75.4" font-family="Times Roman,serif" font-size="14.00">Shiawase</text>
</g>
<!-- shiawase&#45;&gt;avantdernier -->
<g id="edge33" class="edge"><title>shiawase&#45;&gt;avantdernier</title>
<path fill="none" stroke="red" d="M457.476,-74.1521C470.142,-73.2562 483.522,-72.4591 496,-72 531.532,-70.6927 540.454,-71.1925 576,-72 581.877,-72.1335 587.973,-72.3171 594.09,-72.5327"/>
<polygon fill="red" stroke="red" points="594.243,-76.0409 604.369,-72.9226 594.508,-69.046 594.243,-76.0409"/>
</g>
<!-- shiawase&#45;&gt;sony -->
<g id="edge35" class="edge"><title>shiawase&#45;&gt;sony</title>
<path fill="none" stroke="red" d="M453.528,-87.0195C464.748,-88.7325 476.497,-90.5263 487.386,-92.1887"/>
<polygon fill="red" stroke="red" points="487.103,-95.686 497.517,-93.7354 488.16,-88.7662 487.103,-95.686"/>
</g>
<!-- renraku -->
<g id="node10" class="node"><title>renraku</title>
<ellipse fill="burlywood" stroke="black" cx="253" cy="-99" rx="51.8276" ry="18.3848"/>
<text text-anchor="middle" x="253" y="-95.4" font-family="Times Roman,serif" font-size="14.00">Renraku</text>
</g>
<!-- renraku&#45;&gt;sony -->
<g id="edge25" class="edge"><title>renraku&#45;&gt;sony</title>
<path fill="none" stroke="red" d="M303.79,-103.687C316.273,-104.647 329.61,-105.514 342,-106 394.404,-108.058 407.617,-108.54 460,-106 468.655,-105.58 477.876,-104.878 486.727,-104.077"/>
<polygon fill="red" stroke="red" points="487.274,-107.54 496.893,-103.101 486.605,-100.572 487.274,-107.54"/>
</g>
<!-- renraku&#45;&gt;shiawase -->
<g id="edge27" class="edge"><title>renraku&#45;&gt;shiawase</title>
<path fill="none" stroke="green" d="M301.871,-92.3958C313.137,-90.8734 325.285,-89.2318 337.084,-87.6373"/>
<polygon fill="green" stroke="green" points="337.891,-91.0601 347.332,-86.2524 336.954,-84.1232 337.891,-91.0601"/>
</g>
<!-- ares -->
<g id="node12" class="node"><title>ares</title>
<ellipse fill="burlywood" stroke="black" cx="86" cy="-232" rx="33.234" ry="18.3848"/>
<text text-anchor="middle" x="86" y="-228.4" font-family="Times Roman,serif" font-size="14.00">Ares</text>
</g>
<!-- ares&#45;&gt;premier -->
<g id="edge5" class="edge"><title>ares&#45;&gt;premier</title>
<path fill="none" stroke="red" d="M118.332,-235.725C133.363,-238.736 150.791,-244.176 164,-254 182.599,-267.833 171.681,-286.846 192,-298 236.415,-322.381 259.442,-317.988 306,-298 331.545,-287.033 353.457,-265.449 369.779,-245.132"/>
<polygon fill="red" stroke="red" points="372.618,-247.183 375.979,-237.135 367.085,-242.894 372.618,-247.183"/>
</g>
<!-- ares&#45;&gt;second -->
<g id="edge7" class="edge"><title>ares&#45;&gt;second</title>
<path fill="none" stroke="red" d="M118.596,-235.904C143.45,-238.88 178.036,-243.022 205.898,-246.359"/>
<polygon fill="red" stroke="red" points="205.483,-249.834 215.829,-247.548 206.316,-242.884 205.483,-249.834"/>
</g>
<!-- neonet -->
<g id="node13" class="node"><title>neonet</title>
<ellipse fill="burlywood" stroke="black" cx="86" cy="-106" rx="50.9117" ry="18.3848"/>
<text text-anchor="middle" x="86" y="-102.4" font-family="Times Roman,serif" font-size="14.00">NeoNET</text>
</g>
<!-- neonet&#45;&gt;renraku -->
<g id="edge19" class="edge"><title>neonet&#45;&gt;renraku</title>
<path fill="none" stroke="green" d="M137.013,-103.862C153.932,-103.153 172.959,-102.355 190.634,-101.614"/>
<polygon fill="green" stroke="green" points="191.013,-105.101 200.858,-101.186 190.72,-98.1076 191.013,-105.101"/>
</g>
<!-- neonet&#45;&gt;neonet -->
<g id="edge17" class="edge"><title>neonet&#45;&gt;neonet</title>
<path fill="none" stroke="green" d="M57.9146,-121.167C49.4038,-131.664 58.7656,-142 86,-142 104.298,-142 114.528,-137.334 116.69,-131.088"/>
<polygon fill="green" stroke="green" points="120.01,-129.95 114.085,-121.167 113.24,-131.728 120.01,-129.95"/>
</g>
<!-- prometheus -->
<g id="node14" class="node"><title>prometheus</title>
<ellipse fill="burlywood" stroke="black" cx="86" cy="-178" rx="70.0036" ry="18.3848"/>
<text text-anchor="middle" x="86" y="-174.4" font-family="Times Roman,serif" font-size="14.00">Prometheus</text>
</g>
<!-- prometheus&#45;&gt;premier -->
<g id="edge21" class="edge"><title>prometheus&#45;&gt;premier</title>
<path fill="none" stroke="green" d="M155.909,-176.719C215.382,-178.928 299.289,-184.476 351.885,-189.823"/>
<polygon fill="green" stroke="green" points="351.657,-193.318 361.97,-190.889 352.393,-186.357 351.657,-193.318"/>
</g>
<!-- prometheus&#45;&gt;premier -->
<g id="edge23" class="edge"><title>prometheus&#45;&gt;premier</title>
<path fill="none" stroke="green" d="M146.362,-187.279C205.941,-192.916 295.944,-198.507 351.458,-199.929"/>
<polygon fill="green" stroke="green" points="351.671,-203.435 361.744,-200.151 351.822,-196.436 351.671,-203.435"/>
</g>
<!-- spinrad -->
<g id="node15" class="node"><title>spinrad</title>
<ellipse fill="burlywood" stroke="black" cx="86" cy="-34" rx="48.7904" ry="18.3848"/>
<text text-anchor="middle" x="86" y="-30.4" font-family="Times Roman,serif" font-size="14.00">Spinrad</text>
</g>
<!-- spinrad&#45;&gt;avantdernier -->
<g id="edge43" class="edge"><title>spinrad&#45;&gt;avantdernier</title>
<path fill="none" stroke="green" d="M134.752,-31.2238C223.321,-27.1237 416.256,-22.5397 576,-49 582.104,-50.0111 588.375,-51.334 594.623,-52.8513"/>
<polygon fill="green" stroke="green" points="593.835,-56.2628 604.393,-55.3786 595.588,-49.4858 593.835,-56.2628"/>
</g>
<!-- spinrad&#45;&gt;spinrad -->
<g id="edge41" class="edge"><title>spinrad&#45;&gt;spinrad</title>
<path fill="none" stroke="red" d="M57.9146,-49.1666C49.4038,-59.6641 58.7656,-70 86,-70 104.298,-70 114.528,-65.3342 116.69,-59.0884"/>
<polygon fill="red" stroke="red" points="120.01,-57.95 114.085,-49.1666 113.24,-59.7276 120.01,-57.95"/>
</g>
</g>
</svg>
