<?xml version="1.0" encoding="UTF-8" standalone="no"?>
<!DOCTYPE svg PUBLIC "-//W3C//DTD SVG 1.1//EN"
 "http://www.w3.org/Graphics/SVG/1.1/DTD/svg11.dtd">
<!-- Generated by graphviz version 2.26.3 (20100126.1600)
 -->
<!-- Title: g Pages: 1 -->
<svg width="484pt" height="490pt"
 viewBox="0.00 0.00 484.00 490.00" xmlns="http://www.w3.org/2000/svg" xmlns:xlink="http://www.w3.org/1999/xlink">
<g id="graph1" class="graph" transform="scale(1 1) rotate(0) translate(4 486)">
<title>g</title>
<!-- ares -->
<g id="node1" class="node"><title>ares</title>
<ellipse fill="burlywood" stroke="black" cx="262" cy="-118" rx="31.8198" ry="18.3848"/>
<text text-anchor="middle" x="262" y="-114.4" font-family="Times Roman,serif" font-size="14.00">ares</text>
</g>
<!-- avantdernier -->
<g id="node12" class="node"><title>avantdernier</title>
<polygon fill="#fcd975" stroke="black" points="476,-198 370,-198 370,-92 476,-92 476,-198"/>
<text text-anchor="middle" x="423" y="-141.4" font-family="Times Roman,serif" font-size="14.00">avantdernier</text>
</g>
<!-- ares&#45;&gt;avantdernier -->
<g id="edge2" class="edge"><title>ares&#45;&gt;avantdernier</title>
<path fill="none" stroke="green" d="M293.042,-123.206C311.987,-126.383 336.897,-130.56 359.836,-134.407"/>
<polygon fill="green" stroke="green" points="359.423,-137.887 369.864,-136.089 360.581,-130.983 359.423,-137.887"/>
</g>
<!-- dernier -->
<g id="node13" class="node"><title>dernier</title>
<polygon fill="#fcd975" stroke="black" points="456,-74 390,-74 390,-8 456,-8 456,-74"/>
<text text-anchor="middle" x="423" y="-37.4" font-family="Times Roman,serif" font-size="14.00">dernier</text>
</g>
<!-- ares&#45;&gt;dernier -->
<g id="edge4" class="edge"><title>ares&#45;&gt;dernier</title>
<path fill="none" stroke="green" d="M286.452,-106.305C311.377,-94.385 350.532,-75.6587 380.534,-61.3096"/>
<polygon fill="green" stroke="green" points="382.413,-64.2909 389.924,-56.8188 379.393,-57.976 382.413,-64.2909"/>
</g>
<!-- aztechnology -->
<g id="node2" class="node"><title>aztechnology</title>
<ellipse fill="burlywood" stroke="black" cx="77" cy="-18" rx="77.0746" ry="18.3848"/>
<text text-anchor="middle" x="77" y="-14.4" font-family="Times Roman,serif" font-size="14.00">aztechnology</text>
</g>
<!-- horizon -->
<g id="node3" class="node"><title>horizon</title>
<ellipse fill="burlywood" stroke="black" cx="262" cy="-41" rx="48.7904" ry="18.3848"/>
<text text-anchor="middle" x="262" y="-37.4" font-family="Times Roman,serif" font-size="14.00">horizon</text>
</g>
<!-- aztechnology&#45;&gt;horizon -->
<g id="edge6" class="edge"><title>aztechnology&#45;&gt;horizon</title>
<path fill="none" stroke="red" d="M145.099,-26.4664C164.923,-28.931 186.358,-31.5958 205.392,-33.9623"/>
<polygon fill="red" stroke="red" points="205.044,-37.4458 215.399,-35.2064 205.908,-30.4993 205.044,-37.4458"/>
</g>
<!-- aztechnology&#45;&gt;dernier -->
<g id="edge8" class="edge"><title>aztechnology&#45;&gt;dernier</title>
<path fill="none" stroke="red" d="M147.762,-10.7546C199.611,-6.93372 271.541,-4.73443 334,-14 349.313,-16.2717 365.639,-20.6288 380.072,-25.1907"/>
<polygon fill="red" stroke="red" points="379.133,-28.5661 389.726,-28.3585 381.316,-21.915 379.133,-28.5661"/>
</g>
<!-- horizon&#45;&gt;dernier -->
<g id="edge10" class="edge"><title>horizon&#45;&gt;dernier</title>
<path fill="none" stroke="red" d="M308.136,-34.8294C330.677,-34.0217 357.643,-34.0585 379.781,-34.9396"/>
<polygon fill="red" stroke="red" points="379.744,-38.4417 389.899,-35.4218 380.077,-31.4496 379.744,-38.4417"/>
</g>
<!-- horizon&#45;&gt;dernier -->
<g id="edge12" class="edge"><title>horizon&#45;&gt;dernier</title>
<path fill="none" stroke="red" d="M308.136,-47.1706C330.677,-47.9783 357.643,-47.9415 379.781,-47.0604"/>
<polygon fill="red" stroke="red" points="380.077,-50.5504 389.899,-46.5782 379.744,-43.5583 380.077,-50.5504"/>
</g>
<!-- neonet -->
<g id="node4" class="node"><title>neonet</title>
<ellipse fill="burlywood" stroke="black" cx="262" cy="-288" rx="45.9619" ry="18.3848"/>
<text text-anchor="middle" x="262" y="-284.4" font-family="Times Roman,serif" font-size="14.00">neonet</text>
</g>
<!-- spinrad -->
<g id="node10" class="node"><title>spinrad</title>
<ellipse fill="burlywood" stroke="black" cx="423" cy="-288" rx="46.8775" ry="18.3848"/>
<text text-anchor="middle" x="423" y="-284.4" font-family="Times Roman,serif" font-size="14.00">spinrad</text>
</g>
<!-- neonet&#45;&gt;spinrad -->
<g id="edge14" class="edge"><title>neonet&#45;&gt;spinrad</title>
<path fill="none" stroke="red" d="M308.136,-288C325.933,-288 346.489,-288 365.249,-288"/>
<polygon fill="red" stroke="red" points="365.458,-291.5 375.458,-288 365.458,-284.5 365.458,-291.5"/>
</g>
<!-- second -->
<g id="node11" class="node"><title>second</title>
<polygon fill="#fcd975" stroke="black" points="455,-424 391,-424 391,-360 455,-360 455,-424"/>
<text text-anchor="middle" x="423" y="-388.4" font-family="Times Roman,serif" font-size="14.00">second</text>
</g>
<!-- neonet&#45;&gt;second -->
<g id="edge16" class="edge"><title>neonet&#45;&gt;second</title>
<path fill="none" stroke="red" d="M286.103,-303.57C311.493,-319.97 351.923,-346.087 382.276,-365.694"/>
<polygon fill="red" stroke="red" points="380.647,-368.808 390.946,-371.295 384.446,-362.929 380.647,-368.808"/>
</g>
<!-- prometheus -->
<g id="node5" class="node"><title>prometheus</title>
<ellipse fill="burlywood" stroke="black" cx="262" cy="-446" rx="70.0036" ry="18.3848"/>
<text text-anchor="middle" x="262" y="-442.4" font-family="Times Roman,serif" font-size="14.00">prometheus</text>
</g>
<!-- prometheus&#45;&gt;prometheus -->
<g id="edge18" class="edge"><title>prometheus&#45;&gt;prometheus</title>
<path fill="none" stroke="green" d="M233.875,-462.664C227.625,-472.625 237,-482 262,-482 278.016,-482 287.619,-478.152 290.809,-472.768"/>
<polygon fill="green" stroke="green" points="294.293,-472.405 290.125,-462.664 287.309,-472.878 294.293,-472.405"/>
</g>
<!-- prometheus&#45;&gt;second -->
<g id="edge20" class="edge"><title>prometheus&#45;&gt;second</title>
<path fill="none" stroke="green" d="M304.722,-431.671C328.361,-423.742 357.621,-413.928 381.124,-406.045"/>
<polygon fill="green" stroke="green" points="382.443,-409.295 390.811,-402.796 380.217,-402.658 382.443,-409.295"/>
</g>
<!-- renraku -->
<g id="node6" class="node"><title>renraku</title>
<ellipse fill="burlywood" stroke="black" cx="77" cy="-234" rx="50.2046" ry="18.3848"/>
<text text-anchor="middle" x="77" y="-230.4" font-family="Times Roman,serif" font-size="14.00">renraku</text>
</g>
<!-- renraku&#45;&gt;neonet -->
<g id="edge22" class="edge"><title>renraku&#45;&gt;neonet</title>
<path fill="none" stroke="red" d="M116.234,-245.452C145.107,-253.88 184.485,-265.374 215.034,-274.291"/>
<polygon fill="red" stroke="red" points="214.448,-277.766 225.028,-277.208 216.409,-271.046 214.448,-277.766"/>
</g>
<!-- shiawase -->
<g id="node8" class="node"><title>shiawase</title>
<ellipse fill="burlywood" stroke="black" cx="262" cy="-234" rx="56.0679" ry="18.3848"/>
<text text-anchor="middle" x="262" y="-230.4" font-family="Times Roman,serif" font-size="14.00">shiawase</text>
</g>
<!-- renraku&#45;&gt;shiawase -->
<g id="edge24" class="edge"><title>renraku&#45;&gt;shiawase</title>
<path fill="none" stroke="red" d="M124.642,-228.012C147.124,-227.183 174.272,-227.031 198.475,-227.553"/>
<polygon fill="red" stroke="red" points="198.558,-231.057 208.645,-227.819 198.74,-224.059 198.558,-231.057"/>
</g>
<!-- saederkrupp -->
<g id="node7" class="node"><title>saederkrupp</title>
<ellipse fill="burlywood" stroke="black" cx="262" cy="-392" rx="72.1249" ry="18.3848"/>
<text text-anchor="middle" x="262" y="-388.4" font-family="Times Roman,serif" font-size="14.00">saederkrupp</text>
</g>
<!-- saederkrupp&#45;&gt;second -->
<g id="edge26" class="edge"><title>saederkrupp&#45;&gt;second</title>
<path fill="none" stroke="red" d="M329.346,-385.331C346.569,-385.118 364.617,-385.326 380.222,-385.957"/>
<polygon fill="red" stroke="red" points="380.437,-389.472 390.595,-386.461 380.777,-382.48 380.437,-389.472"/>
</g>
<!-- saederkrupp&#45;&gt;second -->
<g id="edge28" class="edge"><title>saederkrupp&#45;&gt;second</title>
<path fill="none" stroke="red" d="M329.346,-398.669C346.569,-398.882 364.617,-398.674 380.222,-398.043"/>
<polygon fill="red" stroke="red" points="380.777,-401.52 390.595,-397.539 380.437,-394.528 380.777,-401.52"/>
</g>
<!-- shiawase&#45;&gt;renraku -->
<g id="edge30" class="edge"><title>shiawase&#45;&gt;renraku</title>
<path fill="none" stroke="red" d="M208.645,-240.181C185.542,-240.894 158.444,-240.937 134.858,-240.31"/>
<polygon fill="red" stroke="red" points="134.747,-236.805 124.642,-239.988 134.527,-243.802 134.747,-236.805"/>
</g>
<!-- sony -->
<g id="node9" class="node"><title>sony</title>
<ellipse fill="burlywood" stroke="black" cx="423" cy="-234" rx="34.1461" ry="18.3848"/>
<text text-anchor="middle" x="423" y="-230.4" font-family="Times Roman,serif" font-size="14.00">sony</text>
</g>
<!-- shiawase&#45;&gt;sony -->
<g id="edge32" class="edge"><title>shiawase&#45;&gt;sony</title>
<path fill="none" stroke="green" d="M315.164,-227.609C336.223,-227.035 360.114,-227.149 380.048,-227.95"/>
<polygon fill="green" stroke="green" points="379.918,-231.448 390.075,-228.432 380.254,-224.456 379.918,-231.448"/>
</g>
<!-- sony&#45;&gt;renraku -->
<g id="edge34" class="edge"><title>sony&#45;&gt;renraku</title>
<path fill="none" stroke="green" d="M395.03,-223.195C377.738,-217.101 354.923,-210.104 334,-207 270.693,-197.609 253.56,-199.512 190,-207 168.494,-209.534 145.152,-214.691 125.296,-219.826"/>
<polygon fill="green" stroke="green" points="124.322,-216.463 115.556,-222.413 126.12,-223.228 124.322,-216.463"/>
</g>
<!-- sony&#45;&gt;shiawase -->
<g id="edge36" class="edge"><title>sony&#45;&gt;shiawase</title>
<path fill="none" stroke="green" d="M390.075,-239.568C371.391,-240.628 347.375,-240.975 325.198,-240.609"/>
<polygon fill="green" stroke="green" points="325.237,-237.11 315.164,-240.391 325.085,-244.108 325.237,-237.11"/>
</g>
<!-- spinrad&#45;&gt;spinrad -->
<g id="edge38" class="edge"><title>spinrad&#45;&gt;spinrad</title>
<path fill="none" stroke="green" d="M408.718,-305.41C406.052,-315.088 410.812,-324 423,-324 430.617,-324 435.333,-320.519 437.148,-315.545"/>
<polygon fill="green" stroke="green" points="440.65,-315.455 437.282,-305.41 433.65,-315.363 440.65,-315.455"/>
</g>
<!-- spinrad&#45;&gt;spinrad -->
<g id="edge40" class="edge"><title>spinrad&#45;&gt;spinrad</title>
<path fill="none" stroke="green" d="M400.5,-304.031C385.5,-321.75 393,-342 423,-342 448.078,-342 457.433,-327.849 451.066,-312.856"/>
<polygon fill="green" stroke="green" points="453.795,-310.622 445.5,-304.031 447.874,-314.357 453.795,-310.622"/>
</g>
</g>
</svg>
