<?xml version="1.0" encoding="UTF-8" standalone="no"?>
<!DOCTYPE svg PUBLIC "-//W3C//DTD SVG 1.1//EN"
 "http://www.w3.org/Graphics/SVG/1.1/DTD/svg11.dtd">
<!-- Generated by graphviz version 2.26.3 (20100126.1600)
 -->
<!-- Title: g Pages: 1 -->
<svg width="788pt" height="405pt"
 viewBox="0.00 0.00 788.00 405.00" xmlns="http://www.w3.org/2000/svg" xmlns:xlink="http://www.w3.org/1999/xlink">
<g id="graph1" class="graph" transform="scale(1 1) rotate(0) translate(4 401)">
<title>g</title>
<g id="graph2" class="cluster"><title>cluster_nikkei</title>
<polygon fill="none" stroke="black" points="8,-137 8,-235 417,-235 417,-137 8,-137"/>
<text text-anchor="middle" x="212.5" y="-218.4" font-family="Times Roman,serif" font-size="14.00">Nikkei</text>
</g>
<g id="graph3" class="cluster"><title>cluster_dowjones</title>
<polygon fill="none" stroke="black" points="469,-65 469,-269 625,-269 625,-65 469,-65"/>
<text text-anchor="middle" x="547" y="-252.4" font-family="Times Roman,serif" font-size="14.00">Dow Jones</text>
</g>
<!-- aztechnology -->
<g id="node1" class="node"><title>aztechnology</title>
<ellipse fill="burlywood" stroke="black" cx="356" cy="-379" rx="77.7817" ry="18.3848"/>
<text text-anchor="middle" x="356" y="-375.4" font-family="Times Roman,serif" font-size="14.00">Aztechnology</text>
</g>
<!-- horizon -->
<g id="node2" class="node"><title>horizon</title>
<ellipse fill="burlywood" stroke="black" cx="547" cy="-356" rx="50.2046" ry="18.3848"/>
<text text-anchor="middle" x="547" y="-352.4" font-family="Times Roman,serif" font-size="14.00">Horizon</text>
</g>
<!-- aztechnology&#45;&gt;horizon -->
<g id="edge8" class="edge"><title>aztechnology&#45;&gt;horizon</title>
<path fill="none" stroke="red" d="M425.225,-370.664C446.323,-368.123 469.275,-365.36 489.507,-362.923"/>
<polygon fill="red" stroke="red" points="489.997,-366.39 499.507,-361.719 489.16,-359.44 489.997,-366.39"/>
</g>
<!-- dernier -->
<g id="node7" class="node"><title>dernier</title>
<polygon fill="#fcd975" stroke="black" points="758,-394.5 682,-394.5 682,-317.5 758,-317.5 758,-394.5"/>
<text text-anchor="middle" x="720" y="-352.4" font-family="Times Roman,serif" font-size="14.00">Dernière</text>
</g>
<!-- aztechnology&#45;&gt;dernier -->
<g id="edge10" class="edge"><title>aztechnology&#45;&gt;dernier</title>
<path fill="none" stroke="red" d="M428.014,-386.018C482.399,-389.881 558.733,-392.234 625,-383 640.316,-380.866 656.631,-376.884 671.34,-372.622"/>
<polygon fill="red" stroke="red" points="672.667,-375.878 681.235,-369.646 670.651,-369.175 672.667,-375.878"/>
</g>
<!-- horizon&#45;&gt;dernier -->
<g id="edge12" class="edge"><title>horizon&#45;&gt;dernier</title>
<path fill="none" stroke="red" d="M594.273,-349.909C618.171,-349.048 647.137,-349.031 671.24,-349.857"/>
<polygon fill="red" stroke="red" points="671.109,-353.354 681.243,-350.263 671.393,-346.36 671.109,-353.354"/>
</g>
<!-- horizon&#45;&gt;dernier -->
<g id="edge14" class="edge"><title>horizon&#45;&gt;dernier</title>
<path fill="none" stroke="red" d="M594.273,-362.091C618.171,-362.952 647.137,-362.969 671.24,-362.143"/>
<polygon fill="red" stroke="red" points="671.393,-365.64 681.243,-361.737 671.109,-358.646 671.393,-365.64"/>
</g>
<!-- spinrad -->
<g id="node3" class="node"><title>spinrad</title>
<ellipse fill="burlywood" stroke="black" cx="720" cy="-110" rx="48.7904" ry="18.3848"/>
<text text-anchor="middle" x="720" y="-106.4" font-family="Times Roman,serif" font-size="14.00">Spinrad</text>
</g>
<!-- spinrad&#45;&gt;spinrad -->
<g id="edge40" class="edge"><title>spinrad&#45;&gt;spinrad</title>
<path fill="none" stroke="green" d="M704.647,-127.41C701.781,-137.088 706.898,-146 720,-146 728.188,-146 733.258,-142.519 735.209,-137.545"/>
<polygon fill="green" stroke="green" points="738.711,-137.459 735.353,-127.41 731.712,-137.359 738.711,-137.459"/>
</g>
<!-- spinrad&#45;&gt;spinrad -->
<g id="edge42" class="edge"><title>spinrad&#45;&gt;spinrad</title>
<path fill="none" stroke="green" d="M696.066,-125.755C679.604,-143.539 687.582,-164 720,-164 747.353,-164 757.306,-149.433 749.86,-134.199"/>
<polygon fill="green" stroke="green" points="752.543,-131.929 743.934,-125.755 746.814,-135.95 752.543,-131.929"/>
</g>
<!-- saederkrupp -->
<g id="node4" class="node"><title>saederkrupp</title>
<ellipse fill="burlywood" stroke="black" cx="547" cy="-37" rx="77.0746" ry="18.3848"/>
<text text-anchor="middle" x="547" y="-33.4" font-family="Times Roman,serif" font-size="14.00">Saeder&#45;Krupp</text>
</g>
<!-- second -->
<g id="node5" class="node"><title>second</title>
<polygon fill="#fcd975" stroke="black" points="757,-74 683,-74 683,-3.55271e-14 757,-1.42109e-14 757,-74"/>
<text text-anchor="middle" x="720" y="-33.4" font-family="Times Roman,serif" font-size="14.00">Seconde</text>
</g>
<!-- saederkrupp&#45;&gt;second -->
<g id="edge28" class="edge"><title>saederkrupp&#45;&gt;second</title>
<path fill="none" stroke="red" d="M618.615,-30.3396C636.936,-30.117 656.175,-30.3091 672.911,-30.9158"/>
<polygon fill="red" stroke="red" points="672.837,-34.4158 682.978,-31.3472 673.137,-27.4222 672.837,-34.4158"/>
</g>
<!-- saederkrupp&#45;&gt;second -->
<g id="edge30" class="edge"><title>saederkrupp&#45;&gt;second</title>
<path fill="none" stroke="red" d="M618.615,-43.6604C636.936,-43.883 656.175,-43.6909 672.911,-43.0842"/>
<polygon fill="red" stroke="red" points="673.137,-46.5778 682.978,-42.6528 672.837,-39.5842 673.137,-46.5778"/>
</g>
<!-- avantdernier -->
<g id="node6" class="node"><title>avantdernier</title>
<polygon fill="#fcd975" stroke="black" points="779,-300.5 661,-300.5 661,-181.5 779,-181.5 779,-300.5"/>
<text text-anchor="middle" x="720" y="-237.4" font-family="Times Roman,serif" font-size="14.00">Avant&#45;dernière</text>
</g>
<!-- sony -->
<g id="node9" class="node"><title>sony</title>
<ellipse fill="burlywood" stroke="black" cx="52" cy="-163" rx="36.0624" ry="18.3848"/>
<text text-anchor="middle" x="52" y="-159.4" font-family="Times Roman,serif" font-size="14.00">Sony</text>
</g>
<!-- shiawase -->
<g id="node10" class="node"><title>shiawase</title>
<ellipse fill="burlywood" stroke="black" cx="183" cy="-163" rx="58.1882" ry="18.3848"/>
<text text-anchor="middle" x="183" y="-159.4" font-family="Times Roman,serif" font-size="14.00">Shiawase</text>
</g>
<!-- sony&#45;&gt;shiawase -->
<g id="edge38" class="edge"><title>sony&#45;&gt;shiawase</title>
<path fill="none" stroke="green" d="M86.0767,-156.994C96.0019,-156.485 107.189,-156.237 118.343,-156.25"/>
<polygon fill="green" stroke="green" points="118.511,-159.752 128.54,-156.336 118.57,-152.752 118.511,-159.752"/>
</g>
<!-- renraku -->
<g id="node11" class="node"><title>renraku</title>
<ellipse fill="burlywood" stroke="black" cx="356" cy="-163" rx="51.8276" ry="18.3848"/>
<text text-anchor="middle" x="356" y="-159.4" font-family="Times Roman,serif" font-size="14.00">Renraku</text>
</g>
<!-- sony&#45;&gt;renraku -->
<g id="edge36" class="edge"><title>sony&#45;&gt;renraku</title>
<path fill="none" stroke="green" d="M78.3603,-175.486C91.7116,-181.132 108.368,-187.165 124,-190 175.603,-199.357 189.91,-196.084 242,-190 263.43,-187.497 286.674,-182.432 306.549,-177.359"/>
<polygon fill="green" stroke="green" points="307.524,-180.721 316.309,-174.799 305.748,-173.95 307.524,-180.721"/>
</g>
<!-- shiawase&#45;&gt;sony -->
<g id="edge34" class="edge"><title>shiawase&#45;&gt;sony</title>
<path fill="none" stroke="green" d="M128.54,-169.664C117.752,-169.833 106.552,-169.752 96.1578,-169.421"/>
<polygon fill="green" stroke="green" points="96.2123,-165.92 86.0767,-169.006 95.9243,-172.914 96.2123,-165.92"/>
</g>
<!-- shiawase&#45;&gt;renraku -->
<g id="edge32" class="edge"><title>shiawase&#45;&gt;renraku</title>
<path fill="none" stroke="red" d="M238.214,-156.659C256.737,-156.154 277.471,-156.117 296.32,-156.547"/>
<polygon fill="red" stroke="red" points="296.478,-160.053 306.572,-156.834 296.674,-153.055 296.478,-160.053"/>
</g>
<!-- renraku&#45;&gt;shiawase -->
<g id="edge26" class="edge"><title>renraku&#45;&gt;shiawase</title>
<path fill="none" stroke="red" d="M306.572,-169.166C288.478,-169.772 267.716,-169.906 248.439,-169.569"/>
<polygon fill="red" stroke="red" points="248.289,-166.065 238.214,-169.341 248.133,-173.063 248.289,-166.065"/>
</g>
<!-- neonet -->
<g id="node14" class="node"><title>neonet</title>
<ellipse fill="burlywood" stroke="black" cx="547" cy="-163" rx="50.9117" ry="18.3848"/>
<text text-anchor="middle" x="547" y="-159.4" font-family="Times Roman,serif" font-size="14.00">NeoNET</text>
</g>
<!-- renraku&#45;&gt;neonet -->
<g id="edge24" class="edge"><title>renraku&#45;&gt;neonet</title>
<path fill="none" stroke="red" d="M408.697,-163C432.571,-163 460.945,-163 485.76,-163"/>
<polygon fill="red" stroke="red" points="485.794,-166.5 495.794,-163 485.794,-159.5 485.794,-166.5"/>
</g>
<!-- ares -->
<g id="node13" class="node"><title>ares</title>
<ellipse fill="burlywood" stroke="black" cx="547" cy="-217" rx="33.234" ry="18.3848"/>
<text text-anchor="middle" x="547" y="-213.4" font-family="Times Roman,serif" font-size="14.00">Ares</text>
</g>
<!-- ares&#45;&gt;avantdernier -->
<g id="edge4" class="edge"><title>ares&#45;&gt;avantdernier</title>
<path fill="none" stroke="green" d="M579.135,-221.458C599.145,-224.234 625.684,-227.916 650.327,-231.334"/>
<polygon fill="green" stroke="green" points="649.997,-234.822 660.383,-232.729 650.959,-227.888 649.997,-234.822"/>
</g>
<!-- ares&#45;&gt;dernier -->
<g id="edge6" class="edge"><title>ares&#45;&gt;dernier</title>
<path fill="none" stroke="green" d="M579.795,-220.135C594.932,-223.011 612.315,-228.508 625,-239 651.804,-261.168 637.994,-282.063 660,-309 664.01,-313.909 668.621,-318.627 673.467,-323.053"/>
<polygon fill="green" stroke="green" points="671.367,-325.864 681.222,-329.753 675.943,-320.567 671.367,-325.864"/>
</g>
<!-- neonet&#45;&gt;spinrad -->
<g id="edge16" class="edge"><title>neonet&#45;&gt;spinrad</title>
<path fill="none" stroke="red" d="M585.825,-151.106C611.466,-143.25 645.236,-132.905 672.482,-124.558"/>
<polygon fill="red" stroke="red" points="673.661,-127.857 682.197,-121.581 671.611,-121.164 673.661,-127.857"/>
</g>
<!-- neonet&#45;&gt;second -->
<g id="edge18" class="edge"><title>neonet&#45;&gt;second</title>
<path fill="none" stroke="red" d="M590.412,-153.506C602.429,-149.468 614.926,-143.822 625,-136 647.297,-118.688 640.755,-103.651 660,-83 664.569,-78.0968 669.703,-73.3194 674.994,-68.8129"/>
<polygon fill="red" stroke="red" points="677.285,-71.4604 682.811,-62.4208 672.854,-66.0414 677.285,-71.4604"/>
</g>
<!-- prometheus -->
<g id="node15" class="node"><title>prometheus</title>
<ellipse fill="burlywood" stroke="black" cx="547" cy="-91" rx="70.0036" ry="18.3848"/>
<text text-anchor="middle" x="547" y="-87.4" font-family="Times Roman,serif" font-size="14.00">Prometheus</text>
</g>
<!-- prometheus&#45;&gt;second -->
<g id="edge22" class="edge"><title>prometheus&#45;&gt;second</title>
<path fill="none" stroke="green" d="M594.961,-77.8801C604.918,-75.0424 615.322,-71.9928 625,-69 640.685,-64.1496 657.71,-58.5287 672.958,-53.3636"/>
<polygon fill="green" stroke="green" points="674.353,-56.5861 682.69,-50.048 672.096,-49.9601 674.353,-56.5861"/>
</g>
<!-- prometheus&#45;&gt;prometheus -->
<g id="edge20" class="edge"><title>prometheus&#45;&gt;prometheus</title>
<path fill="none" stroke="green" d="M517.025,-107.29C509.798,-117.389 519.789,-127 547,-127 564.432,-127 574.797,-123.056 578.095,-117.566"/>
<polygon fill="green" stroke="green" points="581.538,-116.852 576.975,-107.29 574.58,-117.611 581.538,-116.852"/>
</g>
</g>
</svg>
