<?xml version="1.0" encoding="UTF-8" standalone="no"?>
<!DOCTYPE svg PUBLIC "-//W3C//DTD SVG 1.1//EN"
 "http://www.w3.org/Graphics/SVG/1.1/DTD/svg11.dtd">
<!-- Generated by graphviz version 2.26.3 (20100126.1600)
 -->
<!-- Title: g Pages: 1 -->
<svg width="766pt" height="374pt"
 viewBox="0.00 0.00 766.00 374.00" xmlns="http://www.w3.org/2000/svg" xmlns:xlink="http://www.w3.org/1999/xlink">
<g id="graph1" class="graph" transform="scale(1 1) rotate(0) translate(4 370)">
<title>g</title>
<!-- ares -->
<g id="node1" class="node"><title>ares</title>
<ellipse fill="burlywood" stroke="black" cx="72" cy="-157" rx="31.8198" ry="18.3848"/>
<text text-anchor="middle" x="72" y="-153.4" font-family="Times Roman,serif" font-size="14.00">ares</text>
</g>
<!-- premier -->
<g id="node11" class="node"><title>premier</title>
<polygon fill="#fcd975" stroke="black" points="291,-122.5 223,-122.5 223,-53.5 291,-53.5 291,-122.5"/>
<text text-anchor="middle" x="257" y="-84.4" font-family="Times Roman,serif" font-size="14.00">premier</text>
</g>
<!-- ares&#45;&gt;premier -->
<g id="edge2" class="edge"><title>ares&#45;&gt;premier</title>
<path fill="none" stroke="red" d="M98.9006,-146.967C128.763,-135.829 177.417,-117.682 212.875,-104.457"/>
<polygon fill="red" stroke="red" points="214.353,-107.642 222.5,-100.868 211.907,-101.083 214.353,-107.642"/>
</g>
<!-- second -->
<g id="node12" class="node"><title>second</title>
<polygon fill="#fcd975" stroke="black" points="289,-204 225,-204 225,-140 289,-140 289,-204"/>
<text text-anchor="middle" x="257" y="-168.4" font-family="Times Roman,serif" font-size="14.00">second</text>
</g>
<!-- ares&#45;&gt;second -->
<g id="edge4" class="edge"><title>ares&#45;&gt;second</title>
<path fill="none" stroke="red" d="M103.803,-159.579C134.511,-162.068 181.199,-165.854 214.962,-168.592"/>
<polygon fill="red" stroke="red" points="214.743,-172.085 224.993,-169.405 215.309,-165.108 214.743,-172.085"/>
</g>
<!-- aztechnology -->
<g id="node2" class="node"><title>aztechnology</title>
<ellipse fill="burlywood" stroke="black" cx="257" cy="-18" rx="77.0746" ry="18.3848"/>
<text text-anchor="middle" x="257" y="-14.4" font-family="Times Roman,serif" font-size="14.00">aztechnology</text>
</g>
<!-- horizon -->
<g id="node3" class="node"><title>horizon</title>
<ellipse fill="burlywood" stroke="black" cx="72" cy="-18" rx="48.7904" ry="18.3848"/>
<text text-anchor="middle" x="72" y="-14.4" font-family="Times Roman,serif" font-size="14.00">horizon</text>
</g>
<!-- aztechnology&#45;&gt;horizon -->
<g id="edge6" class="edge"><title>aztechnology&#45;&gt;horizon</title>
<path fill="none" stroke="green" d="M179.741,-18C163.611,-18 146.846,-18 131.48,-18"/>
<polygon fill="green" stroke="green" points="131.091,-14.5001 121.091,-18 131.091,-21.5001 131.091,-14.5001"/>
</g>
<!-- aztechnology&#45;&gt;horizon -->
<g id="edge8" class="edge"><title>aztechnology&#45;&gt;horizon</title>
<path fill="none" stroke="green" d="M201.423,-30.4947C175.84,-31.9625 145.748,-31.823 121.022,-30.076"/>
<polygon fill="green" stroke="green" points="121.037,-26.5654 110.782,-29.2289 120.459,-33.5416 121.037,-26.5654"/>
</g>
<!-- horizon&#45;&gt;aztechnology -->
<g id="edge10" class="edge"><title>horizon&#45;&gt;aztechnology</title>
<path fill="none" stroke="green" d="M110.782,-6.77108C134.082,-4.53531 164.34,-3.9503 191.282,-5.01604"/>
<polygon fill="green" stroke="green" points="191.266,-8.51927 201.423,-5.50532 191.604,-1.52741 191.266,-8.51927"/>
</g>
<!-- horizon&#45;&gt;premier -->
<g id="edge12" class="edge"><title>horizon&#45;&gt;premier</title>
<path fill="none" stroke="red" d="M106.364,-31.0024C136.288,-42.3251 179.863,-58.8131 212.457,-71.146"/>
<polygon fill="red" stroke="red" points="211.601,-74.5642 222.193,-74.8297 214.079,-68.0172 211.601,-74.5642"/>
</g>
<!-- neonet -->
<g id="node4" class="node"><title>neonet</title>
<ellipse fill="burlywood" stroke="black" cx="72" cy="-240" rx="45.9619" ry="18.3848"/>
<text text-anchor="middle" x="72" y="-236.4" font-family="Times Roman,serif" font-size="14.00">neonet</text>
</g>
<!-- neonet&#45;&gt;neonet -->
<g id="edge14" class="edge"><title>neonet&#45;&gt;neonet</title>
<path fill="none" stroke="green" d="M41.9557,-254.042C30.7196,-264.913 40.7344,-276 72,-276 94.4722,-276 105.966,-270.272 106.482,-263.014"/>
<polygon fill="green" stroke="green" points="109.615,-261.454 102.044,-254.042 103.34,-264.557 109.615,-261.454"/>
</g>
<!-- renraku -->
<g id="node6" class="node"><title>renraku</title>
<ellipse fill="burlywood" stroke="black" cx="257" cy="-240" rx="50.2046" ry="18.3848"/>
<text text-anchor="middle" x="257" y="-236.4" font-family="Times Roman,serif" font-size="14.00">renraku</text>
</g>
<!-- neonet&#45;&gt;renraku -->
<g id="edge16" class="edge"><title>neonet&#45;&gt;renraku</title>
<path fill="none" stroke="green" d="M118.206,-240C141.91,-240 171.079,-240 196.548,-240"/>
<polygon fill="green" stroke="green" points="196.841,-243.5 206.841,-240 196.841,-236.5 196.841,-243.5"/>
</g>
<!-- prometheus -->
<g id="node5" class="node"><title>prometheus</title>
<ellipse fill="burlywood" stroke="black" cx="72" cy="-88" rx="70.0036" ry="18.3848"/>
<text text-anchor="middle" x="72" y="-84.4" font-family="Times Roman,serif" font-size="14.00">prometheus</text>
</g>
<!-- prometheus&#45;&gt;premier -->
<g id="edge18" class="edge"><title>prometheus&#45;&gt;premier</title>
<path fill="none" stroke="green" d="M137.484,-81.5127C162.161,-81.0199 189.649,-81.2205 212.036,-82.1145"/>
<polygon fill="green" stroke="green" points="212.104,-85.6214 222.257,-82.5915 212.431,-78.6291 212.104,-85.6214"/>
</g>
<!-- prometheus&#45;&gt;premier -->
<g id="edge20" class="edge"><title>prometheus&#45;&gt;premier</title>
<path fill="none" stroke="green" d="M137.484,-94.4873C162.161,-94.9801 189.649,-94.7795 212.036,-93.8855"/>
<polygon fill="green" stroke="green" points="212.431,-97.3709 222.257,-93.4085 212.104,-90.3786 212.431,-97.3709"/>
</g>
<!-- shiawase -->
<g id="node8" class="node"><title>shiawase</title>
<ellipse fill="burlywood" stroke="black" cx="427" cy="-217" rx="56.0679" ry="18.3848"/>
<text text-anchor="middle" x="427" y="-213.4" font-family="Times Roman,serif" font-size="14.00">shiawase</text>
</g>
<!-- renraku&#45;&gt;shiawase -->
<g id="edge24" class="edge"><title>renraku&#45;&gt;shiawase</title>
<path fill="none" stroke="green" d="M303.903,-233.654C322.736,-231.106 344.715,-228.133 364.847,-225.409"/>
<polygon fill="green" stroke="green" points="365.428,-228.862 374.868,-224.053 364.489,-221.926 365.428,-228.862"/>
</g>
<!-- sony -->
<g id="node9" class="node"><title>sony</title>
<ellipse fill="burlywood" stroke="black" cx="568" cy="-263" rx="34.1461" ry="18.3848"/>
<text text-anchor="middle" x="568" y="-259.4" font-family="Times Roman,serif" font-size="14.00">sony</text>
</g>
<!-- renraku&#45;&gt;sony -->
<g id="edge22" class="edge"><title>renraku&#45;&gt;sony</title>
<path fill="none" stroke="red" d="M306.279,-243.644C365.938,-248.057 465.555,-255.424 523.15,-259.683"/>
<polygon fill="red" stroke="red" points="523.165,-263.194 533.396,-260.441 523.681,-256.213 523.165,-263.194"/>
</g>
<!-- saederkrupp -->
<g id="node7" class="node"><title>saederkrupp</title>
<ellipse fill="burlywood" stroke="black" cx="72" cy="-312" rx="72.1249" ry="18.3848"/>
<text text-anchor="middle" x="72" y="-308.4" font-family="Times Roman,serif" font-size="14.00">saederkrupp</text>
</g>
<!-- saederkrupp&#45;&gt;saederkrupp -->
<g id="edge26" class="edge"><title>saederkrupp&#45;&gt;saederkrupp</title>
<path fill="none" stroke="green" d="M55.4617,-329.782C52.6513,-339.315 58.1641,-348 72,-348 80.4313,-348 85.7718,-344.775 88.0217,-340.098"/>
<polygon fill="green" stroke="green" points="91.5337,-339.944 88.5383,-329.782 84.5424,-339.594 91.5337,-339.944"/>
</g>
<!-- saederkrupp&#45;&gt;saederkrupp -->
<g id="edge28" class="edge"><title>saederkrupp&#45;&gt;saederkrupp</title>
<path fill="none" stroke="green" d="M45.3354,-328.864C29.1508,-346.378 38.0391,-366 72,-366 100.655,-366 111.459,-352.031 104.415,-337.145"/>
<polygon fill="green" stroke="green" points="107.243,-335.081 98.6646,-328.864 101.493,-339.074 107.243,-335.081"/>
</g>
<!-- shiawase&#45;&gt;sony -->
<g id="edge32" class="edge"><title>shiawase&#45;&gt;sony</title>
<path fill="none" stroke="red" d="M466.652,-229.936C486.073,-236.272 509.386,-243.878 528.753,-250.196"/>
<polygon fill="red" stroke="red" points="527.887,-253.595 538.479,-253.369 530.058,-246.94 527.887,-253.595"/>
</g>
<!-- avantdernier -->
<g id="node13" class="node"><title>avantdernier</title>
<polygon fill="#fcd975" stroke="black" points="758,-293 652,-293 652,-187 758,-187 758,-293"/>
<text text-anchor="middle" x="705" y="-236.4" font-family="Times Roman,serif" font-size="14.00">avantdernier</text>
</g>
<!-- shiawase&#45;&gt;avantdernier -->
<g id="edge30" class="edge"><title>shiawase&#45;&gt;avantdernier</title>
<path fill="none" stroke="red" d="M481.924,-221.544C527.868,-225.345 593.442,-230.77 641.607,-234.755"/>
<polygon fill="red" stroke="red" points="641.352,-238.246 651.607,-235.583 641.93,-231.27 641.352,-238.246"/>
</g>
<!-- sony&#45;&gt;avantdernier -->
<g id="edge34" class="edge"><title>sony&#45;&gt;avantdernier</title>
<path fill="none" stroke="red" d="M596.386,-252.642C609.502,-249.579 625.647,-246.488 641.44,-243.936"/>
<polygon fill="red" stroke="red" points="642.385,-247.332 651.732,-242.343 641.314,-240.414 642.385,-247.332"/>
</g>
<!-- sony&#45;&gt;avantdernier -->
<g id="edge36" class="edge"><title>sony&#45;&gt;avantdernier</title>
<path fill="none" stroke="red" d="M602.571,-263.149C614.446,-261.763 628.142,-259.724 641.575,-257.381"/>
<polygon fill="red" stroke="red" points="642.546,-260.763 651.763,-255.536 641.299,-253.875 642.546,-260.763"/>
</g>
<!-- spinrad -->
<g id="node10" class="node"><title>spinrad</title>
<ellipse fill="burlywood" stroke="black" cx="568" cy="-153" rx="46.8775" ry="18.3848"/>
<text text-anchor="middle" x="568" y="-149.4" font-family="Times Roman,serif" font-size="14.00">spinrad</text>
</g>
<!-- spinrad&#45;&gt;spinrad -->
<g id="edge38" class="edge"><title>spinrad&#45;&gt;spinrad</title>
<path fill="none" stroke="red" d="M544.517,-168.916C538.391,-179.15 546.219,-189 568,-189 582.294,-189 590.579,-184.758 592.854,-178.949"/>
<polygon fill="red" stroke="red" points="596.305,-178.35 591.483,-168.916 589.369,-179.298 596.305,-178.35"/>
</g>
<!-- spinrad&#45;&gt;avantdernier -->
<g id="edge40" class="edge"><title>spinrad&#45;&gt;avantdernier</title>
<path fill="none" stroke="green" d="M592.493,-168.554C606.647,-177.542 625.149,-189.292 643.049,-200.659"/>
<polygon fill="green" stroke="green" points="641.448,-203.788 651.766,-206.194 645.2,-197.879 641.448,-203.788"/>
</g>
</g>
</svg>
