<?xml version="1.0" encoding="UTF-8" standalone="no"?>
<!DOCTYPE svg PUBLIC "-//W3C//DTD SVG 1.1//EN"
 "http://www.w3.org/Graphics/SVG/1.1/DTD/svg11.dtd">
<!-- Generated by graphviz version 2.26.3 (20100126.1600)
 -->
<!-- Title: g Pages: 1 -->
<svg width="926pt" height="493pt"
 viewBox="0.00 0.00 926.00 493.00" xmlns="http://www.w3.org/2000/svg" xmlns:xlink="http://www.w3.org/1999/xlink">
<g id="graph1" class="graph" transform="scale(1 1) rotate(0) translate(4 489)">
<title>g</title>
<g id="graph2" class="cluster"><title>cluster_nikkei</title>
<polygon fill="none" stroke="black" points="360,-82 360,-180 757,-180 757,-82 360,-82"/>
<text text-anchor="middle" x="558.5" y="-163.4" font-family="Times Roman,serif" font-size="14.00">Nikkei</text>
</g>
<g id="graph3" class="cluster"><title>cluster_dowjones</title>
<polygon fill="none" stroke="black" points="184,-147 184,-351 340,-351 340,-147 184,-147"/>
<text text-anchor="middle" x="262" y="-334.4" font-family="Times Roman,serif" font-size="14.00">Dow Jones</text>
</g>
<!-- aztechnology -->
<g id="node1" class="node"><title>aztechnology</title>
<ellipse fill="burlywood" stroke="black" cx="78" cy="-377" rx="77.7817" ry="18.3848"/>
<text text-anchor="middle" x="78" y="-373.4" font-family="Times Roman,serif" font-size="14.00">Aztechnology</text>
</g>
<!-- horizon -->
<g id="node2" class="node"><title>horizon</title>
<ellipse fill="burlywood" stroke="black" cx="262" cy="-377" rx="50.2046" ry="18.3848"/>
<text text-anchor="middle" x="262" y="-373.4" font-family="Times Roman,serif" font-size="14.00">Horizon</text>
</g>
<!-- aztechnology&#45;&gt;horizon -->
<g id="edge8" class="edge"><title>aztechnology&#45;&gt;horizon</title>
<path fill="none" stroke="green" d="M134.206,-364.453C159.267,-363.051 188.525,-363.196 212.718,-364.887"/>
<polygon fill="green" stroke="green" points="212.498,-368.381 222.75,-365.706 213.068,-361.404 212.498,-368.381"/>
</g>
<!-- aztechnology&#45;&gt;horizon -->
<g id="edge10" class="edge"><title>aztechnology&#45;&gt;horizon</title>
<path fill="none" stroke="green" d="M156.033,-377C171.244,-377 186.978,-377 201.517,-377"/>
<polygon fill="green" stroke="green" points="201.867,-380.5 211.867,-377 201.867,-373.5 201.867,-380.5"/>
</g>
<!-- horizon&#45;&gt;aztechnology -->
<g id="edge12" class="edge"><title>horizon&#45;&gt;aztechnology</title>
<path fill="none" stroke="green" d="M222.75,-388.294C199.992,-390.445 170.73,-391.023 144.479,-390.027"/>
<polygon fill="green" stroke="green" points="144.358,-386.518 134.206,-389.547 144.032,-393.51 144.358,-386.518"/>
</g>
<!-- premier -->
<g id="node5" class="node"><title>premier</title>
<polygon fill="#fcd975" stroke="black" points="460,-358 382,-358 382,-280 460,-280 460,-358"/>
<text text-anchor="middle" x="421" y="-315.4" font-family="Times Roman,serif" font-size="14.00">Première</text>
</g>
<!-- horizon&#45;&gt;premier -->
<g id="edge14" class="edge"><title>horizon&#45;&gt;premier</title>
<path fill="none" stroke="red" d="M303.236,-366.558C315.206,-363.208 328.222,-359.253 340,-355 350.747,-351.119 362.074,-346.461 372.74,-341.803"/>
<polygon fill="red" stroke="red" points="374.194,-344.987 381.912,-337.729 371.352,-338.589 374.194,-344.987"/>
</g>
<!-- spinrad -->
<g id="node3" class="node"><title>spinrad</title>
<ellipse fill="burlywood" stroke="black" cx="713" cy="-18" rx="48.7904" ry="18.3848"/>
<text text-anchor="middle" x="713" y="-14.4" font-family="Times Roman,serif" font-size="14.00">Spinrad</text>
</g>
<!-- spinrad&#45;&gt;spinrad -->
<g id="edge40" class="edge"><title>spinrad&#45;&gt;spinrad</title>
<path fill="none" stroke="red" d="M688.136,-33.916C681.649,-44.1504 689.938,-54 713,-54 728.135,-54 736.907,-49.7581 739.316,-43.9494"/>
<polygon fill="red" stroke="red" points="742.76,-43.3118 737.864,-33.916 735.832,-44.3142 742.76,-43.3118"/>
</g>
<!-- avantdernier -->
<g id="node7" class="node"><title>avantdernier</title>
<polygon fill="#fcd975" stroke="black" points="917,-164.5 799,-164.5 799,-45.5 917,-45.5 917,-164.5"/>
<text text-anchor="middle" x="858" y="-101.4" font-family="Times Roman,serif" font-size="14.00">Avant&#45;dernière</text>
</g>
<!-- spinrad&#45;&gt;avantdernier -->
<g id="edge42" class="edge"><title>spinrad&#45;&gt;avantdernier</title>
<path fill="none" stroke="green" d="M738.589,-33.3536C752.843,-41.9055 771.335,-53.001 789.493,-63.8955"/>
<polygon fill="green" stroke="green" points="787.984,-67.0718 798.359,-69.2155 791.585,-61.0693 787.984,-67.0718"/>
</g>
<!-- saederkrupp -->
<g id="node4" class="node"><title>saederkrupp</title>
<ellipse fill="burlywood" stroke="black" cx="78" cy="-431" rx="77.0746" ry="18.3848"/>
<text text-anchor="middle" x="78" y="-427.4" font-family="Times Roman,serif" font-size="14.00">Saeder&#45;Krupp</text>
</g>
<!-- saederkrupp&#45;&gt;saederkrupp -->
<g id="edge28" class="edge"><title>saederkrupp&#45;&gt;saederkrupp</title>
<path fill="none" stroke="green" d="M61.4617,-448.782C58.6513,-458.315 64.1641,-467 78,-467 86.4313,-467 91.7718,-463.775 94.0217,-459.098"/>
<polygon fill="green" stroke="green" points="97.5337,-458.944 94.5383,-448.782 90.5424,-458.594 97.5337,-458.944"/>
</g>
<!-- saederkrupp&#45;&gt;saederkrupp -->
<g id="edge30" class="edge"><title>saederkrupp&#45;&gt;saederkrupp</title>
<path fill="none" stroke="green" d="M51.0806,-448.142C35.2456,-465.585 44.2188,-485 78,-485 106.239,-485 117.142,-471.433 110.71,-456.792"/>
<polygon fill="green" stroke="green" points="113.391,-454.505 104.919,-448.142 107.574,-458.399 113.391,-454.505"/>
</g>
<!-- second -->
<g id="node6" class="node"><title>second</title>
<polygon fill="#fcd975" stroke="black" points="458,-262 384,-262 384,-188 458,-188 458,-262"/>
<text text-anchor="middle" x="421" y="-221.4" font-family="Times Roman,serif" font-size="14.00">Seconde</text>
</g>
<!-- sony -->
<g id="node9" class="node"><title>sony</title>
<ellipse fill="burlywood" stroke="black" cx="713" cy="-128" rx="36.0624" ry="18.3848"/>
<text text-anchor="middle" x="713" y="-124.4" font-family="Times Roman,serif" font-size="14.00">Sony</text>
</g>
<!-- sony&#45;&gt;avantdernier -->
<g id="edge36" class="edge"><title>sony&#45;&gt;avantdernier</title>
<path fill="none" stroke="red" d="M742.693,-117.719C756.004,-114.771 772.315,-111.792 788.432,-109.29"/>
<polygon fill="red" stroke="red" points="789.041,-112.738 798.413,-107.798 788.006,-105.815 789.041,-112.738"/>
</g>
<!-- sony&#45;&gt;avantdernier -->
<g id="edge38" class="edge"><title>sony&#45;&gt;avantdernier</title>
<path fill="none" stroke="red" d="M749.216,-128.19C761.047,-126.894 774.615,-125.012 788.066,-122.839"/>
<polygon fill="red" stroke="red" points="789.013,-126.229 798.298,-121.126 787.857,-119.326 789.013,-126.229"/>
</g>
<!-- shiawase -->
<g id="node10" class="node"><title>shiawase</title>
<ellipse fill="burlywood" stroke="black" cx="569" cy="-108" rx="58.1882" ry="18.3848"/>
<text text-anchor="middle" x="569" y="-104.4" font-family="Times Roman,serif" font-size="14.00">Shiawase</text>
</g>
<!-- shiawase&#45;&gt;avantdernier -->
<g id="edge32" class="edge"><title>shiawase&#45;&gt;avantdernier</title>
<path fill="none" stroke="red" d="M625.476,-103.152C638.142,-102.256 651.522,-101.459 664,-101 705.08,-99.4886 751.077,-100.327 787.968,-101.618"/>
<polygon fill="red" stroke="red" points="787.998,-105.122 798.121,-101.993 788.257,-98.1264 787.998,-105.122"/>
</g>
<!-- shiawase&#45;&gt;sony -->
<g id="edge34" class="edge"><title>shiawase&#45;&gt;sony</title>
<path fill="none" stroke="red" d="M622.62,-115.447C637.548,-117.521 653.606,-119.751 667.985,-121.748"/>
<polygon fill="red" stroke="red" points="667.732,-125.246 678.119,-123.155 668.695,-118.313 667.732,-125.246"/>
</g>
<!-- renraku -->
<g id="node11" class="node"><title>renraku</title>
<ellipse fill="burlywood" stroke="black" cx="421" cy="-128" rx="51.8276" ry="18.3848"/>
<text text-anchor="middle" x="421" y="-124.4" font-family="Times Roman,serif" font-size="14.00">Renraku</text>
</g>
<!-- renraku&#45;&gt;sony -->
<g id="edge24" class="edge"><title>renraku&#45;&gt;sony</title>
<path fill="none" stroke="red" d="M471.79,-132.687C484.273,-133.647 497.61,-134.514 510,-135 562.404,-137.058 575.6,-137.154 628,-135 640.714,-134.477 654.471,-133.517 667.137,-132.471"/>
<polygon fill="red" stroke="red" points="667.811,-135.926 677.474,-131.581 667.21,-128.952 667.811,-135.926"/>
</g>
<!-- renraku&#45;&gt;shiawase -->
<g id="edge26" class="edge"><title>renraku&#45;&gt;shiawase</title>
<path fill="none" stroke="green" d="M469.871,-121.396C481.137,-119.873 493.285,-118.232 505.084,-116.637"/>
<polygon fill="green" stroke="green" points="505.891,-120.06 515.332,-115.252 504.954,-113.123 505.891,-120.06"/>
</g>
<!-- ares -->
<g id="node13" class="node"><title>ares</title>
<ellipse fill="burlywood" stroke="black" cx="262" cy="-245" rx="33.234" ry="18.3848"/>
<text text-anchor="middle" x="262" y="-241.4" font-family="Times Roman,serif" font-size="14.00">Ares</text>
</g>
<!-- ares&#45;&gt;premier -->
<g id="edge4" class="edge"><title>ares&#45;&gt;premier</title>
<path fill="none" stroke="red" d="M291.044,-253.582C305.948,-258.353 324.236,-264.78 340,-272 350.971,-277.025 362.389,-283.087 373.072,-289.162"/>
<polygon fill="red" stroke="red" points="371.44,-292.261 381.847,-294.245 374.949,-286.204 371.44,-292.261"/>
</g>
<!-- ares&#45;&gt;second -->
<g id="edge6" class="edge"><title>ares&#45;&gt;second</title>
<path fill="none" stroke="red" d="M294.176,-240.953C316.986,-238.084 347.967,-234.186 373.599,-230.962"/>
<polygon fill="red" stroke="red" points="374.368,-234.393 383.853,-229.673 373.495,-227.448 374.368,-234.393"/>
</g>
<!-- neonet -->
<g id="node14" class="node"><title>neonet</title>
<ellipse fill="burlywood" stroke="black" cx="262" cy="-173" rx="50.9117" ry="18.3848"/>
<text text-anchor="middle" x="262" y="-169.4" font-family="Times Roman,serif" font-size="14.00">NeoNET</text>
</g>
<!-- neonet&#45;&gt;renraku -->
<g id="edge18" class="edge"><title>neonet&#45;&gt;renraku</title>
<path fill="none" stroke="green" d="M302.122,-161.645C322.865,-155.774 348.392,-148.549 370.467,-142.302"/>
<polygon fill="green" stroke="green" points="371.668,-145.599 380.337,-139.508 369.762,-138.864 371.668,-145.599"/>
</g>
<!-- neonet&#45;&gt;neonet -->
<g id="edge16" class="edge"><title>neonet&#45;&gt;neonet</title>
<path fill="none" stroke="green" d="M234.986,-188.541C227.382,-198.909 236.387,-209 262,-209 278.809,-209 288.465,-204.654 290.968,-198.736"/>
<polygon fill="green" stroke="green" points="294.334,-197.704 289.014,-188.541 287.459,-199.022 294.334,-197.704"/>
</g>
<!-- prometheus -->
<g id="node15" class="node"><title>prometheus</title>
<ellipse fill="burlywood" stroke="black" cx="262" cy="-299" rx="70.0036" ry="18.3848"/>
<text text-anchor="middle" x="262" y="-295.4" font-family="Times Roman,serif" font-size="14.00">Prometheus</text>
</g>
<!-- prometheus&#45;&gt;premier -->
<g id="edge20" class="edge"><title>prometheus&#45;&gt;premier</title>
<path fill="none" stroke="green" d="M331.74,-301.068C345.303,-302.647 359.25,-304.54 371.972,-306.544"/>
<polygon fill="green" stroke="green" points="371.445,-310.005 381.88,-308.172 372.579,-303.097 371.445,-310.005"/>
</g>
<!-- prometheus&#45;&gt;premier -->
<g id="edge22" class="edge"><title>prometheus&#45;&gt;premier</title>
<path fill="none" stroke="green" d="M312.309,-311.656C331.27,-314.614 352.803,-317.312 371.673,-319.093"/>
<polygon fill="green" stroke="green" points="371.582,-322.599 381.85,-319.984 372.193,-315.625 371.582,-322.599"/>
</g>
</g>
</svg>
