<?xml version="1.0" encoding="UTF-8" standalone="no"?>
<!DOCTYPE svg PUBLIC "-//W3C//DTD SVG 1.1//EN"
 "http://www.w3.org/Graphics/SVG/1.1/DTD/svg11.dtd">
<!-- Generated by graphviz version 2.26.3 (20100126.1600)
 -->
<!-- Title: g Pages: 1 -->
<svg width="758pt" height="518pt"
 viewBox="0.00 0.00 758.00 518.00" xmlns="http://www.w3.org/2000/svg" xmlns:xlink="http://www.w3.org/1999/xlink">
<g id="graph1" class="graph" transform="scale(1 1) rotate(0) translate(4 514)">
<title>g</title>
<g id="graph2" class="cluster"><title>cluster_nikkei</title>
<polygon fill="none" stroke="black" points="192,-82 192,-180 589,-180 589,-82 192,-82"/>
<text text-anchor="middle" x="390.5" y="-163.4" font-family="Times Roman,serif" font-size="14.00">Nikkei</text>
</g>
<g id="graph3" class="cluster"><title>cluster_dowjones</title>
<polygon fill="none" stroke="black" points="8,-119 8,-323 164,-323 164,-119 8,-119"/>
<text text-anchor="middle" x="86" y="-306.4" font-family="Times Roman,serif" font-size="14.00">Dow Jones</text>
</g>
<!-- aztechnology -->
<g id="node1" class="node"><title>aztechnology</title>
<ellipse fill="burlywood" stroke="black" cx="86" cy="-402" rx="77.7817" ry="18.3848"/>
<text text-anchor="middle" x="86" y="-398.4" font-family="Times Roman,serif" font-size="14.00">Aztechnology</text>
</g>
<!-- horizon -->
<g id="node2" class="node"><title>horizon</title>
<ellipse fill="burlywood" stroke="black" cx="253" cy="-402" rx="50.2046" ry="18.3848"/>
<text text-anchor="middle" x="253" y="-398.4" font-family="Times Roman,serif" font-size="14.00">Horizon</text>
</g>
<!-- aztechnology&#45;&gt;horizon -->
<g id="edge9" class="edge"><title>aztechnology&#45;&gt;horizon</title>
<path fill="none" stroke="green" d="M141.145,-389.217C161.614,-388.143 184.662,-388.276 204.495,-389.614"/>
<polygon fill="green" stroke="green" points="204.293,-393.109 214.542,-390.424 204.856,-386.132 204.293,-393.109"/>
</g>
<!-- aztechnology&#45;&gt;horizon -->
<g id="edge11" class="edge"><title>aztechnology&#45;&gt;horizon</title>
<path fill="none" stroke="green" d="M164.121,-402C173.62,-402 183.211,-402 192.402,-402"/>
<polygon fill="green" stroke="green" points="192.581,-405.5 202.581,-402 192.581,-398.5 192.581,-405.5"/>
</g>
<!-- horizon&#45;&gt;aztechnology -->
<g id="edge13" class="edge"><title>horizon&#45;&gt;aztechnology</title>
<path fill="none" stroke="green" d="M214.542,-413.576C195.751,-415.359 172.618,-415.903 151.179,-415.207"/>
<polygon fill="green" stroke="green" points="151.284,-411.708 141.145,-414.783 150.988,-418.702 151.284,-411.708"/>
</g>
<!-- premier -->
<g id="node5" class="node"><title>premier</title>
<polygon fill="#fcd975" stroke="black" points="440,-266 362,-266 362,-188 440,-188 440,-266"/>
<text text-anchor="middle" x="401" y="-223.4" font-family="Times Roman,serif" font-size="14.00">Première</text>
</g>
<!-- horizon&#45;&gt;premier -->
<g id="edge15" class="edge"><title>horizon&#45;&gt;premier</title>
<path fill="none" stroke="red" d="M282.416,-387.361C290.58,-382.5 299.091,-376.617 306,-370 334.677,-342.536 359.234,-304.931 376.193,-275.177"/>
<polygon fill="red" stroke="red" points="379.379,-276.651 381.208,-266.215 373.27,-273.232 379.379,-276.651"/>
</g>
<!-- spinrad -->
<g id="node3" class="node"><title>spinrad</title>
<ellipse fill="burlywood" stroke="black" cx="545" cy="-18" rx="48.7904" ry="18.3848"/>
<text text-anchor="middle" x="545" y="-14.4" font-family="Times Roman,serif" font-size="14.00">Spinrad</text>
</g>
<!-- spinrad&#45;&gt;spinrad -->
<g id="edge41" class="edge"><title>spinrad&#45;&gt;spinrad</title>
<path fill="none" stroke="red" d="M520.136,-33.916C513.649,-44.1504 521.938,-54 545,-54 560.135,-54 568.907,-49.7581 571.316,-43.9494"/>
<polygon fill="red" stroke="red" points="574.76,-43.3118 569.864,-33.916 567.832,-44.3142 574.76,-43.3118"/>
</g>
<!-- avantdernier -->
<g id="node7" class="node"><title>avantdernier</title>
<polygon fill="#fcd975" stroke="black" points="749,-164.5 631,-164.5 631,-45.5 749,-45.5 749,-164.5"/>
<text text-anchor="middle" x="690" y="-101.4" font-family="Times Roman,serif" font-size="14.00">Avant&#45;dernière</text>
</g>
<!-- spinrad&#45;&gt;avantdernier -->
<g id="edge43" class="edge"><title>spinrad&#45;&gt;avantdernier</title>
<path fill="none" stroke="green" d="M570.589,-33.3536C584.843,-41.9055 603.335,-53.001 621.493,-63.8955"/>
<polygon fill="green" stroke="green" points="619.984,-67.0718 630.359,-69.2155 623.585,-61.0693 619.984,-67.0718"/>
</g>
<!-- saederkrupp -->
<g id="node4" class="node"><title>saederkrupp</title>
<ellipse fill="burlywood" stroke="black" cx="86" cy="-456" rx="77.0746" ry="18.3848"/>
<text text-anchor="middle" x="86" y="-452.4" font-family="Times Roman,serif" font-size="14.00">Saeder&#45;Krupp</text>
</g>
<!-- saederkrupp&#45;&gt;saederkrupp -->
<g id="edge29" class="edge"><title>saederkrupp&#45;&gt;saederkrupp</title>
<path fill="none" stroke="green" d="M71.0796,-473.782C68.5441,-483.315 73.5176,-492 86,-492 93.6065,-492 98.4246,-488.775 100.454,-484.098"/>
<polygon fill="green" stroke="green" points="103.965,-483.93 100.92,-473.782 96.9726,-483.614 103.965,-483.93"/>
</g>
<!-- saederkrupp&#45;&gt;saederkrupp -->
<g id="edge31" class="edge"><title>saederkrupp&#45;&gt;saederkrupp</title>
<path fill="none" stroke="green" d="M61.714,-473.142C47.4281,-490.585 55.5234,-510 86,-510 111.477,-510 121.313,-496.433 115.51,-481.792"/>
<polygon fill="green" stroke="green" points="118.452,-479.892 110.286,-473.142 112.46,-483.511 118.452,-479.892"/>
</g>
<!-- second -->
<g id="node6" class="node"><title>second</title>
<polygon fill="#fcd975" stroke="black" points="290,-328 216,-328 216,-254 290,-254 290,-328"/>
<text text-anchor="middle" x="253" y="-287.4" font-family="Times Roman,serif" font-size="14.00">Seconde</text>
</g>
<!-- sony -->
<g id="node9" class="node"><title>sony</title>
<ellipse fill="burlywood" stroke="black" cx="545" cy="-128" rx="36.0624" ry="18.3848"/>
<text text-anchor="middle" x="545" y="-124.4" font-family="Times Roman,serif" font-size="14.00">Sony</text>
</g>
<!-- sony&#45;&gt;avantdernier -->
<g id="edge37" class="edge"><title>sony&#45;&gt;avantdernier</title>
<path fill="none" stroke="red" d="M574.693,-117.719C588.004,-114.771 604.315,-111.792 620.432,-109.29"/>
<polygon fill="red" stroke="red" points="621.041,-112.738 630.413,-107.798 620.006,-105.815 621.041,-112.738"/>
</g>
<!-- sony&#45;&gt;avantdernier -->
<g id="edge39" class="edge"><title>sony&#45;&gt;avantdernier</title>
<path fill="none" stroke="red" d="M581.216,-128.19C593.047,-126.894 606.615,-125.012 620.066,-122.839"/>
<polygon fill="red" stroke="red" points="621.013,-126.229 630.298,-121.126 619.857,-119.326 621.013,-126.229"/>
</g>
<!-- shiawase -->
<g id="node10" class="node"><title>shiawase</title>
<ellipse fill="burlywood" stroke="black" cx="401" cy="-108" rx="58.1882" ry="18.3848"/>
<text text-anchor="middle" x="401" y="-104.4" font-family="Times Roman,serif" font-size="14.00">Shiawase</text>
</g>
<!-- shiawase&#45;&gt;avantdernier -->
<g id="edge33" class="edge"><title>shiawase&#45;&gt;avantdernier</title>
<path fill="none" stroke="red" d="M457.476,-103.152C470.142,-102.256 483.522,-101.459 496,-101 537.08,-99.4886 583.077,-100.327 619.968,-101.618"/>
<polygon fill="red" stroke="red" points="619.998,-105.122 630.121,-101.993 620.257,-98.1264 619.998,-105.122"/>
</g>
<!-- shiawase&#45;&gt;sony -->
<g id="edge35" class="edge"><title>shiawase&#45;&gt;sony</title>
<path fill="none" stroke="red" d="M454.62,-115.447C469.548,-117.521 485.606,-119.751 499.985,-121.748"/>
<polygon fill="red" stroke="red" points="499.732,-125.246 510.119,-123.155 500.695,-118.313 499.732,-125.246"/>
</g>
<!-- renraku -->
<g id="node11" class="node"><title>renraku</title>
<ellipse fill="burlywood" stroke="black" cx="253" cy="-128" rx="51.8276" ry="18.3848"/>
<text text-anchor="middle" x="253" y="-124.4" font-family="Times Roman,serif" font-size="14.00">Renraku</text>
</g>
<!-- renraku&#45;&gt;sony -->
<g id="edge25" class="edge"><title>renraku&#45;&gt;sony</title>
<path fill="none" stroke="red" d="M303.79,-132.687C316.273,-133.647 329.61,-134.514 342,-135 394.404,-137.058 407.6,-137.154 460,-135 472.714,-134.477 486.471,-133.517 499.137,-132.471"/>
<polygon fill="red" stroke="red" points="499.811,-135.926 509.474,-131.581 499.21,-128.952 499.811,-135.926"/>
</g>
<!-- renraku&#45;&gt;shiawase -->
<g id="edge27" class="edge"><title>renraku&#45;&gt;shiawase</title>
<path fill="none" stroke="green" d="M301.871,-121.396C313.137,-119.873 325.285,-118.232 337.084,-116.637"/>
<polygon fill="green" stroke="green" points="337.891,-120.06 347.332,-115.252 336.954,-113.123 337.891,-120.06"/>
</g>
<!-- ares -->
<g id="node13" class="node"><title>ares</title>
<ellipse fill="burlywood" stroke="black" cx="86" cy="-271" rx="33.234" ry="18.3848"/>
<text text-anchor="middle" x="86" y="-267.4" font-family="Times Roman,serif" font-size="14.00">Ares</text>
</g>
<!-- ares&#45;&gt;premier -->
<g id="edge5" class="edge"><title>ares&#45;&gt;premier</title>
<path fill="none" stroke="red" d="M118.332,-274.725C133.363,-277.736 150.791,-283.176 164,-293 182.599,-306.833 171.681,-325.846 192,-337 236.415,-361.381 259.929,-358.085 306,-337 334.302,-324.047 357.387,-298.037 373.71,-274.561"/>
<polygon fill="red" stroke="red" points="376.751,-276.31 379.415,-266.056 370.938,-272.411 376.751,-276.31"/>
</g>
<!-- ares&#45;&gt;second -->
<g id="edge7" class="edge"><title>ares&#45;&gt;second</title>
<path fill="none" stroke="red" d="M118.596,-274.904C143.45,-277.88 178.036,-282.022 205.898,-285.359"/>
<polygon fill="red" stroke="red" points="205.483,-288.834 215.829,-286.548 206.316,-281.884 205.483,-288.834"/>
</g>
<!-- neonet -->
<g id="node14" class="node"><title>neonet</title>
<ellipse fill="burlywood" stroke="black" cx="86" cy="-145" rx="50.9117" ry="18.3848"/>
<text text-anchor="middle" x="86" y="-141.4" font-family="Times Roman,serif" font-size="14.00">NeoNET</text>
</g>
<!-- neonet&#45;&gt;renraku -->
<g id="edge19" class="edge"><title>neonet&#45;&gt;renraku</title>
<path fill="none" stroke="green" d="M135.202,-139.991C153.144,-138.165 173.644,-136.078 192.457,-134.163"/>
<polygon fill="green" stroke="green" points="192.819,-137.644 202.413,-133.15 192.11,-130.68 192.819,-137.644"/>
</g>
<!-- neonet&#45;&gt;neonet -->
<g id="edge17" class="edge"><title>neonet&#45;&gt;neonet</title>
<path fill="none" stroke="green" d="M57.9146,-160.167C49.4038,-170.664 58.7656,-181 86,-181 104.298,-181 114.528,-176.334 116.69,-170.088"/>
<polygon fill="green" stroke="green" points="120.01,-168.95 114.085,-160.167 113.24,-170.728 120.01,-168.95"/>
</g>
<!-- prometheus -->
<g id="node15" class="node"><title>prometheus</title>
<ellipse fill="burlywood" stroke="black" cx="86" cy="-217" rx="70.0036" ry="18.3848"/>
<text text-anchor="middle" x="86" y="-213.4" font-family="Times Roman,serif" font-size="14.00">Prometheus</text>
</g>
<!-- prometheus&#45;&gt;premier -->
<g id="edge21" class="edge"><title>prometheus&#45;&gt;premier</title>
<path fill="none" stroke="green" d="M154.739,-213.493C214.138,-213.782 298.546,-216.667 351.512,-220.356"/>
<polygon fill="green" stroke="green" points="351.439,-223.86 361.669,-221.104 351.953,-216.879 351.439,-223.86"/>
</g>
<!-- prometheus&#45;&gt;premier -->
<g id="edge23" class="edge"><title>prometheus&#45;&gt;premier</title>
<path fill="none" stroke="green" d="M149.745,-224.572C209.363,-228.213 297.159,-230.84 351.619,-230.501"/>
<polygon fill="green" stroke="green" points="351.753,-234 361.717,-230.398 351.682,-227 351.753,-234"/>
</g>
</g>
</svg>
